<svg width="19" height="18" viewBox="0 0 19 18" fill="none" xmlns="http://www.w3.org/2000/svg">
<path d="M8.9439 9.54877C8.70443 9.30909 8.31601 9.30892 8.07633 9.54839C7.83665 9.78786 7.83648 10.1763 8.07595 10.416L8.9439 9.54877ZM11.0674 11.9324L10.7642 12.4656C11.0043 12.6021 11.3059 12.5614 11.5012 12.3661L11.0674 11.9324ZM12.0199 10.9799L11.5886 10.5437L11.5861 10.5461L12.0199 10.9799ZM13.6024 10.6424L13.3866 11.2166L13.388 11.2171L13.6024 10.6424ZM15.7099 11.1674L15.7958 10.5599L15.7901 10.5592L15.7099 11.1674ZM16.9999 12.6674L16.3865 12.6613V12.6674H16.9999ZM16.9999 14.9174H16.3865L16.3865 14.9199L16.9999 14.9174ZM15.3649 16.4174L15.2986 17.0273L15.3097 17.0283L15.3649 16.4174ZM8.89242 14.1149L9.22622 13.6001L9.22125 13.597L8.89242 14.1149ZM6.82895 11.6788C6.58951 11.4391 6.20109 11.4389 5.96138 11.6783C5.72168 11.9178 5.72146 12.3062 5.9609 12.5459L6.82895 11.6788ZM3.87763 9.94111C4.06197 10.2254 4.44185 10.3064 4.72612 10.122C5.01038 9.93769 5.09138 9.55781 4.90704 9.27354L3.87763 9.94111ZM2.08983 3.13483L1.47876 3.19005L1.47996 3.2011L2.08983 3.13483ZM3.58233 1.49983V0.886367L3.58176 0.886367L3.58233 1.49983ZM5.83233 1.49983V2.11332L5.83837 2.11326L5.83233 1.49983ZM7.33233 2.78983L7.94055 2.70961L7.93976 2.70397L7.33233 2.78983ZM7.85733 4.89733L7.28258 5.1118L7.2831 5.11318L7.85733 4.89733ZM7.51983 6.47983L7.95362 6.91362L7.95604 6.91118L7.51983 6.47983ZM6.13355 6.99855C5.89398 7.23812 5.89398 7.62654 6.13355 7.86611C6.37312 8.10568 6.76154 8.10568 7.00112 7.86611L6.13355 6.99855ZM8.07595 10.416C8.876 11.2167 9.7802 11.9061 10.7642 12.4656L11.3707 11.3991C10.4824 10.894 9.66613 10.2716 8.9439 9.54877L8.07595 10.416ZM11.5012 12.3661L12.4537 11.4136L11.5861 10.5461L10.6336 11.4986L11.5012 12.3661ZM12.4513 11.4161C12.6974 11.1727 13.0626 11.0948 13.3866 11.2166L13.8183 10.0681C13.0459 9.77781 12.1753 9.9635 11.5886 10.5437L12.4513 11.4161ZM13.388 11.2171C14.1118 11.4872 14.8638 11.6745 15.6297 11.7756L15.7901 10.5592C15.116 10.4703 14.454 10.3054 13.8169 10.0676L13.388 11.2171ZM15.6241 11.7748C16.0647 11.8371 16.3909 12.2163 16.3865 12.6613L17.6134 12.6734C17.6238 11.6126 16.8462 10.7084 15.7958 10.5599L15.6241 11.7748ZM16.3865 12.6674V14.9174H17.6134V12.6674H16.3865ZM16.3865 14.9199C16.3875 15.1695 16.2832 15.408 16.0993 15.5767L16.9287 16.4808C17.3672 16.0785 17.6158 15.51 17.6134 14.9149L16.3865 14.9199ZM16.0993 15.5767C15.9153 15.7455 15.6688 15.8289 15.4201 15.8064L15.3097 17.0283C15.9024 17.0819 16.4902 16.8831 16.9287 16.4808L16.0993 15.5767ZM15.4312 15.8075C13.2187 15.5671 11.0935 14.8111 9.22621 13.6002L8.55864 14.6296C10.5869 15.9449 12.8954 16.7661 15.2987 17.0272L15.4312 15.8075ZM9.22125 13.597C8.35576 13.0474 7.55348 12.4042 6.82895 11.6788L5.9609 12.5459C6.74915 13.335 7.62199 14.0349 8.56359 14.6327L9.22125 13.597ZM4.90704 9.27354C3.69614 7.4063 2.94011 5.28105 2.69971 3.06856L1.47996 3.2011C1.74109 5.60436 2.56231 7.91286 3.87763 9.94111L4.90704 9.27354ZM2.70081 3.07962C2.67841 2.83177 2.76121 2.58593 2.92899 2.40214L2.02283 1.57496C1.62286 2.01311 1.42547 2.59919 1.47886 3.19004L2.70081 3.07962ZM2.92899 2.40214C3.09676 2.21834 3.33406 2.11353 3.58291 2.11329L3.58176 0.886367C2.9885 0.886926 2.4228 1.1368 2.02283 1.57496L2.92899 2.40214ZM3.58233 2.11329H5.83233V0.886367H3.58233V2.11329ZM5.83837 2.11326C6.28335 2.10888 6.66263 2.43506 6.72491 2.87568L7.93976 2.70397C7.79129 1.65355 6.88711 0.875956 5.8263 0.886397L5.83837 2.11326ZM6.72414 2.87004C6.82515 3.63596 7.01249 4.388 7.28258 5.1118L8.43208 4.68286C8.19435 4.04575 8.02945 3.38379 7.94053 2.70961L6.72414 2.87004ZM7.2831 5.11318C7.40488 5.43716 7.32699 5.80238 7.08363 6.04848L7.95604 6.91118C8.5362 6.32449 8.72189 5.45381 8.43157 4.68148L7.2831 5.11318ZM7.08605 6.04605L6.13355 6.99855L7.00112 7.86611L7.95362 6.91361L7.08605 6.04605Z" fill="#999999"/>
<path d="M17.7498 0.75L1.24976 17.25" stroke="#999999" stroke-width="1.22693" stroke-linecap="round" stroke-linejoin="round"/>
</svg>
