<svg width="19" height="18" viewBox="0 0 19 18" fill="none" xmlns="http://www.w3.org/2000/svg">
<path d="M8.00003 11.2501H8.6135C8.6135 10.9113 8.33884 10.6366 8.00003 10.6366V11.2501ZM10.25 16.5001V17.1136C10.4925 17.1136 10.7122 16.9708 10.8106 16.7492L10.25 16.5001ZM13.25 9.7501L13.8106 9.99925C13.8455 9.92081 13.8635 9.83593 13.8635 9.7501H13.25ZM13.25 1.5001H13.8635C13.8635 1.16129 13.5888 0.886634 13.25 0.886634V1.5001ZM4.79003 1.5001L4.7831 2.11356H4.79003V1.5001ZM3.29003 2.7751L3.89641 2.86807L3.89656 2.86708L3.29003 2.7751ZM2.25503 9.52509L1.64866 9.43212L1.64852 9.43304L2.25503 9.52509ZM3.75503 11.2501V10.6366L3.74809 10.6367L3.75503 11.2501ZM13.2501 1.50003V0.886568C12.9112 0.886568 12.6366 1.16122 12.6366 1.50003H13.2501ZM15.2526 1.50003V2.11359L15.2634 2.1134L15.2526 1.50003ZM17.0001 3.00003H17.6135C17.6135 2.97253 17.6117 2.94506 17.608 2.9178L17.0001 3.00003ZM17.0001 8.25003L17.608 8.33226C17.6117 8.30501 17.6135 8.27753 17.6135 8.25003H17.0001ZM15.2526 9.75003L15.2634 9.13657H15.2526V9.75003ZM13.2501 9.75003H12.6366C12.6366 10.0888 12.9112 10.3635 13.2501 10.3635V9.75003ZM7.38657 11.2501V14.2501H8.6135V11.2501H7.38657ZM7.38657 14.2501C7.38657 15.8315 8.66859 17.1136 10.25 17.1136V15.8866C9.3462 15.8866 8.6135 15.1539 8.6135 14.2501H7.38657ZM10.8106 16.7492L13.8106 9.99925L12.6894 9.50094L9.68945 16.2509L10.8106 16.7492ZM13.8635 9.7501V1.5001H12.6366V9.7501H13.8635ZM13.25 0.886634H4.79003V2.11356H13.25V0.886634ZM4.79697 0.886673C3.7431 0.874759 2.84153 1.6411 2.68351 2.68312L3.89656 2.86708C3.96285 2.42998 4.34103 2.10852 4.7831 2.11352L4.79697 0.886673ZM2.68366 2.68212L1.64866 9.43212L2.86141 9.61807L3.89641 2.86807L2.68366 2.68212ZM1.64852 9.43304C1.55547 10.0461 1.73634 10.6691 2.14322 11.137L3.06906 10.3319C2.89839 10.1356 2.82252 9.87431 2.86155 9.61715L1.64852 9.43304ZM2.14322 11.137C2.5501 11.6049 3.14194 11.8705 3.76198 11.8635L3.74809 10.6367C3.488 10.6396 3.23974 10.5282 3.06906 10.3319L2.14322 11.137ZM3.75503 11.8636H8.00003V10.6366H3.75503V11.8636ZM13.2501 2.11349H15.2526V0.886568H13.2501V2.11349ZM15.2634 2.1134C15.8309 2.10336 16.316 2.51979 16.3921 3.08226L17.608 2.9178C17.4485 1.73863 16.4314 0.865624 15.2417 0.886664L15.2634 2.1134ZM16.3866 3.00003V8.25003H17.6135V3.00003H16.3866ZM16.3921 8.1678C16.316 8.73027 15.8309 9.1467 15.2634 9.13666L15.2417 10.3634C16.4314 10.3844 17.4485 9.51144 17.608 8.33226L16.3921 8.1678ZM15.2526 9.13657H13.2501V10.3635H15.2526V9.13657ZM13.8635 9.75003V1.50003H12.6366V9.75003H13.8635Z" fill="#999999"/>
</svg>
