<svg width="19" height="18" viewBox="0 0 19 18" fill="none" xmlns="http://www.w3.org/2000/svg">
<path fill-rule="evenodd" clip-rule="evenodd" d="M9.5 11.25C10.7426 11.25 11.75 10.2426 11.75 9C11.75 7.75736 10.7426 6.75 9.5 6.75C8.25736 6.75 7.25 7.75736 7.25 9C7.25 10.2426 8.25736 11.25 9.5 11.25Z" stroke="#999999" stroke-width="1.22693" stroke-linecap="round" stroke-linejoin="round"/>
<path fill-rule="evenodd" clip-rule="evenodd" d="M15.05 11.25C14.8457 11.7128 14.9438 12.2534 15.2975 12.615L15.3425 12.66C15.6242 12.9414 15.7824 13.3231 15.7824 13.7213C15.7824 14.1194 15.6242 14.5011 15.3425 14.7825C15.0611 15.0642 14.6794 15.2224 14.2812 15.2224C13.8831 15.2224 13.5014 15.0642 13.22 14.7825L13.175 14.7375C12.8134 14.3838 12.2728 14.2857 11.81 14.49C11.3566 14.6843 11.062 15.1293 11.06 15.6225V15.75C11.06 16.5784 10.3884 17.25 9.56 17.25C8.73157 17.25 8.06 16.5784 8.06 15.75V15.6825C8.04812 15.1745 7.7269 14.7254 7.25 14.55C6.78718 14.3457 6.24664 14.4438 5.885 14.7975L5.84 14.8425C5.55865 15.1242 5.17686 15.2824 4.77875 15.2824C4.38064 15.2824 3.99885 15.1242 3.7175 14.8425C3.43583 14.5611 3.27757 14.1794 3.27757 13.7812C3.27757 13.3831 3.43583 13.0014 3.7175 12.72L3.7625 12.675C4.11625 12.3134 4.21426 11.7728 4.01 11.31C3.8157 10.8566 3.37073 10.562 2.8775 10.56H2.75C1.92157 10.56 1.25 9.88843 1.25 9.06C1.25 8.23157 1.92157 7.56 2.75 7.56H2.8175C3.3255 7.54812 3.7746 7.2269 3.95 6.75C4.15426 6.28718 4.05625 5.74664 3.7025 5.385L3.6575 5.34C3.37583 5.05865 3.21757 4.67686 3.21757 4.27875C3.21757 3.88064 3.37583 3.49885 3.6575 3.2175C3.93885 2.93583 4.32064 2.77757 4.71875 2.77757C5.11686 2.77757 5.49865 2.93583 5.78 3.2175L5.825 3.2625C6.18664 3.61625 6.72718 3.71426 7.19 3.51H7.25C7.70335 3.3157 7.99803 2.87073 8 2.3775V2.25C8 1.42157 8.67157 0.75 9.5 0.75C10.3284 0.75 11 1.42157 11 2.25V2.3175C11.002 2.81073 11.2966 3.2557 11.75 3.45C12.2128 3.65426 12.7534 3.55625 13.115 3.2025L13.16 3.1575C13.4414 2.87583 13.8231 2.71757 14.2213 2.71757C14.6194 2.71757 15.0011 2.87583 15.2825 3.1575C15.5642 3.43885 15.7224 3.82064 15.7224 4.21875C15.7224 4.61686 15.5642 4.99865 15.2825 5.28L15.2375 5.325C14.8838 5.68664 14.7857 6.22718 14.99 6.69V6.75C15.1843 7.20335 15.6293 7.49803 16.1225 7.5H16.25C17.0784 7.5 17.75 8.17157 17.75 9C17.75 9.82843 17.0784 10.5 16.25 10.5H16.1825C15.6893 10.502 15.2443 10.7966 15.05 11.25Z" stroke="#999999" stroke-width="1.22693" stroke-linecap="round" stroke-linejoin="round"/>
</svg>
