<svg width="19" height="18" viewBox="0 0 19 18" fill="none" xmlns="http://www.w3.org/2000/svg">
<path d="M2.75 13.5V9C2.75 5.27208 5.77208 2.25 9.5 2.25C13.2279 2.25 16.25 5.27208 16.25 9V13.5" stroke="#999999" stroke-width="1.22693" stroke-linecap="round" stroke-linejoin="round"/>
<path d="M16.25 10.4998H16.8635C16.8635 10.1609 16.5889 9.88629 16.25 9.88629V10.4998ZM2.75 10.4999V9.8864C2.41119 9.8864 2.13654 10.1611 2.13654 10.4999H2.75ZM15.6366 14.2498C15.6366 14.7394 15.2397 15.1363 14.7501 15.1363V16.3632C15.9173 16.3632 16.8635 15.417 16.8635 14.2498H15.6366ZM14.7501 15.1363H14.0001V16.3632H14.7501V15.1363ZM14.0001 15.1363C13.5104 15.1363 13.1135 14.7394 13.1135 14.2498H11.8866C11.8866 15.417 12.8328 16.3632 14.0001 16.3632V15.1363ZM13.1135 14.2498V11.9998H11.8866V14.2498H13.1135ZM13.1135 11.9998C13.1135 11.5101 13.5104 11.1132 14.0001 11.1132V9.88629C12.8328 9.88629 11.8866 10.8325 11.8866 11.9998H13.1135ZM14.0001 11.1132H16.25V9.88629H14.0001V11.1132ZM15.6366 10.4998V14.2498H16.8635V10.4998H15.6366ZM2.13654 14.2499C2.13654 15.4171 3.08277 16.3633 4.25 16.3633V15.1364C3.76038 15.1364 3.36346 14.7395 3.36346 14.2499H2.13654ZM4.25 16.3633H5V15.1364H4.25V16.3633ZM5 16.3633C6.16723 16.3633 7.11346 15.4171 7.11346 14.2499H5.88654C5.88654 14.7395 5.48962 15.1364 5 15.1364V16.3633ZM7.11346 14.2499V11.9999H5.88654V14.2499H7.11346ZM7.11346 11.9999C7.11346 10.8326 6.16723 9.8864 5 9.8864V11.1133C5.48962 11.1133 5.88654 11.5102 5.88654 11.9999H7.11346ZM5 9.8864H2.75V11.1133H5V9.8864ZM2.13654 10.4999V14.2499H3.36346V10.4999H2.13654Z" fill="#999999"/>
</svg>
