<svg width="19" height="18" viewBox="0 0 19 18" fill="none" xmlns="http://www.w3.org/2000/svg">
<path d="M8 9.74997C8.65172 10.6212 9.64972 11.1665 10.735 11.2442C11.8203 11.3219 12.8858 10.9245 13.655 10.155L15.905 7.90497C17.3261 6.43355 17.3058 4.09466 15.8593 2.64816C14.4128 1.20165 12.0739 1.18133 10.6025 2.60247L9.3125 3.88497" stroke="#999999" stroke-width="1.22693" stroke-linecap="round" stroke-linejoin="round"/>
<path d="M11.0001 8.24994C10.3484 7.37867 9.35043 6.83341 8.26516 6.75569C7.1799 6.67796 6.11438 7.07543 5.34515 7.84494L3.09515 10.0949C1.674 11.5664 1.69433 13.9053 3.14083 15.3518C4.58733 16.7983 6.92623 16.8186 8.39765 15.3974L9.68015 14.1149" stroke="#999999" stroke-width="1.22693" stroke-linecap="round" stroke-linejoin="round"/>
</svg>
