<svg width="19" height="18" viewBox="0 0 19 18" fill="none" xmlns="http://www.w3.org/2000/svg">
<path fill-rule="evenodd" clip-rule="evenodd" d="M9.5 10.5C10.3284 10.5 11 9.82843 11 9C11 8.17157 10.3284 7.5 9.5 7.5C8.67157 7.5 8 8.17157 8 9C8 9.82843 8.67157 10.5 9.5 10.5Z" stroke="#999999" stroke-width="1.22693" stroke-linecap="round" stroke-linejoin="round"/>
<path fill-rule="evenodd" clip-rule="evenodd" d="M9.5 4.5C10.3284 4.5 11 3.82843 11 3C11 2.17157 10.3284 1.5 9.5 1.5C8.67157 1.5 8 2.17157 8 3C8 3.82843 8.67157 4.5 9.5 4.5Z" stroke="#999999" stroke-width="1.22693" stroke-linecap="round" stroke-linejoin="round"/>
<path fill-rule="evenodd" clip-rule="evenodd" d="M9.5 16.5C10.3284 16.5 11 15.8284 11 15C11 14.1716 10.3284 13.5 9.5 13.5C8.67157 13.5 8 14.1716 8 15C8 15.8284 8.67157 16.5 9.5 16.5Z" stroke="#999999" stroke-width="1.22693" stroke-linecap="round" stroke-linejoin="round"/>
</svg>
