<svg width="19" height="18" viewBox="0 0 19 18" fill="none" xmlns="http://www.w3.org/2000/svg">
<path d="M17.7498 3V7.5H13.2498" stroke="#999999" stroke-width="1.22693" stroke-linecap="round" stroke-linejoin="round"/>
<path d="M1.24976 15V10.5H5.74976" stroke="#999999" stroke-width="1.22693" stroke-linecap="round" stroke-linejoin="round"/>
<path d="M2.55372 6.54541C2.44069 6.86481 2.60799 7.21536 2.92739 7.32838C3.24679 7.44141 3.59733 7.27411 3.71036 6.95471L2.55372 6.54541ZM14.2695 4.23006L13.8356 4.66374C13.8402 4.66827 13.8448 4.67273 13.8495 4.67713L14.2695 4.23006ZM17.3295 7.94713C17.5764 8.17913 17.9646 8.16705 18.1966 7.92015C18.4286 7.67324 18.4165 7.28501 18.1696 7.053L17.3295 7.94713ZM1.66984 10.053C1.42293 9.82098 1.0347 9.83306 0.802693 10.08C0.570687 10.3269 0.582765 10.7151 0.829671 10.9471L1.66984 10.053ZM4.72976 13.77L5.16365 13.3364C5.15912 13.3318 5.15451 13.3274 5.14984 13.323L4.72976 13.77ZM16.4456 11.4547C16.5586 11.1353 16.3913 10.7848 16.0719 10.6717C15.7525 10.5587 15.402 10.726 15.2889 11.0454L16.4456 11.4547ZM3.71036 6.95471C4.41325 4.96839 6.08606 3.48158 8.14113 3.01659L7.87037 1.81992C5.40441 2.37787 3.39715 4.16195 2.55372 6.54541L3.71036 6.95471ZM8.14113 3.01659C10.1962 2.55161 12.3461 3.17348 13.8356 4.66374L14.7034 3.79639C12.9161 2.00817 10.3363 1.26196 7.87037 1.81992L8.14113 3.01659ZM13.8495 4.67713L17.3295 7.94713L18.1696 7.053L14.6896 3.783L13.8495 4.67713ZM0.829671 10.9471L4.30967 14.2171L5.14984 13.323L1.66984 10.053L0.829671 10.9471ZM4.29586 14.2037C6.08319 15.9919 8.66297 16.7381 11.1289 16.1802L10.8582 14.9835C8.80309 15.4485 6.65316 14.8266 5.16365 13.3364L4.29586 14.2037ZM11.1289 16.1802C13.5949 15.6222 15.6021 13.8382 16.4456 11.4547L15.2889 11.0454C14.586 13.0317 12.9132 14.5185 10.8582 14.9835L11.1289 16.1802Z" fill="#999999"/>
</svg>
