<svg width="19" height="18" viewBox="0 0 19 18" fill="none" xmlns="http://www.w3.org/2000/svg">
<path fill-rule="evenodd" clip-rule="evenodd" d="M9.5 12C11.1569 12 12.5 10.6569 12.5 9C12.5 7.34315 11.1569 6 9.5 6C7.84315 6 6.5 7.34315 6.5 9C6.5 10.6569 7.84315 12 9.5 12Z" stroke="#999999" stroke-width="1.22693" stroke-linecap="round" stroke-linejoin="round"/>
<path d="M12.5 9.00002V9.75002C12.5 10.9927 13.5073 12 14.75 12C15.9926 12 17 10.9927 17 9.75002V9.00002C16.9997 5.5147 14.5986 2.48883 11.2044 1.69674C7.81031 0.904655 4.31782 2.55511 2.7749 5.68031C1.23198 8.80551 2.04529 12.5818 4.73793 14.7947C7.43056 17.0077 11.2928 17.0741 14.06 14.955" stroke="#999999" stroke-width="1.22693" stroke-linecap="round" stroke-linejoin="round"/>
</svg>
