<svg width="19" height="18" viewBox="0 0 19 18" fill="none" xmlns="http://www.w3.org/2000/svg">
<path d="M7.42628 15.5876C7.75079 15.4903 7.93495 15.1483 7.83759 14.8238C7.74024 14.4992 7.39824 14.3151 7.07372 14.4124L7.42628 15.5876ZM2.14879 12.1549C1.8201 12.0727 1.48703 12.2726 1.40485 12.6012C1.32268 12.9299 1.52252 13.263 1.85121 13.3452L2.14879 12.1549ZM11.8865 17.2501C11.8865 17.5889 12.1611 17.8635 12.4999 17.8635C12.8388 17.8635 13.1134 17.5889 13.1134 17.2501H11.8865ZM12.4999 14.3476L11.8884 14.2995C11.8871 14.3155 11.8865 14.3315 11.8865 14.3476H12.4999ZM11.7949 12.3901L11.727 11.7804C11.4944 11.8063 11.2968 11.9624 11.2176 12.1826C11.1385 12.4029 11.1916 12.649 11.3545 12.8171L11.7949 12.3901ZM16.6249 7.14008H17.2384V7.13996L16.6249 7.14008ZM15.4999 4.32758L14.9252 4.11308C14.8431 4.33303 14.8938 4.58054 15.0556 4.75057L15.4999 4.32758ZM15.4324 1.50008L15.9963 1.2584C15.9245 1.09077 15.7817 0.963801 15.6069 0.911939L15.4324 1.50008ZM12.4999 2.61008L12.3395 3.20218C12.5109 3.24863 12.694 3.21853 12.8415 3.11964L12.4999 2.61008ZM7.24995 2.61008L6.90837 3.11964C7.05588 3.21853 7.23901 3.24863 7.41042 3.20218L7.24995 2.61008ZM4.31745 1.50008L4.143 0.911939C3.96815 0.963801 3.82544 1.09077 3.7536 1.2584L4.31745 1.50008ZM4.24995 4.32758L4.69425 4.75058C4.85613 4.58055 4.90678 4.33304 4.82469 4.11308L4.24995 4.32758ZM3.12495 7.16258H3.73842L3.7384 7.15931L3.12495 7.16258ZM7.95495 12.4126L8.39578 12.8392C8.55752 12.6721 8.61084 12.4278 8.53347 12.2085C8.45611 11.9892 8.26136 11.8325 8.03056 11.8038L7.95495 12.4126ZM7.24995 14.3476H7.86341C7.86341 14.3332 7.86291 14.3189 7.8619 14.3045L7.24995 14.3476ZM6.63649 17.2501C6.63649 17.5889 6.91114 17.8635 7.24995 17.8635C7.58875 17.8635 7.86341 17.5889 7.86341 17.2501H6.63649ZM7.07372 14.4124C6.20598 14.6728 5.61573 14.6762 5.19839 14.5785C4.78895 14.4827 4.48731 14.276 4.21503 14.0038C4.07544 13.8642 3.94584 13.7096 3.81097 13.5406C3.68367 13.3812 3.53579 13.1881 3.39278 13.0202C3.10403 12.6812 2.71756 12.2971 2.14879 12.1549L1.85121 13.3452C2.03244 13.3905 2.20847 13.522 2.45879 13.8158C2.5853 13.9643 2.7011 14.1169 2.85212 14.3061C2.99557 14.4858 3.15893 14.6828 3.34747 14.8713C3.73144 15.2553 4.22667 15.6112 4.9188 15.7731C5.60302 15.9333 6.41902 15.8898 7.42628 15.5876L7.07372 14.4124ZM13.1134 17.2501V14.3476H11.8865V17.2501H13.1134ZM13.1115 14.3957C13.1822 13.4966 12.8631 12.6106 12.2354 11.9631L11.3545 12.8171C11.737 13.2117 11.9315 13.7516 11.8884 14.2995L13.1115 14.3957ZM11.8629 12.9998C13.0749 12.8647 14.4327 12.559 15.4879 11.6718C16.5729 10.7595 17.2384 9.32024 17.2384 7.14008H16.0115C16.0115 9.05491 15.4395 10.1094 14.6983 10.7327C13.9272 11.3811 12.87 11.653 11.727 11.7804L11.8629 12.9998ZM17.2384 7.13996C17.2382 5.93539 16.7748 4.77701 15.9443 3.90458L15.0556 4.75057C15.6691 5.39494 16.0113 6.2505 16.0115 7.14019L17.2384 7.13996ZM16.0747 4.54207C16.4717 3.47815 16.4437 2.30216 15.9963 1.2584L14.8686 1.74175C15.1917 2.49551 15.2119 3.34476 14.9252 4.11308L16.0747 4.54207ZM15.4324 1.50008C15.6069 0.911939 15.6063 0.911763 15.6057 0.911587C15.6055 0.911527 15.6049 0.91135 15.6045 0.911231C15.6037 0.910992 15.6028 0.910751 15.602 0.910508C15.6003 0.910022 15.5986 0.909526 15.5968 0.909022C15.5931 0.908014 15.5893 0.906973 15.5852 0.905906C15.5771 0.903773 15.568 0.901541 15.558 0.899269C15.538 0.894723 15.5144 0.890032 15.487 0.88567C15.4323 0.876935 15.3631 0.869587 15.2791 0.867275C15.1107 0.862641 14.8858 0.878302 14.6011 0.941506C14.0328 1.06767 13.2296 1.38241 12.1584 2.10051L12.8415 3.11964C13.8178 2.46524 14.4809 2.22498 14.867 2.13927C15.0595 2.09654 15.1837 2.09204 15.2453 2.09374C15.2762 2.09459 15.2922 2.09702 15.2938 2.09728C15.2947 2.09742 15.292 2.09703 15.286 2.09566C15.283 2.09497 15.2791 2.09405 15.2745 2.09282C15.2721 2.09221 15.2696 2.09153 15.2668 2.09076C15.2655 2.09038 15.264 2.08997 15.2626 2.08955C15.2618 2.08934 15.2611 2.08912 15.2603 2.0889C15.2599 2.08878 15.2594 2.08861 15.2592 2.08856C15.2586 2.08839 15.258 2.08821 15.4324 1.50008ZM12.6604 2.01797C10.8363 1.52361 8.91355 1.52361 7.08948 2.01797L7.41042 3.20218C9.02433 2.76477 10.7256 2.76477 12.3395 3.20218L12.6604 2.01797ZM7.59153 2.10051C6.52026 1.38241 5.71713 1.06767 5.14884 0.941506C4.86414 0.878302 4.63919 0.862641 4.47084 0.867275C4.38684 0.869587 4.31763 0.876935 4.26286 0.88567C4.23551 0.890032 4.21186 0.894723 4.19187 0.899269C4.18188 0.901541 4.17281 0.903773 4.16467 0.905906C4.16059 0.906973 4.15675 0.908014 4.15314 0.909022C4.15134 0.909526 4.14959 0.910021 4.1479 0.910508C4.14705 0.910751 4.14622 0.910992 4.14541 0.911231C4.145 0.91135 4.1444 0.911527 4.14419 0.911587C4.1436 0.911763 4.143 0.911939 4.31745 1.50008C4.4919 2.08821 4.49131 2.08839 4.49072 2.08856C4.49053 2.08861 4.48995 2.08878 4.48957 2.0889C4.48881 2.08912 4.48806 2.08934 4.48732 2.08955C4.48585 2.08997 4.48443 2.09038 4.48305 2.09076C4.48031 2.09153 4.47777 2.09221 4.47543 2.09282C4.47076 2.09405 4.46691 2.09497 4.4639 2.09566C4.45788 2.09703 4.45524 2.09742 4.45609 2.09728C4.45772 2.09702 4.47365 2.09459 4.5046 2.09374C4.56617 2.09204 4.69044 2.09654 4.88293 2.13927C5.26901 2.22498 5.93213 2.46524 6.90837 3.11964L7.59153 2.10051ZM3.7536 1.2584C3.30623 2.30216 3.27816 3.47815 3.67521 4.54207L4.82469 4.11308C4.53796 3.34476 4.55823 2.49551 4.8813 1.74175L3.7536 1.2584ZM3.80565 3.90457C2.96887 4.78347 2.50504 5.95232 2.51149 7.16584L3.7384 7.15931C3.73364 6.26302 4.07622 5.39973 4.69425 4.75058L3.80565 3.90457ZM2.51149 7.16258C2.51149 9.32971 3.17825 10.7605 4.26201 11.6718C5.31501 12.5572 6.67043 12.8712 7.87933 13.0214L8.03056 11.8038C6.88447 11.6614 5.82489 11.3829 5.05164 10.7327C4.30915 10.1084 3.73841 9.06044 3.73841 7.16258H2.51149ZM7.51411 11.986C6.89395 12.6268 6.57543 13.501 6.638 14.3906L7.8619 14.3045C7.82377 13.7624 8.01787 13.2297 8.39578 12.8392L7.51411 11.986ZM6.63649 14.3476V17.2501H7.86341V14.3476H6.63649Z" fill="#999999"/>
</svg>
