<svg width="19" height="18" viewBox="0 0 19 18" fill="none" xmlns="http://www.w3.org/2000/svg">
<path d="M1.25 0.75L17.75 17.25" stroke="#999999" stroke-width="1.22693" stroke-linecap="round" stroke-linejoin="round"/>
<path d="M7.86346 6.74992C7.86346 6.41111 7.58881 6.13646 7.25 6.13646C6.91119 6.13646 6.63654 6.41111 6.63654 6.74992H7.86346ZM7.25 8.99992H6.63654L6.63654 9.00046L7.25 8.99992ZM11.5235 11.024C11.7632 10.7845 11.7635 10.3961 11.5241 10.1564C11.2846 9.91668 10.8962 9.91644 10.6565 10.1559L11.5235 11.024ZM11.1366 7.00495C11.1366 7.34375 11.4113 7.61841 11.7501 7.61841C12.0889 7.61841 12.3635 7.34375 12.3635 7.00495H11.1366ZM11.7501 2.99995L11.1366 2.99933V2.99995H11.7501ZM6.69387 2.42787C6.62645 2.7599 6.84096 3.08372 7.17299 3.15114C7.50502 3.21856 7.82884 3.00405 7.89626 2.67202L6.69387 2.42787ZM6.63654 6.74992V8.99992H7.86346V6.74992H6.63654ZM6.63654 9.00046C6.63756 10.1578 7.3352 11.2008 8.40454 11.6436L8.87392 10.51C8.26277 10.2569 7.86404 9.66085 7.86346 8.99938L6.63654 9.00046ZM8.40454 11.6436C9.47388 12.0863 10.7046 11.8419 11.5235 11.024L10.6565 10.1559C10.1885 10.6233 9.48507 10.763 8.87392 10.51L8.40454 11.6436ZM12.3635 7.00495V2.99995H11.1366V7.00495H12.3635ZM12.3635 3.00057C12.365 1.52945 11.2515 0.296567 9.78784 0.148722L9.66454 1.36944C10.5011 1.45393 11.1374 2.15856 11.1366 2.99933L12.3635 3.00057ZM9.78784 0.148722C8.32418 0.000876904 6.98662 0.986181 6.69387 2.42787L7.89626 2.67202C8.06357 1.84806 8.82802 1.28494 9.66454 1.36944L9.78784 0.148722Z" fill="#999999"/>
<path d="M13.6883 13.1418C13.9255 12.8998 13.9215 12.5114 13.6795 12.2743C13.4374 12.0372 13.049 12.0412 12.8119 12.2832L13.6883 13.1418ZM4.25014 9L4.8636 9.00449V9H4.25014ZM4.8636 7.5C4.8636 7.16119 4.58895 6.88654 4.25014 6.88654C3.91134 6.88654 3.63668 7.16119 3.63668 7.5H4.8636ZM15.3636 7.50006C15.3636 7.16126 15.089 6.8866 14.7502 6.8866C14.4114 6.8866 14.1367 7.16126 14.1367 7.50006H15.3636ZM14.7502 9.00006L15.3636 9.0006V9.00006H14.7502ZM14.0638 9.81423C14.004 10.1477 14.2259 10.4666 14.5593 10.5264C14.8928 10.5862 15.2117 10.3644 15.2715 10.0309L14.0638 9.81423ZM12.8119 12.2832C11.4892 13.6333 9.47926 14.0454 7.73195 13.3246L7.26408 14.4588C9.47377 15.3703 12.0155 14.8492 13.6883 13.1418L12.8119 12.2832ZM7.73195 13.3246C5.98463 12.6038 4.84976 10.8946 4.86359 9.00449L3.6367 8.99551C3.61921 11.3857 5.0544 13.5473 7.26408 14.4588L7.73195 13.3246ZM4.8636 9V7.5H3.63668V9H4.8636ZM14.1367 7.50006V9.00006H15.3636V7.50006H14.1367ZM14.1367 8.99953C14.1365 9.27271 14.1121 9.54534 14.0638 9.81423L15.2715 10.0309C15.3325 9.69084 15.3633 9.34607 15.3636 9.0006L14.1367 8.99953Z" fill="#999999"/>
<path d="M9.5 14.25V17.25" stroke="#999999" stroke-width="1.22693" stroke-linecap="round" stroke-linejoin="round"/>
<path d="M6.5 17.25H12.5" stroke="#999999" stroke-width="1.22693" stroke-linecap="round" stroke-linejoin="round"/>
</svg>
