<svg width="19" height="18" viewBox="0 0 19 18" fill="none" xmlns="http://www.w3.org/2000/svg">
<path d="M13.25 15.75V14.25C13.25 12.5931 11.9069 11.25 10.25 11.25H4.25C2.59315 11.25 1.25 12.5931 1.25 14.25V15.75" stroke="#999999" stroke-width="1.22693" stroke-linecap="round" stroke-linejoin="round"/>
<path fill-rule="evenodd" clip-rule="evenodd" d="M7.25 8.25C8.90685 8.25 10.25 6.90685 10.25 5.25C10.25 3.59315 8.90685 2.25 7.25 2.25C5.59315 2.25 4.25 3.59315 4.25 5.25C4.25 6.90685 5.59315 8.25 7.25 8.25Z" stroke="#999999" stroke-width="1.22693" stroke-linecap="round" stroke-linejoin="round"/>
<path d="M17.75 15.7499V14.2499C17.749 12.8828 16.8237 11.6892 15.5 11.3474" stroke="#999999" stroke-width="1.22693" stroke-linecap="round" stroke-linejoin="round"/>
<path d="M12.5 2.34741C13.8274 2.68729 14.7559 3.88341 14.7559 5.25366C14.7559 6.62392 13.8274 7.82004 12.5 8.15991" stroke="#999999" stroke-width="1.22693" stroke-linecap="round" stroke-linejoin="round"/>
</svg>
