<svg width="19" height="18" viewBox="0 0 19 18" fill="none" xmlns="http://www.w3.org/2000/svg">
<path d="M13.1135 12C13.1135 11.6612 12.8388 11.3865 12.5 11.3865C12.1612 11.3865 11.8865 11.6612 11.8865 12H13.1135ZM1.25 12.75H0.636537H1.25ZM4.25 4.36346C4.58881 4.36346 4.86346 4.08881 4.86346 3.75C4.86346 3.41119 4.58881 3.13654 4.25 3.13654V4.36346ZM8.49502 3.13668C8.15622 3.13668 7.88156 3.41133 7.88156 3.75014C7.88156 4.08894 8.15622 4.3636 8.49502 4.3636V3.13668ZM12.5 7.75514H11.8866C11.8866 7.91784 11.9512 8.07388 12.0662 8.18892L12.5 7.75514ZM13.25 8.50514L12.8162 8.93892C13.0293 9.15195 13.3655 9.17877 13.6096 9.0022L13.25 8.50514ZM17.75 5.25014H18.3635C18.3635 5.01969 18.2343 4.80867 18.0291 4.70383C17.8239 4.59899 17.5772 4.61801 17.3905 4.75308L17.75 5.25014ZM17.1366 12.7501C17.1366 13.0889 17.4112 13.3636 17.75 13.3636C18.0888 13.3636 18.3635 13.0889 18.3635 12.7501H17.1366ZM11.8865 12V12.75H13.1135V12H11.8865ZM11.8865 12.75C11.8865 13.2396 11.4896 13.6365 11 13.6365V14.8635C12.1672 14.8635 13.1135 13.9172 13.1135 12.75H11.8865ZM11 13.6365H2.75V14.8635H11V13.6365ZM2.75 13.6365C2.26038 13.6365 1.86346 13.2396 1.86346 12.75H0.636537C0.636537 13.9172 1.58277 14.8635 2.75 14.8635V13.6365ZM1.86346 12.75V5.25H0.636537V12.75H1.86346ZM1.86346 5.25C1.86346 4.76038 2.26038 4.36346 2.75 4.36346V3.13654C1.58277 3.13654 0.636537 4.08277 0.636537 5.25H1.86346ZM2.75 4.36346H4.25V3.13654H2.75V4.36346ZM8.49502 4.3636H11V3.13668H8.49502V4.3636ZM11 4.3636C11.4896 4.3636 11.8866 4.76052 11.8866 5.25014H13.1135C13.1135 4.08291 12.1673 3.13668 11 3.13668V4.3636ZM11.8866 5.25014V7.75514H13.1135V5.25014H11.8866ZM12.0662 8.18892L12.8162 8.93892L13.6838 8.07136L12.9338 7.32136L12.0662 8.18892ZM13.6096 9.0022L18.1096 5.7472L17.3905 4.75308L12.8905 8.00808L13.6096 9.0022ZM17.1366 5.25014V12.7501H18.3635V5.25014H17.1366Z" fill="#999999"/>
<path d="M1.25 0.75L17.75 17.25" stroke="#999999" stroke-width="1.22693" stroke-linecap="round" stroke-linejoin="round"/>
</svg>
