<svg width="19" height="18" viewBox="0 0 19 18" fill="none" xmlns="http://www.w3.org/2000/svg">
<path d="M11.7499 4.63654C11.4111 4.63654 11.1365 4.91119 11.1365 5.25C11.1365 5.58881 11.4111 5.86346 11.7499 5.86346V4.63654ZM13.9999 5.25V4.63654V5.25ZM11.7499 12.1365C11.4111 12.1365 11.1365 12.4112 11.1365 12.75C11.1365 13.0888 11.4111 13.3635 11.7499 13.3635V12.1365ZM7.25 13.3635C7.58881 13.3635 7.86346 13.0889 7.86346 12.7501C7.86346 12.4113 7.58881 12.1366 7.25 12.1366V13.3635ZM7.25 5.86352C7.58881 5.86352 7.86346 5.58886 7.86346 5.25006C7.86346 4.91125 7.58881 4.6366 7.25 4.6366V5.86352ZM11.7499 5.86346H13.9999V4.63654H11.7499V5.86346ZM13.9999 5.86346C14.8318 5.86346 15.6296 6.19392 16.2178 6.78213L17.0853 5.91457C16.267 5.09626 15.1572 4.63654 13.9999 4.63654V5.86346ZM16.2178 6.78213C16.806 7.37035 17.1365 8.16814 17.1365 9H18.3634C18.3634 7.84274 17.9037 6.73287 17.0853 5.91457L16.2178 6.78213ZM17.1365 9C17.1365 10.7323 15.7322 12.1365 13.9999 12.1365V13.3635C16.4098 13.3635 18.3634 11.4099 18.3634 9H17.1365ZM13.9999 12.1365H11.7499V13.3635H13.9999V12.1365ZM7.25 12.1366H5V13.3635H7.25V12.1366ZM5 12.1366C4.16814 12.1366 3.37035 11.8061 2.78213 11.2179L1.91457 12.0855C2.73287 12.9038 3.84274 13.3635 5 13.3635V12.1366ZM2.78213 11.2179C2.19392 10.6297 1.86346 9.83192 1.86346 9.00006H0.636537C0.636537 10.1573 1.09626 11.2672 1.91457 12.0855L2.78213 11.2179ZM1.86346 9.00006C1.86346 7.2678 3.26774 5.86352 5 5.86352V4.6366C2.59013 4.6366 0.636537 6.59019 0.636537 9.00006H1.86346ZM5 5.86352H7.25V4.6366H5V5.86352Z" fill="#999999"/>
<path d="M6.5 9H12.5" stroke="#999999" stroke-width="1.22693" stroke-linecap="round" stroke-linejoin="round"/>
</svg>
