<svg width="19" height="18" viewBox="0 0 19 18" fill="none" xmlns="http://www.w3.org/2000/svg">
<path fill-rule="evenodd" clip-rule="evenodd" d="M10.1675 1.08761L16.1675 4.08761C16.6773 4.34091 16.9997 4.8609 17 5.43011V12.5776C16.9997 13.1468 16.6773 13.6668 16.1675 13.9201L10.1675 16.9201C9.74501 17.1315 9.24756 17.1315 8.82504 16.9201L2.82504 13.9201C2.31578 13.6635 1.99607 13.1403 2.00004 12.5701V5.43011C2.00034 4.8609 2.32279 4.34091 2.83254 4.08761L8.83254 1.08761C9.25301 0.878673 9.74706 0.878673 10.1675 1.08761Z" stroke="#999999" stroke-width="1.22693" stroke-linecap="round" stroke-linejoin="round"/>
<path d="M2.23975 4.61987L9.49975 8.24987L16.7597 4.61987" stroke="#999999" stroke-width="1.22693" stroke-linecap="round" stroke-linejoin="round"/>
<path d="M9.5 17.07V8.25" stroke="#999999" stroke-width="1.22693" stroke-linecap="round" stroke-linejoin="round"/>
<path d="M5.75 2.625L13.25 6.375" stroke="#999999" stroke-width="1.22693" stroke-linecap="round" stroke-linejoin="round"/>
</svg>
