<svg width="19" height="18" viewBox="0 0 19 18" fill="none" xmlns="http://www.w3.org/2000/svg">
<path d="M17.75 9V9.61346C17.9228 9.61346 18.0877 9.54055 18.2039 9.41266C18.3202 9.28477 18.3771 9.11377 18.3607 8.94171L17.75 9ZM1.25 9L0.639313 8.94171C0.62289 9.11377 0.67981 9.28477 0.796075 9.41266C0.912339 9.54055 1.07716 9.61346 1.25 9.61346L1.25 9ZM13.9999 14.25H14.6134C14.6134 14.1036 14.561 13.962 14.4657 13.8508L13.9999 14.25ZM9.49992 9.00002L9.9657 8.60078C9.79863 8.40586 9.52786 8.33559 9.28708 8.42466C9.04631 8.51373 8.88646 8.7433 8.88646 9.00002H9.49992ZM18.3607 8.94171C17.9247 4.37424 14.0882 0.886537 9.5 0.886537V2.11346C13.4558 2.11346 16.7634 5.12041 17.1393 9.05829L18.3607 8.94171ZM9.5 0.886537C4.91177 0.886537 1.0753 4.37424 0.639313 8.94171L1.86069 9.05829C2.23658 5.12041 5.54422 2.11346 9.5 2.11346V0.886537ZM1.25 9.61346H17.75V8.38654H1.25V9.61346ZM13.3865 14.25C13.3865 15.1538 12.6538 15.8866 11.7499 15.8866V17.1135C13.3314 17.1135 14.6134 15.8315 14.6134 14.25H13.3865ZM11.7499 15.8866C10.8461 15.8866 10.1134 15.1538 10.1134 14.25H8.88646C8.88646 15.8315 10.1685 17.1135 11.7499 17.1135V15.8866ZM10.1134 14.25V9.00002H8.88646V14.25H10.1134ZM9.03415 9.39925L13.5341 14.6493L14.4657 13.8508L9.9657 8.60078L9.03415 9.39925Z" fill="#999999"/>
</svg>
