<svg width="19" height="18" viewBox="0 0 19 18" fill="none" xmlns="http://www.w3.org/2000/svg">
<path d="M11.0375 4.49998L11.155 3.89787C10.8902 3.84621 10.6227 3.97362 10.4959 4.21179C10.3692 4.44997 10.4129 4.74299 10.6037 4.93377L11.0375 4.49998ZM14 7.46248L13.5662 7.89627C13.757 8.08704 14.05 8.13078 14.2882 8.00404C14.5264 7.87729 14.6538 7.60982 14.6021 7.34501L14 7.46248ZM11.0375 1.5L11.1052 0.890288C10.8462 0.861515 10.5973 0.999519 10.4845 1.23443C10.3717 1.46935 10.4196 1.7499 10.604 1.93406L11.0375 1.5ZM17 7.455L16.5665 7.88906C16.7509 8.07321 17.0315 8.12078 17.2663 8.00767C17.501 7.89456 17.6387 7.64547 17.6096 7.3865L17 7.455ZM16.2501 15.69H15.6366L15.6366 15.6925L16.2501 15.69ZM14.6151 17.19L14.5488 17.8L14.5599 17.801L14.6151 17.19ZM8.14258 14.8875L8.47638 14.3728L8.47159 14.3697L8.14258 14.8875ZM3.64258 10.3875L4.16037 10.0585L4.15744 10.0539L3.64258 10.3875ZM1.34008 3.88498L0.729029 3.9402L0.730045 3.94976L1.34008 3.88498ZM2.83258 2.24998V1.63652L2.832 1.63652L2.83258 2.24998ZM5.08258 2.24998V2.86347L5.08861 2.86341L5.08258 2.24998ZM6.58258 3.53998L7.1908 3.45976L7.19 3.45412L6.58258 3.53998ZM7.10758 5.64748L6.53282 5.86195L6.53334 5.86333L7.10758 5.64748ZM6.77008 7.22998L7.20387 7.66377L7.20628 7.66133L6.77008 7.22998ZM5.81758 8.18248L5.38379 7.7487C5.18852 7.94397 5.14779 8.24565 5.2843 8.48571L5.81758 8.18248ZM10.3176 12.6825L10.0143 13.2158C10.2544 13.3523 10.5561 13.3115 10.7514 13.1163L10.3176 12.6825ZM11.2701 11.73L10.8387 11.2938L10.8363 11.2962L11.2701 11.73ZM12.8526 11.3925L12.6367 11.9667L12.6381 11.9672L12.8526 11.3925ZM14.9601 11.9175L15.0458 11.31L15.0403 11.3093L14.9601 11.9175ZM10.92 5.10209C12.1734 5.34663 13.1534 6.3266 13.3979 7.57996L14.6021 7.34501C14.2619 5.60138 12.8986 4.23806 11.155 3.89787L10.92 5.10209ZM14.4338 7.0287L11.4713 4.0662L10.6037 4.93377L13.5662 7.89627L14.4338 7.0287ZM10.9698 2.10971C13.8195 2.4263 16.0702 4.67413 16.3904 7.5235L17.6096 7.3865C17.2254 3.96743 14.5248 1.27017 11.1052 0.890288L10.9698 2.10971ZM17.4335 7.02094L11.471 1.06594L10.604 1.93406L16.5665 7.88906L17.4335 7.02094ZM15.6366 13.44V15.69H16.8635V13.44H15.6366ZM15.6366 15.6925C15.6376 15.9421 15.5334 16.1806 15.3494 16.3493L16.1789 17.2534C16.6174 16.8511 16.8659 16.2826 16.8635 15.6875L15.6366 15.6925ZM15.3494 16.3493C15.1655 16.5181 14.9189 16.6015 14.6703 16.579L14.5599 17.801C15.1525 17.8545 15.7403 17.6557 16.1789 17.2534L15.3494 16.3493ZM14.6813 16.5801C12.4689 16.3397 10.3436 15.5837 8.47636 14.3728L7.80879 15.4022C9.83704 16.7175 12.1455 17.5387 14.5488 17.7999L14.6813 16.5801ZM8.47159 14.3697C6.73547 13.2665 5.26355 11.7946 4.16035 10.0585L3.12481 10.7165C4.32461 12.6046 5.92542 14.2054 7.81356 15.4053L8.47159 14.3697ZM4.15744 10.0539C2.94232 8.17821 2.18612 6.04263 1.95011 3.8202L0.730045 3.94976C0.986402 6.36382 1.80781 8.68355 3.12771 10.721L4.15744 10.0539ZM1.95105 3.82977C1.92865 3.58192 2.01146 3.33608 2.17923 3.15229L1.27307 2.32511C0.873107 2.76326 0.675711 3.34934 0.729104 3.94019L1.95105 3.82977ZM2.17923 3.15229C2.347 2.96849 2.5843 2.86368 2.83315 2.86344L2.832 1.63652C2.23874 1.63708 1.67304 1.88695 1.27307 2.32511L2.17923 3.15229ZM2.83258 2.86344H5.08258V1.63652H2.83258V2.86344ZM5.08861 2.86341C5.5336 2.85903 5.91287 3.18521 5.97515 3.62583L7.19 3.45412C7.04153 2.4037 6.13735 1.62611 5.07654 1.63655L5.08861 2.86341ZM5.97438 3.62019C6.0754 4.38611 6.26274 5.13815 6.53283 5.86195L7.68233 5.43301C7.44459 4.7959 7.27969 4.13395 7.19077 3.45977L5.97438 3.62019ZM6.53334 5.86333C6.65513 6.18731 6.57723 6.55253 6.33387 6.79863L7.20628 7.66133C7.78644 7.07464 7.97213 6.20397 7.68181 5.43163L6.53334 5.86333ZM6.33629 6.7962L5.38379 7.7487L6.25136 8.61626L7.20386 7.66376L6.33629 6.7962ZM5.2843 8.48571C6.40654 10.4594 8.0407 12.0935 10.0143 13.2158L10.6208 12.1492C8.83914 11.1361 7.36394 9.66092 6.35086 7.87925L5.2843 8.48571ZM10.7514 13.1163L11.7039 12.1638L10.8363 11.2962L9.88379 12.2487L10.7514 13.1163ZM11.7014 12.1662C11.9475 11.9228 12.3127 11.8449 12.6367 11.9667L13.0684 10.8182C12.2961 10.5279 11.4254 10.7136 10.8387 11.2938L11.7014 12.1662ZM12.6381 11.9672C13.3619 12.2373 14.1139 12.4247 14.8799 12.5257L15.0403 11.3093C14.3661 11.2204 13.7042 11.0555 13.067 10.8177L12.6381 11.9672ZM14.8744 12.5249C15.3201 12.5878 15.648 12.9748 15.6368 13.4248L16.8633 13.4552C16.89 12.3824 16.1084 11.4599 15.0458 11.31L14.8744 12.5249Z" fill="#999999"/>
</svg>
