<svg width="19" height="18" viewBox="0 0 19 18" fill="none" xmlns="http://www.w3.org/2000/svg">
<path d="M1.24976 0.75L17.7498 17.25" stroke="#999999" stroke-width="1.22693" stroke-linecap="round" stroke-linejoin="round"/>
<path d="M16.2498 16.3635C16.5886 16.3635 16.8632 16.0888 16.8632 15.75C16.8632 15.4112 16.5886 15.1365 16.2498 15.1365V16.3635ZM1.24976 14.25H0.636293H1.24976ZM4.99976 5.11347C5.33856 5.11347 5.61322 4.83882 5.61322 4.50001C5.61322 4.1612 5.33856 3.88655 4.99976 3.88655V5.11347ZM7.24981 1.63654C6.911 1.63654 6.63635 1.91119 6.63635 2.25C6.63635 2.58881 6.911 2.86346 7.24981 2.86346V1.63654ZM11.7498 2.25L12.2602 1.90971C12.1465 1.73905 11.9549 1.63654 11.7498 1.63654V2.25ZM13.2498 4.5L12.7394 4.84029C12.8532 5.01095 13.0447 5.11346 13.2498 5.11346V4.5ZM17.1363 13.005C17.1363 13.3438 17.411 13.6185 17.7498 13.6185C18.0886 13.6185 18.3633 13.3438 18.3633 13.005H17.1363ZM12.466 11.8064C12.6573 11.5268 12.5858 11.145 12.3062 10.9537C12.0266 10.7624 11.6448 10.8339 11.4535 11.1135L12.466 11.8064ZM8.13616 7.79625C8.41577 7.60492 8.48734 7.22315 8.29602 6.94353C8.10469 6.66392 7.72292 6.59235 7.4433 6.78368L8.13616 7.79625ZM16.2498 15.1365H2.74976V16.3635H16.2498V15.1365ZM2.74976 15.1365C2.26013 15.1365 1.86322 14.7396 1.86322 14.25H0.636293C0.636293 15.4172 1.58252 16.3635 2.74976 16.3635V15.1365ZM1.86322 14.25V6.00001H0.636293V14.25H1.86322ZM1.86322 6.00001C1.86322 5.51039 2.26013 5.11347 2.74976 5.11347V3.88655C1.58252 3.88655 0.636293 4.83278 0.636293 6.00001H1.86322ZM2.74976 5.11347H4.99976V3.88655H2.74976V5.11347ZM7.24981 2.86346H11.7498V1.63654H7.24981V2.86346ZM11.2394 2.59029L12.7394 4.84029L13.7602 4.15971L12.2602 1.90971L11.2394 2.59029ZM13.2498 5.11346H16.2498V3.88654H13.2498V5.11346ZM16.2498 5.11346C16.7394 5.11346 17.1363 5.51038 17.1363 6H18.3633C18.3633 4.83277 17.417 3.88654 16.2498 3.88654V5.11346ZM17.1363 6V13.005H18.3633V6H17.1363ZM11.4535 11.1135C10.912 11.9049 9.94943 12.2953 9.00967 12.1048L8.76589 13.3072C10.1888 13.5957 11.6461 13.0046 12.466 11.8064L11.4535 11.1135ZM9.00967 12.1048C8.06991 11.9143 7.33544 11.1798 7.14492 10.24L5.94245 10.4838C6.23093 11.9067 7.343 13.0188 8.76589 13.3072L9.00967 12.1048ZM7.14492 10.24C6.95439 9.30027 7.34481 8.33773 8.13616 7.79625L7.4433 6.78368C6.24512 7.60355 5.65398 9.06092 5.94245 10.4838L7.14492 10.24Z" fill="#999999"/>
</svg>
