<svg width="281" height="262" viewBox="0 0 281 262" fill="none" xmlns="http://www.w3.org/2000/svg">
<g filter="url(#filter0_d)">
<rect x="23.7227" y="17.3013" width="233.389" height="214.824" rx="9" fill="#FFE0F6"/>
<rect x="24.2227" y="17.8013" width="232.389" height="213.824" rx="8.5" stroke="#F7F7F7"/>
</g>
<g clip-path="url(#clip0)">
<path d="M135.974 126.93C134.779 126.93 133.807 127.931 133.807 129.163V140.33C133.807 141.561 134.779 142.563 135.974 142.563H142.474C143.668 142.563 144.641 141.561 144.641 140.33V129.163C144.641 127.931 143.668 126.93 142.474 126.93C141.875 126.93 141.391 127.43 141.391 128.046C141.391 128.663 141.875 129.163 142.474 129.163V140.33H135.974V129.163H139.224C139.822 129.163 140.307 128.663 140.307 128.046V123.58C140.307 122.963 139.822 122.463 139.224 122.463H138.141V120.23H139.224C139.822 120.23 140.307 119.729 140.307 119.113V114.646C140.307 114.03 139.822 113.53 139.224 113.53H138.141V111.296H139.224C139.822 111.296 140.307 110.796 140.307 110.18V105.713C140.307 105.097 139.822 104.596 139.224 104.596H138.141V102.363H139.224C139.822 102.363 140.307 101.863 140.307 101.246V97.8963H151.775L162.291 108.736C162.714 109.172 163.4 109.172 163.823 108.736C164.246 108.299 164.246 107.593 163.823 107.157L152.99 95.9902C152.786 95.7803 152.511 95.6631 152.224 95.6631H139.224C138.625 95.6631 138.141 96.1634 138.141 96.7797V100.13H137.057C136.458 100.13 135.974 100.63 135.974 101.246V105.713C135.974 106.329 136.458 106.83 137.057 106.83H138.14V109.063H137.057C136.458 109.063 135.974 109.563 135.974 110.18V114.646C135.974 115.263 136.458 115.763 137.057 115.763H138.14V117.996H137.057C136.458 117.996 135.974 118.497 135.974 119.113V123.58C135.974 124.196 136.458 124.696 137.057 124.696H138.14V126.93H135.974V126.93Z" fill="#DC1AA3"/>
<path d="M139.257 135.863H139.245C138.648 135.863 138.168 136.363 138.168 136.98C138.168 137.596 138.658 138.096 139.257 138.096C139.855 138.096 140.34 137.596 140.34 136.98C140.34 136.363 139.855 135.863 139.257 135.863Z" fill="#DC1AA3"/>
<path d="M167.39 110.18H156.557C154.764 110.18 153.307 108.677 153.307 106.83V101.246C153.307 100.63 152.821 100.13 152.223 100.13C151.624 100.13 151.14 100.63 151.14 101.246V106.83C151.14 109.908 153.57 112.413 156.557 112.413H166.307V155.963C166.307 157.81 164.849 159.313 163.057 159.313H117.557C115.764 159.313 114.307 157.81 114.307 155.963V100.13C114.307 98.2828 115.764 96.7798 117.557 96.7798H134.755C135.353 96.7798 135.838 96.2795 135.838 95.6631C135.838 95.0468 135.353 94.5464 134.755 94.5464H117.557C114.57 94.5464 112.14 97.051 112.14 100.13V155.963C112.14 159.042 114.57 161.546 117.557 161.546H163.057C166.043 161.546 168.473 159.042 168.473 155.963V111.296C168.473 110.68 167.988 110.18 167.39 110.18Z" fill="#DC1AA3"/>
</g>
<defs>
<filter id="filter0_d" x="0.722656" y="0.30127" width="279.389" height="260.824" filterUnits="userSpaceOnUse" color-interpolation-filters="sRGB">
<feFlood flood-opacity="0" result="BackgroundImageFix"/>
<feColorMatrix in="SourceAlpha" type="matrix" values="0 0 0 0 0 0 0 0 0 0 0 0 0 0 0 0 0 0 127 0" result="hardAlpha"/>
<feMorphology radius="5" operator="erode" in="SourceAlpha" result="effect1_dropShadow"/>
<feOffset dy="6"/>
<feGaussianBlur stdDeviation="14"/>
<feComposite in2="hardAlpha" operator="out"/>
<feColorMatrix type="matrix" values="0 0 0 0 0.647059 0 0 0 0 0.647059 0 0 0 0 0.647059 0 0 0 0.1 0"/>
<feBlend mode="normal" in2="BackgroundImageFix" result="effect1_dropShadow"/>
<feBlend mode="normal" in="SourceGraphic" in2="effect1_dropShadow" result="shape"/>
</filter>
<clipPath id="clip0">
<rect width="65" height="67" fill="white" transform="translate(107.806 94.5464)"/>
</clipPath>
</defs>
</svg>
