<svg width="280" height="262" viewBox="0 0 280 262" fill="none" xmlns="http://www.w3.org/2000/svg">
<g filter="url(#filter0_d)">
<rect x="23.0352" y="17.3013" width="233.389" height="214.824" rx="9" fill="#E3EEFF"/>
<rect x="23.5352" y="17.8013" width="232.389" height="213.824" rx="8.5" stroke="#F7F7F7"/>
</g>
<path fill-rule="evenodd" clip-rule="evenodd" d="M110.73 102.406C110.73 99.0921 113.417 96.4058 116.73 96.4058H162.73C166.044 96.4058 168.73 99.0921 168.73 102.406V144.367C168.73 147.681 166.044 150.367 162.73 150.367H116.73C113.417 150.367 110.73 147.681 110.73 144.367V102.406Z" stroke="#1A61DB" stroke-width="2" stroke-linecap="round" stroke-linejoin="round"/>
<path fill-rule="evenodd" clip-rule="evenodd" d="M127.98 119.338C130.466 119.338 132.48 117.323 132.48 114.838C132.48 112.353 130.466 110.338 127.98 110.338C125.495 110.338 123.48 112.353 123.48 114.838C123.48 117.323 125.495 119.338 127.98 119.338Z" stroke="#1A61DB" stroke-width="2" stroke-linecap="round" stroke-linejoin="round"/>
<path d="M168.98 133.338L152.73 118.963L116.98 150.588" stroke="#1A61DB" stroke-width="2" stroke-linecap="round" stroke-linejoin="round"/>
<defs>
<filter id="filter0_d" x="0.0351562" y="0.30127" width="279.389" height="260.824" filterUnits="userSpaceOnUse" color-interpolation-filters="sRGB">
<feFlood flood-opacity="0" result="BackgroundImageFix"/>
<feColorMatrix in="SourceAlpha" type="matrix" values="0 0 0 0 0 0 0 0 0 0 0 0 0 0 0 0 0 0 127 0" result="hardAlpha"/>
<feMorphology radius="5" operator="erode" in="SourceAlpha" result="effect1_dropShadow"/>
<feOffset dy="6"/>
<feGaussianBlur stdDeviation="14"/>
<feComposite in2="hardAlpha" operator="out"/>
<feColorMatrix type="matrix" values="0 0 0 0 0.647059 0 0 0 0 0.647059 0 0 0 0 0.647059 0 0 0 0.1 0"/>
<feBlend mode="normal" in2="BackgroundImageFix" result="effect1_dropShadow"/>
<feBlend mode="normal" in="SourceGraphic" in2="effect1_dropShadow" result="shape"/>
</filter>
</defs>
</svg>
