<svg width="19" height="18" viewBox="0 0 19 18" fill="none" xmlns="http://www.w3.org/2000/svg">
<path d="M6.50002 2.86346C6.83882 2.86346 7.11348 2.58881 7.11348 2.25C7.11348 1.91119 6.83882 1.63654 6.50002 1.63654V2.86346ZM2.13656 6C2.13656 6.33881 2.41121 6.61346 2.75002 6.61346C3.08883 6.61346 3.36348 6.33881 3.36348 6H2.13656ZM15.6366 6.00008C15.6366 6.33888 15.9112 6.61354 16.2501 6.61354C16.5889 6.61354 16.8635 6.33888 16.8635 6.00008H15.6366ZM12.5001 1.63661C12.1612 1.63661 11.8866 1.91127 11.8866 2.25008C11.8866 2.58888 12.1612 2.86354 12.5001 2.86354V1.63661ZM12.5001 15.1366C12.1612 15.1366 11.8866 15.4112 11.8866 15.7501C11.8866 16.0889 12.1612 16.3635 12.5001 16.3635V15.1366ZM16.8635 12.0001C16.8635 11.6612 16.5889 11.3866 16.2501 11.3866C15.9112 11.3866 15.6366 11.6612 15.6366 12.0001H16.8635ZM3.36346 12.0001C3.36346 11.6612 3.08881 11.3866 2.75 11.3866C2.41119 11.3866 2.13654 11.6612 2.13654 12.0001H3.36346ZM6.5 16.3635C6.83881 16.3635 7.11346 16.0889 7.11346 15.7501C7.11346 15.4112 6.83881 15.1366 6.5 15.1366V16.3635ZM6.50002 1.63654H4.25002V2.86346H6.50002V1.63654ZM4.25002 1.63654C3.08279 1.63654 2.13656 2.58277 2.13656 3.75H3.36348C3.36348 3.26038 3.7604 2.86346 4.25002 2.86346V1.63654ZM2.13656 3.75V6H3.36348V3.75H2.13656ZM16.8635 6.00008V3.75008H15.6366V6.00008H16.8635ZM16.8635 3.75008C16.8635 2.58284 15.9173 1.63661 14.7501 1.63661V2.86354C15.2397 2.86354 15.6366 3.26046 15.6366 3.75008H16.8635ZM14.7501 1.63661H12.5001V2.86354H14.7501V1.63661ZM12.5001 16.3635H14.7501V15.1366H12.5001V16.3635ZM14.7501 16.3635C15.9173 16.3635 16.8635 15.4173 16.8635 14.2501H15.6366C15.6366 14.7397 15.2397 15.1366 14.7501 15.1366V16.3635ZM16.8635 14.2501V12.0001H15.6366V14.2501H16.8635ZM2.13654 12.0001V14.2501H3.36346V12.0001H2.13654ZM2.13654 14.2501C2.13654 15.4173 3.08277 16.3635 4.25 16.3635V15.1366C3.76038 15.1366 3.36346 14.7397 3.36346 14.2501H2.13654ZM4.25 16.3635H6.5V15.1366H4.25V16.3635Z" fill="#999999"/>
</svg>
