<svg width="19" height="18" viewBox="0 0 19 18" fill="none" xmlns="http://www.w3.org/2000/svg">
<path fill-rule="evenodd" clip-rule="evenodd" d="M5 6.75C6.24264 6.75 7.25 5.74264 7.25 4.5C7.25 3.25736 6.24264 2.25 5 2.25C3.75736 2.25 2.75 3.25736 2.75 4.5C2.75 5.74264 3.75736 6.75 5 6.75Z" stroke="#999999" stroke-width="1.22693" stroke-linecap="round" stroke-linejoin="round"/>
<path fill-rule="evenodd" clip-rule="evenodd" d="M5 15.75C6.24264 15.75 7.25 14.7426 7.25 13.5C7.25 12.2574 6.24264 11.25 5 11.25C3.75736 11.25 2.75 12.2574 2.75 13.5C2.75 14.7426 3.75736 15.75 5 15.75Z" stroke="#999999" stroke-width="1.22693" stroke-linecap="round" stroke-linejoin="round"/>
<path d="M15.4998 3L6.58984 11.91" stroke="#999999" stroke-width="1.22693" stroke-linecap="round" stroke-linejoin="round"/>
<path d="M11.3525 10.8599L15.5 14.9999" stroke="#999999" stroke-width="1.22693" stroke-linecap="round" stroke-linejoin="round"/>
<path d="M6.58984 6.08984L9.49984 8.99984" stroke="#999999" stroke-width="1.22693" stroke-linecap="round" stroke-linejoin="round"/>
</svg>
