<svg width="19" height="18" viewBox="0 0 19 18" fill="none" xmlns="http://www.w3.org/2000/svg">
<path fill-rule="evenodd" clip-rule="evenodd" d="M17.4876 10.7924L9.50015 16.5974L1.51265 10.7924C1.29299 10.6309 1.20218 10.3463 1.28765 10.0874L2.20265 7.25241L4.03265 1.61991C4.0504 1.57401 4.07865 1.53292 4.11515 1.49991C4.23833 1.3874 4.42698 1.3874 4.55015 1.49991C4.58869 1.53716 4.61708 1.58362 4.63265 1.63491L6.46265 7.25241H12.5376L14.3676 1.61991C14.3854 1.57401 14.4137 1.53292 14.4501 1.49991C14.5733 1.3874 14.762 1.3874 14.8851 1.49991C14.9237 1.53716 14.9521 1.58362 14.9676 1.63491L16.7976 7.26741L17.7501 10.0874C17.828 10.3546 17.7213 10.6412 17.4876 10.7924Z" stroke="#999999" stroke-width="1.22693" stroke-linecap="round" stroke-linejoin="round"/>
</svg>
