<svg width="19" height="18" viewBox="0 0 19 18" fill="none" xmlns="http://www.w3.org/2000/svg">
<path fill-rule="evenodd" clip-rule="evenodd" d="M17.75 14.25C17.75 15.0784 17.0784 15.75 16.25 15.75H2.75C1.92157 15.75 1.25 15.0784 1.25 14.25V6C1.25 5.17157 1.92157 4.5 2.75 4.5H5.75L7.25 2.25H11.75L13.25 4.5H16.25C17.0784 4.5 17.75 5.17157 17.75 6V14.25Z" stroke="#999999" stroke-width="1.22693" stroke-linecap="round" stroke-linejoin="round"/>
<path fill-rule="evenodd" clip-rule="evenodd" d="M9.5 12.75C11.1569 12.75 12.5 11.4069 12.5 9.75C12.5 8.09315 11.1569 6.75 9.5 6.75C7.84315 6.75 6.5 8.09315 6.5 9.75C6.5 11.4069 7.84315 12.75 9.5 12.75Z" stroke="#999999" stroke-width="1.22693" stroke-linecap="round" stroke-linejoin="round"/>
</svg>
