<svg width="19" height="18" viewBox="0 0 19 18" fill="none" xmlns="http://www.w3.org/2000/svg">
<path d="M7.11349 2.25C7.11349 1.91119 6.83883 1.63654 6.50003 1.63654C6.16122 1.63654 5.88657 1.91119 5.88657 2.25H7.11349ZM2.75003 5.38654C2.41122 5.38654 2.13657 5.66119 2.13657 6C2.13657 6.33881 2.41122 6.61346 2.75003 6.61346V5.38654ZM16.25 6.61354C16.5888 6.61354 16.8634 6.33888 16.8634 6.00008C16.8634 5.66127 16.5888 5.38661 16.25 5.38661V6.61354ZM13.1134 2.25008C13.1134 1.91127 12.8388 1.63661 12.5 1.63661C12.1612 1.63661 11.8865 1.91127 11.8865 2.25008H13.1134ZM11.8865 15.7501C11.8865 16.0889 12.1612 16.3635 12.5 16.3635C12.8388 16.3635 13.1134 16.0889 13.1134 15.7501H11.8865ZM16.25 12.6135C16.5888 12.6135 16.8634 12.3389 16.8634 12.0001C16.8634 11.6612 16.5888 11.3866 16.25 11.3866V12.6135ZM2.75 11.3866C2.41119 11.3866 2.13654 11.6612 2.13654 12.0001C2.13654 12.3389 2.41119 12.6135 2.75 12.6135V11.3866ZM5.88654 15.7501C5.88654 16.0889 6.16119 16.3635 6.5 16.3635C6.83881 16.3635 7.11346 16.0889 7.11346 15.7501H5.88654ZM5.88657 2.25V4.5H7.11349V2.25H5.88657ZM5.88657 4.5C5.88657 4.98962 5.48965 5.38654 5.00003 5.38654V6.61346C6.16726 6.61346 7.11349 5.66723 7.11349 4.5H5.88657ZM5.00003 5.38654H2.75003V6.61346H5.00003V5.38654ZM16.25 5.38661H14V6.61354H16.25V5.38661ZM14 5.38661C13.5103 5.38661 13.1134 4.9897 13.1134 4.50008H11.8865C11.8865 5.66731 12.8327 6.61354 14 6.61354V5.38661ZM13.1134 4.50008V2.25008H11.8865V4.50008H13.1134ZM13.1134 15.7501V13.5001H11.8865V15.7501H13.1134ZM13.1134 13.5001C13.1134 13.0104 13.5103 12.6135 14 12.6135V11.3866C12.8327 11.3866 11.8865 12.3328 11.8865 13.5001H13.1134ZM14 12.6135H16.25V11.3866H14V12.6135ZM2.75 12.6135H5V11.3866H2.75V12.6135ZM5 12.6135C5.48962 12.6135 5.88654 13.0104 5.88654 13.5001H7.11346C7.11346 12.3328 6.16723 11.3866 5 11.3866V12.6135ZM5.88654 13.5001V15.7501H7.11346V13.5001H5.88654Z" fill="#999999"/>
</svg>
