<svg width="19" height="18" viewBox="0 0 19 18" fill="none" xmlns="http://www.w3.org/2000/svg">
<path d="M11 6.75H10.3866C10.3866 7.08881 10.6612 7.36346 11 7.36346V6.75ZM11 3.75H11.6135H11ZM8.75004 1.5V0.886537C8.5076 0.886537 8.28791 1.02931 8.18945 1.25085L8.75004 1.5ZM5.75004 8.25L5.18945 8.00085C5.15459 8.07929 5.13658 8.16417 5.13658 8.25H5.75004ZM5.75004 16.5H5.13658C5.13658 16.8388 5.41123 17.1135 5.75004 17.1135V16.5ZM14.21 16.5L14.217 15.8865H14.21V16.5ZM15.71 15.225L15.1037 15.132L15.1035 15.133L15.71 15.225ZM16.745 8.475L17.3514 8.56798L17.3516 8.56706L16.745 8.475ZM15.245 6.75V7.3635L15.252 7.36342L15.245 6.75ZM5.75 16.5V17.1135C6.08881 17.1135 6.36346 16.8388 6.36346 16.5H5.75ZM5.75 8.25H6.36346C6.36346 7.91119 6.08881 7.63654 5.75 7.63654V8.25ZM11.6135 6.75V3.75H10.3866V6.75H11.6135ZM11.6135 3.75C11.6135 2.16855 10.3315 0.886537 8.75004 0.886537V2.11346C9.65387 2.11346 10.3866 2.84617 10.3866 3.75H11.6135ZM8.18945 1.25085L5.18945 8.00085L6.31063 8.49915L9.31063 1.74915L8.18945 1.25085ZM5.13658 8.25V16.5H6.3635V8.25H5.13658ZM5.75004 17.1135H14.21V15.8865H5.75004V17.1135ZM14.2031 17.1134C15.257 17.1253 16.1585 16.359 16.3166 15.317L15.1035 15.133C15.0372 15.5701 14.659 15.8916 14.217 15.8866L14.2031 17.1134ZM16.3164 15.318L17.3514 8.56798L16.1387 8.38202L15.1037 15.132L16.3164 15.318ZM17.3516 8.56706C17.4446 7.954 17.2637 7.33101 16.8569 6.86309L15.931 7.66818C16.1017 7.86445 16.1776 8.12578 16.1385 8.38294L17.3516 8.56706ZM16.8569 6.86309C16.45 6.39518 15.8581 6.12956 15.2381 6.13658L15.252 7.36342C15.5121 7.36048 15.7603 7.4719 15.931 7.66818L16.8569 6.86309ZM15.245 6.13654H11V7.36346H15.245V6.13654ZM5.75 15.8865H3.5V17.1135H5.75V15.8865ZM3.5 15.8865C3.01038 15.8865 2.61346 15.4896 2.61346 15H1.38654C1.38654 16.1672 2.33277 17.1135 3.5 17.1135V15.8865ZM2.61346 15V9.75H1.38654V15H2.61346ZM2.61346 9.75C2.61346 9.26038 3.01038 8.86346 3.5 8.86346V7.63654C2.33277 7.63654 1.38654 8.58277 1.38654 9.75H2.61346ZM3.5 8.86346H5.75V7.63654H3.5V8.86346ZM5.13654 8.25V16.5H6.36346V8.25H5.13654Z" fill="#999999"/>
</svg>
