<svg width="19" height="18" viewBox="0 0 19 18" fill="none" xmlns="http://www.w3.org/2000/svg">
<path d="M2.12259 11.4739C1.79062 11.4062 1.46661 11.6204 1.39891 11.9524C1.33121 12.2844 1.54544 12.6084 1.87741 12.6761L2.12259 11.4739ZM4.32391 15.1226C4.39162 15.4545 4.71562 15.6688 5.04759 15.6011C5.37956 15.5334 5.59379 15.2094 5.52609 14.8774L4.32391 15.1226ZM2.06781 8.42783C1.73108 8.39038 1.42775 8.63299 1.3903 8.96972C1.35285 9.30645 1.59546 9.60979 1.93219 9.64724L2.06781 8.42783ZM7.3528 15.0678C7.39025 15.4046 7.69358 15.6472 8.03031 15.6097C8.36704 15.5723 8.60965 15.269 8.5722 14.9322L7.3528 15.0678ZM1.38673 6C1.38673 6.33881 1.66138 6.61346 2.00019 6.61346C2.33899 6.61346 2.61365 6.33881 2.61365 6H1.38673ZM11.0002 14.3865C10.6614 14.3865 10.3867 14.6612 10.3867 15C10.3867 15.3388 10.6614 15.6135 11.0002 15.6135V14.3865ZM1.87741 12.6761C3.10963 12.9274 4.07261 13.8903 4.32391 15.1226L5.52609 14.8774C5.17648 13.1632 3.83681 11.8235 2.12259 11.4739L1.87741 12.6761ZM1.93219 9.64724C4.78422 9.96444 7.03559 12.2158 7.3528 15.0678L8.5722 14.9322C8.19158 11.51 5.49007 8.80845 2.06781 8.42783L1.93219 9.64724ZM2.61365 6V4.5H1.38673V6H2.61365ZM2.61365 4.5C2.61365 4.01038 3.01057 3.61346 3.50019 3.61346V2.38654C2.33295 2.38654 1.38673 3.33277 1.38673 4.5H2.61365ZM3.50019 3.61346H15.5002V2.38654H3.50019V3.61346ZM15.5002 3.61346C15.9898 3.61346 16.3867 4.01038 16.3867 4.5H17.6136C17.6136 3.33277 16.6674 2.38654 15.5002 2.38654V3.61346ZM16.3867 4.5V13.5H17.6136V4.5H16.3867ZM16.3867 13.5C16.3867 13.9896 15.9898 14.3865 15.5002 14.3865V15.6135C16.6674 15.6135 17.6136 14.6672 17.6136 13.5H16.3867ZM15.5002 14.3865H11.0002V15.6135H15.5002V14.3865Z" fill="#999999"/>
</svg>
