<svg width="19" height="18" viewBox="0 0 19 18" fill="none" xmlns="http://www.w3.org/2000/svg">
<path fill-rule="evenodd" clip-rule="evenodd" d="M14 2.25C12.7574 2.25 11.75 3.25736 11.75 4.5V13.5C11.75 14.7426 12.7574 15.75 14 15.75C15.2426 15.75 16.25 14.7426 16.25 13.5C16.25 12.2574 15.2426 11.25 14 11.25H5C3.75736 11.25 2.75 12.2574 2.75 13.5C2.75 14.7426 3.75736 15.75 5 15.75C6.24264 15.75 7.25 14.7426 7.25 13.5V4.5C7.25 3.25736 6.24264 2.25 5 2.25C3.75736 2.25 2.75 3.25736 2.75 4.5C2.75 5.74264 3.75736 6.75 5 6.75H14C15.2426 6.75 16.25 5.74264 16.25 4.5C16.25 3.25736 15.2426 2.25 14 2.25Z" stroke="#999999" stroke-width="1.22693" stroke-linecap="round" stroke-linejoin="round"/>
</svg>
