<svg width="16" height="17" viewBox="0 0 16 17" fill="none" xmlns="http://www.w3.org/2000/svg">
<path d="M6.63296 12.8894L4.74761 14.7748C3.96598 15.5564 2.70019 15.5564 1.91921 14.7749C1.13808 13.9938 1.13808 12.7279 1.91906 11.9469L5.69042 8.17556C6.4714 7.39455 7.73731 7.39455 8.51828 8.17556C8.77863 8.4359 9.20076 8.4359 9.4611 8.17556C9.72145 7.91521 9.72145 7.49309 9.4611 7.23274C8.15941 5.93105 6.0493 5.93105 4.74761 7.23274L0.976271 11.0041C-0.325424 12.3058 -0.325424 14.4159 0.976271 15.7176C2.27781 17.02 4.38807 17.02 5.69046 15.7176L7.57581 13.8322C7.83615 13.5719 7.83615 13.1497 7.57581 12.8894C7.31546 12.6291 6.89331 12.6291 6.63296 12.8894Z" fill="#606060"/>
<path d="M15.0226 1.67085C13.7209 0.369156 11.6101 0.369156 10.3084 1.67085L8.0464 3.93286C7.78606 4.19321 7.78606 4.61534 8.0464 4.87568C8.30675 5.13603 8.72888 5.13603 8.98922 4.87568L11.2512 2.61367C12.0322 1.83266 13.2988 1.83266 14.0798 2.61367C14.8608 3.39464 14.8608 4.66056 14.0798 5.44153L9.93176 9.58958C9.15075 10.3706 7.88487 10.3706 7.1039 9.58958C6.84355 9.32924 6.42142 9.32924 6.16108 9.58958C5.90073 9.84993 5.90073 10.2721 6.16108 10.5324C7.46277 11.8341 9.57288 11.8341 10.8746 10.5324L15.0226 6.38438C16.3243 5.08268 16.3243 2.97255 15.0226 1.67085Z" fill="#606060"/>
</svg>
