<svg width="18" height="19" viewBox="0 0 18 19" fill="none" xmlns="http://www.w3.org/2000/svg">
<path fill-rule="evenodd" clip-rule="evenodd" d="M4.5 7.19922C5.74264 7.19922 6.75 6.19186 6.75 4.94922C6.75 3.70658 5.74264 2.69922 4.5 2.69922C3.25736 2.69922 2.25 3.70658 2.25 4.94922C2.25 6.19186 3.25736 7.19922 4.5 7.19922Z" stroke="#606060" stroke-width="1.22693" stroke-linecap="round" stroke-linejoin="round"/>
<path fill-rule="evenodd" clip-rule="evenodd" d="M4.5 16.1992C5.74264 16.1992 6.75 15.1919 6.75 13.9492C6.75 12.7066 5.74264 11.6992 4.5 11.6992C3.25736 11.6992 2.25 12.7066 2.25 13.9492C2.25 15.1919 3.25736 16.1992 4.5 16.1992Z" stroke="#606060" stroke-width="1.22693" stroke-linecap="round" stroke-linejoin="round"/>
<path d="M14.9998 3.4491L6.08984 12.3591" stroke="#606060" stroke-width="1.22693" stroke-linecap="round" stroke-linejoin="round"/>
<path d="M10.8525 11.3092L15 15.4492" stroke="#606060" stroke-width="1.22693" stroke-linecap="round" stroke-linejoin="round"/>
<path d="M6.08984 6.53918L8.99984 9.44919" stroke="#606060" stroke-width="1.22693" stroke-linecap="round" stroke-linejoin="round"/>
</svg>
