<svg width="16" height="17" viewBox="0 0 16 17" fill="none" xmlns="http://www.w3.org/2000/svg">
<path fill-rule="evenodd" clip-rule="evenodd" d="M12 5.78247C13.1046 5.78247 14 4.88704 14 3.78247C14 2.6779 13.1046 1.78247 12 1.78247C10.8954 1.78247 10 2.6779 10 3.78247C10 4.88704 10.8954 5.78247 12 5.78247Z" stroke="#606060" stroke-width="1.22693" stroke-linecap="round" stroke-linejoin="round"/>
<path fill-rule="evenodd" clip-rule="evenodd" d="M4 10.4492C5.10457 10.4492 6 9.55379 6 8.44922C6 7.34465 5.10457 6.44922 4 6.44922C2.89543 6.44922 2 7.34465 2 8.44922C2 9.55379 2.89543 10.4492 4 10.4492Z" stroke="#606060" stroke-width="1.22693" stroke-linecap="round" stroke-linejoin="round"/>
<path fill-rule="evenodd" clip-rule="evenodd" d="M12 15.1158C13.1046 15.1158 14 14.2204 14 13.1158C14 12.0113 13.1046 11.1158 12 11.1158C10.8954 11.1158 10 12.0113 10 13.1158C10 14.2204 10.8954 15.1158 12 15.1158Z" stroke="#606060" stroke-width="1.22693" stroke-linecap="round" stroke-linejoin="round"/>
<path d="M5.72656 9.45581L10.2799 12.1091" stroke="#606060" stroke-width="1.22693" stroke-linecap="round" stroke-linejoin="round"/>
<path d="M10.2732 4.78918L5.72656 7.44252" stroke="#606060" stroke-width="1.22693" stroke-linecap="round" stroke-linejoin="round"/>
</svg>
