<svg width="16" height="17" viewBox="0 0 16 17" fill="none" xmlns="http://www.w3.org/2000/svg">
<path d="M3.33329 16.4495C3.47233 16.4493 3.60783 16.4056 3.72079 16.3245L7.99985 13.2686L12.2789 16.3245C12.3899 16.4033 12.5223 16.4462 12.6584 16.4476C12.7945 16.4489 12.9278 16.4085 13.0403 16.3319C13.1528 16.2553 13.2392 16.1461 13.2878 16.019C13.3364 15.8918 13.345 15.7529 13.3123 15.6207L12.0705 10.6536L15.8045 6.92074C15.8978 6.82754 15.9614 6.70876 15.9872 6.57943C16.0129 6.45009 15.9997 6.31602 15.9493 6.19418C15.8988 6.07234 15.8134 5.9682 15.7037 5.89494C15.5941 5.82168 15.4652 5.78259 15.3333 5.78262H10.462L8.62485 0.881994C8.57724 0.754881 8.49196 0.645332 8.38041 0.567995C8.26887 0.490658 8.13637 0.449219 8.00063 0.449219C7.86489 0.449219 7.73239 0.490658 7.62085 0.567995C7.5093 0.645332 7.42402 0.754881 7.37641 0.881994L5.5386 5.78262H0.66641C0.534536 5.78259 0.405616 5.82168 0.295963 5.89494C0.186311 5.9682 0.100853 6.07234 0.0504026 6.19418C-4.76837e-05 6.31602 -0.0132217 6.45009 0.0125456 6.57943C0.0383129 6.70876 0.101866 6.82754 0.195161 6.92074L3.92829 10.6539L2.68735 15.6207C2.6627 15.719 2.66077 15.8216 2.6817 15.9207C2.70263 16.0198 2.74587 16.1128 2.80814 16.1927C2.87041 16.2726 2.95007 16.3372 3.04106 16.3817C3.13206 16.4262 3.23199 16.4494 3.33329 16.4495ZM7.99985 11.7826C7.86081 11.7829 7.72532 11.8266 7.61235 11.9076L4.41922 14.1889L5.31235 10.6111C5.34029 10.4994 5.33883 10.3824 5.30811 10.2714C5.27738 10.1604 5.21845 10.0593 5.13704 9.97793L2.27516 7.11606H5.99985C6.13567 7.11619 6.2683 7.07485 6.37999 6.99756C6.49168 6.92027 6.57711 6.81072 6.62485 6.68356L7.99985 3.01481L9.37485 6.68356C9.42259 6.81072 9.50801 6.92027 9.6197 6.99756C9.73139 7.07485 9.86402 7.11619 9.99985 7.11606H13.7236L10.8617 9.97793C10.7805 10.0594 10.7217 10.1606 10.6912 10.2715C10.6606 10.3825 10.6593 10.4995 10.6873 10.6111L11.5805 14.1876L8.38735 11.9064C8.27423 11.8258 8.13875 11.7825 7.99985 11.7826Z" fill="#606060"/>
</svg>
