<svg width="16" height="17" viewBox="0 0 16 17" fill="none" xmlns="http://www.w3.org/2000/svg">
<path d="M2 4.44922H3.33333H14" stroke="#606060" stroke-width="1.22693" stroke-linecap="round" stroke-linejoin="round"/>
<path d="M13.2798 4.44916C13.2798 4.11036 13.0051 3.8357 12.6663 3.8357C12.3275 3.8357 12.0529 4.11036 12.0529 4.44916H13.2798ZM3.94647 4.44916C3.94647 4.11036 3.67181 3.8357 3.33301 3.8357C2.9942 3.8357 2.71955 4.11036 2.71955 4.44916H3.94647ZM4.71964 4.44914C4.71964 4.78794 4.9943 5.0626 5.33311 5.0626C5.67191 5.0626 5.94657 4.78794 5.94657 4.44914H4.71964ZM10.053 4.44914C10.053 4.78794 10.3276 5.0626 10.6664 5.0626C11.0052 5.0626 11.2799 4.78794 11.2799 4.44914H10.053ZM12.0529 4.44916V13.7825H13.2798V4.44916H12.0529ZM12.0529 13.7825C12.0529 14.1801 11.7306 14.5024 11.333 14.5024V15.7293C12.4082 15.7293 13.2798 14.8577 13.2798 13.7825H12.0529ZM11.333 14.5024H4.66634V15.7293H11.333V14.5024ZM4.66634 14.5024C4.26877 14.5024 3.94647 14.1801 3.94647 13.7825H2.71955C2.71955 14.8577 3.59116 15.7293 4.66634 15.7293V14.5024ZM3.94647 13.7825V4.44916H2.71955V13.7825H3.94647ZM5.94657 4.44914V3.1158H4.71964V4.44914H5.94657ZM5.94657 3.1158C5.94657 2.71823 6.26887 2.39593 6.66644 2.39593V1.16901C5.59125 1.16901 4.71964 2.04062 4.71964 3.1158H5.94657ZM6.66644 2.39593H9.33311V1.16901H6.66644V2.39593ZM9.33311 2.39593C9.73068 2.39593 10.053 2.71823 10.053 3.1158H11.2799C11.2799 2.04062 10.4083 1.16901 9.33311 1.16901V2.39593ZM10.053 3.1158V4.44914H11.2799V3.1158H10.053Z" fill="#606060"/>
<path d="M6.66699 7.78247V11.7825" stroke="#606060" stroke-width="1.22693" stroke-linecap="round" stroke-linejoin="round"/>
<path d="M9.33301 7.78247V11.7825" stroke="#606060" stroke-width="1.22693" stroke-linecap="round" stroke-linejoin="round"/>
</svg>
