<svg width="19" height="18" viewBox="0 0 19 18" fill="none" xmlns="http://www.w3.org/2000/svg">
<path fill-rule="evenodd" clip-rule="evenodd" d="M3.5 2.72692C3.5 2.04931 4.04931 1.5 4.72693 1.5H14.2731C14.9507 1.5 15.5 2.04931 15.5 2.72693V15.2731C15.5 15.9507 14.9507 16.5 14.2731 16.5H4.72692C4.04931 16.5 3.5 15.9507 3.5 15.2731V2.72692Z" stroke="#999999" stroke-width="1.22693" stroke-linecap="round" stroke-linejoin="round"/>
<path fill-rule="evenodd" clip-rule="evenodd" d="M9.5 13.5C11.1569 13.5 12.5 12.1569 12.5 10.5C12.5 8.84315 11.1569 7.5 9.5 7.5C7.84315 7.5 6.5 8.84315 6.5 10.5C6.5 12.1569 7.84315 13.5 9.5 13.5Z" stroke="#999999" stroke-width="1.22693" stroke-linecap="round" stroke-linejoin="round"/>
<ellipse cx="9.5" cy="4.5" rx="0.75" ry="0.75" fill="#999999"/>
</svg>
