<svg width="17" height="17" viewBox="0 0 17 17" fill="none" xmlns="http://www.w3.org/2000/svg">
<path d="M6.9103 12.7759L5.02495 14.6613C4.24332 15.4429 2.97753 15.4429 2.19656 14.6614C1.41543 13.8803 1.41543 12.6144 2.1964 11.8334L5.96777 8.06203C6.74874 7.28103 8.01465 7.28103 8.79563 8.06203C9.05597 8.32238 9.4781 8.32238 9.73845 8.06203C9.99879 7.80169 9.99879 7.37956 9.73845 7.11922C8.43675 5.81752 6.32664 5.81752 5.02495 7.11922L1.25362 10.8905C-0.04808 12.1922 -0.04808 14.3024 1.25362 15.604C2.55515 16.9064 4.66542 16.9064 5.9678 15.604L7.85315 13.7187C8.1135 13.4583 8.1135 13.0362 7.85315 12.7759C7.59281 12.5155 7.17065 12.5156 6.9103 12.7759Z" fill="#00B87C"/>
<path d="M15.2999 1.55733C13.9982 0.255631 11.8875 0.255631 10.5858 1.55733L8.32375 3.81934C8.0634 4.07968 8.0634 4.50181 8.32375 4.76216C8.58409 5.0225 9.00622 5.0225 9.26656 4.76216L11.5286 2.50014C12.3096 1.71914 13.5761 1.71914 14.3571 2.50014C15.1381 3.28112 15.1381 4.54703 14.3571 5.328L10.2091 9.47606C9.4281 10.2571 8.16221 10.2571 7.38124 9.47606C7.1209 9.21571 6.69877 9.21571 6.43842 9.47606C6.17808 9.7364 6.17808 10.1585 6.43842 10.4189C7.74012 11.7206 9.85022 11.7206 11.1519 10.4189L15.2999 6.27085C16.6016 4.96916 16.6016 2.85902 15.2999 1.55733Z" fill="#00B87C"/>
</svg>
