<svg width="50" height="51" viewBox="0 0 50 51" fill="none" xmlns="http://www.w3.org/2000/svg">
<path d="M49.312 19.1527L49.3126 19.1549C49.5292 19.8525 49.5587 20.6004 49.3976 21.3151C49.2365 22.0298 48.8918 22.6803 48.4049 23.196L48.4041 23.1968L39.7895 32.3607L39.6241 32.5366L39.6591 32.7755L41.5236 45.5324L41.5237 45.5325C41.63 46.259 41.5444 47.002 41.2773 47.679C41.0102 48.3558 40.5729 48.9383 40.0167 49.3647C39.4608 49.791 38.8071 50.0453 38.1277 50.1031C37.4485 50.1609 36.766 50.0203 36.1547 49.6946L36.1546 49.6946L25.2335 43.8808L24.9985 43.7558L24.7635 43.8808L13.8427 49.6946L13.8422 49.6948C13.231 50.0211 12.5484 50.1623 11.8689 50.1048C11.1893 50.0473 10.5354 49.793 9.9793 49.3666C9.42296 48.9401 8.98564 48.3573 8.71872 47.6801C8.45175 47.0028 8.36659 46.2595 8.47359 45.5329L8.47366 45.5324L10.3382 32.7755L10.3732 32.5366L10.2078 32.3607L1.59332 23.1969C1.59329 23.1969 1.59326 23.1968 1.59323 23.1968C1.10758 22.6799 0.763813 22.029 0.602791 21.3145C0.441744 20.5999 0.47043 19.8521 0.685372 19.154C0.900285 18.4561 1.29221 17.8375 1.81488 17.3644C2.33727 16.8915 2.97009 16.5821 3.64302 16.4665C3.64306 16.4665 3.6431 16.4665 3.64314 16.4665L15.7167 14.3959L15.9692 14.3526L16.0816 14.1223L21.6786 2.64505C21.6786 2.64502 21.6786 2.64498 21.6786 2.64495C21.9963 1.99404 22.4758 1.45173 23.0616 1.07475L22.791 0.654293L23.0616 1.07475C23.6471 0.697922 24.3172 0.5 24.9985 0.5C25.6798 0.5 26.3499 0.697922 26.9354 1.07475L27.206 0.654293L26.9354 1.07475C27.5212 1.45173 28.0007 1.99404 28.3184 2.64495C28.3184 2.64498 28.3184 2.64502 28.3184 2.64505L33.9154 14.1223L34.0278 14.3526L34.2803 14.3959L46.3542 16.4665L46.3554 16.4667C47.0286 16.5805 47.662 16.889 48.1845 17.3619C48.7072 17.8349 49.0986 18.4541 49.312 19.1527ZM9.8435 32.7032L7.97892 45.4601L1.22892 23.5393L9.8435 32.7032ZM46.7659 21.4047L47.0863 21.0638L47.0318 21.0053C47.0729 20.9139 47.1049 20.8183 47.127 20.7199L46.6392 20.6102L47.127 20.7199C47.1845 20.4643 47.1743 20.1971 47.0972 19.9467C47.0201 19.6962 46.8781 19.4695 46.6835 19.2932L46.3478 19.6637L46.6835 19.2932C46.4887 19.1167 46.2487 18.9977 45.9889 18.9529L45.9883 18.9528L32.5075 16.6409L26.2532 3.81627C26.2532 3.81625 26.2532 3.81623 26.2532 3.81621C26.1382 3.58032 25.962 3.37873 25.7409 3.23633C25.5194 3.09374 25.2625 3.01688 24.9985 3.01688C24.7345 3.01688 24.4776 3.09374 24.2561 3.23633C24.035 3.37873 23.8588 3.58032 23.7438 3.81621C23.7438 3.81623 23.7438 3.81625 23.7437 3.81627L17.4895 16.6409L4.00868 18.9528L4.00809 18.9529C3.74833 18.9977 3.50834 19.1167 3.31352 19.2932C3.11894 19.4695 2.97694 19.6962 2.89981 19.9467C2.82271 20.1971 2.81251 20.4643 2.87002 20.7199C2.92753 20.9756 3.05127 21.2127 3.2308 21.4041L3.23118 21.4045L12.8647 31.6525L10.7786 45.9221C10.7785 45.9225 10.7785 45.923 10.7784 45.9235C10.7394 46.1831 10.7689 46.4493 10.8647 46.6938C10.9607 46.9388 11.1205 47.1546 11.3298 47.315C11.5394 47.4757 11.7898 47.574 12.0536 47.5957C12.317 47.6174 12.5796 47.5616 12.8119 47.4366C12.8124 47.4364 12.8129 47.4361 12.8134 47.4359L24.9985 40.9489L37.1835 47.4357C37.184 47.4359 37.1846 47.4362 37.1851 47.4365C37.4174 47.5614 37.68 47.6171 37.9433 47.5955C38.2071 47.5737 38.4575 47.4755 38.6671 47.3148C38.8764 47.1544 39.0362 46.9385 39.1322 46.6935C39.228 46.4492 39.2575 46.183 39.2185 45.9235C39.2184 45.9229 39.2184 45.9224 39.2183 45.9218L37.1323 31.6525L46.7659 21.4047Z" fill="#00B87C" stroke="#CEFFEF"/>
</svg>
