<svg width="50" height="50" viewBox="0 0 50 50" fill="none" xmlns="http://www.w3.org/2000/svg">
<circle cx="25" cy="25" r="24" stroke="#00B87C" stroke-width="2"/>
<path d="M19.215 17.425C19.525 17.135 19.865 16.86 20.235 16.6C20.615 16.34 21.025 16.11 21.465 15.91C21.915 15.71 22.395 15.555 22.905 15.445C23.425 15.325 23.985 15.265 24.585 15.265C25.375 15.265 26.105 15.38 26.775 15.61C27.455 15.84 28.04 16.165 28.53 16.585C29.02 17.005 29.405 17.515 29.685 18.115C29.965 18.715 30.105 19.39 30.105 20.14C30.105 20.9 29.99 21.555 29.76 22.105C29.54 22.655 29.255 23.14 28.905 23.56C28.565 23.97 28.19 24.33 27.78 24.64C27.38 24.94 27 25.225 26.64 25.495C26.28 25.765 25.97 26.035 25.71 26.305C25.46 26.575 25.315 26.875 25.275 27.205L25.005 29.5H23.175L22.995 27.01C22.955 26.56 23.04 26.17 23.25 25.84C23.46 25.5 23.735 25.185 24.075 24.895C24.415 24.595 24.79 24.305 25.2 24.025C25.61 23.735 25.99 23.415 26.34 23.065C26.7 22.715 27 22.32 27.24 21.88C27.48 21.43 27.6 20.895 27.6 20.275C27.6 19.845 27.515 19.455 27.345 19.105C27.175 18.755 26.945 18.46 26.655 18.22C26.365 17.97 26.02 17.78 25.62 17.65C25.23 17.52 24.81 17.455 24.36 17.455C23.75 17.455 23.225 17.53 22.785 17.68C22.355 17.83 21.99 17.995 21.69 18.175C21.39 18.355 21.145 18.52 20.955 18.67C20.775 18.82 20.625 18.895 20.505 18.895C20.255 18.895 20.06 18.78 19.92 18.55L19.215 17.425ZM22.14 35.35C22.14 35.09 22.185 34.845 22.275 34.615C22.375 34.385 22.505 34.185 22.665 34.015C22.835 33.845 23.035 33.71 23.265 33.61C23.495 33.51 23.74 33.46 24 33.46C24.26 33.46 24.505 33.51 24.735 33.61C24.965 33.71 25.165 33.845 25.335 34.015C25.505 34.185 25.64 34.385 25.74 34.615C25.84 34.845 25.89 35.09 25.89 35.35C25.89 35.62 25.84 35.87 25.74 36.1C25.64 36.32 25.505 36.515 25.335 36.685C25.165 36.855 24.965 36.985 24.735 37.075C24.505 37.175 24.26 37.225 24 37.225C23.74 37.225 23.495 37.175 23.265 37.075C23.035 36.985 22.835 36.855 22.665 36.685C22.505 36.515 22.375 36.32 22.275 36.1C22.185 35.87 22.14 35.62 22.14 35.35Z" fill="#00B87C"/>
</svg>
