<svg width="17" height="17" viewBox="0 0 17 17" fill="none" xmlns="http://www.w3.org/2000/svg">
<g clip-path="url(#clip0)">
<path d="M6.9103 12.4457L5.02495 14.3311C4.24332 15.1127 2.97753 15.1127 2.19656 14.3312C1.41543 13.5501 1.41543 12.2842 2.1964 11.5032L5.96777 7.73185C6.74874 6.95084 8.01465 6.95084 8.79563 7.73185C9.05597 7.99219 9.4781 7.99219 9.73845 7.73185C9.99879 7.4715 9.99879 7.04938 9.73845 6.78903C8.43675 5.48734 6.32664 5.48734 5.02495 6.78903L1.25362 10.5604C-0.04808 11.8621 -0.04808 13.9722 1.25362 15.2739C2.55515 16.5762 4.66542 16.5762 5.9678 15.2739L7.85315 13.3885C8.1135 13.1282 8.1135 12.706 7.85315 12.4457C7.59281 12.1853 7.17065 12.1854 6.9103 12.4457Z" fill="#2F80ED"/>
<path d="M15.2999 1.22719C13.9982 -0.0745082 11.8875 -0.0745082 10.5858 1.22719L8.32375 3.4892C8.0634 3.74955 8.0634 4.17167 8.32375 4.43202C8.58409 4.69236 9.00622 4.69236 9.26656 4.43202L11.5286 2.17C12.3096 1.389 13.5761 1.389 14.3571 2.17C15.1381 2.95098 15.1381 4.21689 14.3571 4.99787L10.2091 9.14592C9.4281 9.92692 8.16221 9.92692 7.38124 9.14592C7.1209 8.88558 6.69877 8.88558 6.43842 9.14592C6.17808 9.40627 6.17808 9.82839 6.43842 10.0887C7.74012 11.3904 9.85022 11.3904 11.1519 10.0887L15.2999 5.94071C16.6016 4.63902 16.6016 2.52888 15.2999 1.22719Z" fill="#2F80ED"/>
</g>
<defs>
<clipPath id="clip0">
<rect width="16" height="16" fill="white" transform="translate(0.279297 0.250488)"/>
</clipPath>
</defs>
</svg>
