<svg width="4" height="12" viewBox="0 0 4 12" fill="none" xmlns="http://www.w3.org/2000/svg">
<path d="M0.327148 10.3301V10.04C0.327148 10.0329 0.330825 10.0257 0.338178 10.0186L0.349207 9.97559C0.393325 9.66764 0.533031 9.40446 0.768325 9.18604C1.00362 8.96761 1.27568 8.85124 1.5845 8.83691C1.93009 8.80827 2.23524 8.88167 2.49994 9.05713C2.76465 9.23258 2.9448 9.47786 3.04038 9.79297C3.04774 9.80013 3.05325 9.81087 3.05693 9.8252C3.0606 9.83952 3.06428 9.85205 3.06796 9.86279C3.07163 9.87354 3.07347 9.88428 3.07347 9.89502C3.07347 9.90576 3.07531 9.91829 3.07899 9.93262C3.08266 9.94694 3.08634 9.95947 3.09002 9.97021C3.09369 9.98096 3.09737 9.99349 3.10105 10.0078C3.10472 10.0221 3.10656 10.0329 3.10656 10.04V10.3301L3.10105 10.3569L3.0845 10.3945C3.04038 10.6738 2.9209 10.9155 2.72605 11.1196C2.53119 11.3237 2.29038 11.4544 2.00362 11.5117C1.98156 11.5189 1.95215 11.526 1.91538 11.5332C1.89333 11.5404 1.87862 11.5439 1.87127 11.5439H1.55141C1.52935 11.5368 1.51465 11.5296 1.5073 11.5225C1.22053 11.4795 0.976046 11.3649 0.77384 11.1787C0.571634 10.9925 0.437443 10.7633 0.371266 10.4912C0.363913 10.4697 0.354722 10.4411 0.343693 10.4053C0.332663 10.3695 0.327148 10.3444 0.327148 10.3301ZM3.10656 2.08008V2.37012L3.10105 2.39697L3.0845 2.43457C3.04038 2.74251 2.89884 3.0057 2.65987 3.22412C2.4209 3.44255 2.147 3.55892 1.83818 3.57324C1.61024 3.58757 1.397 3.55713 1.19847 3.48193C0.999943 3.40674 0.830825 3.29395 0.691119 3.14355C0.551413 2.99316 0.448472 2.81413 0.382296 2.60645C0.382296 2.58496 0.363913 2.50618 0.327148 2.37012V2.08008C0.327148 2.07292 0.330825 2.06217 0.338178 2.04785L0.349207 2.01562C0.452148 1.46419 0.783031 1.09896 1.34185 0.919922C1.37127 0.91276 1.41355 0.902018 1.46869 0.887695C1.52384 0.873372 1.55509 0.866211 1.56244 0.866211H1.87127L1.8823 0.876953C1.90435 0.884115 1.91906 0.887695 1.92641 0.887695C2.21318 0.930664 2.4595 1.04525 2.66538 1.23145C2.87127 1.41764 3.0073 1.65039 3.07347 1.92969C3.08083 1.95833 3.09185 2.00488 3.10656 2.06934V2.08008ZM3.10656 6.05469V6.35547L3.09553 6.38232L3.0845 6.41992C3.03303 6.72786 2.88781 6.99105 2.64884 7.20947C2.40987 7.4279 2.13597 7.54427 1.82715 7.55859C1.47421 7.57292 1.16355 7.48698 0.895163 7.30078C0.626781 7.11458 0.452148 6.86393 0.371266 6.54883C0.363913 6.50586 0.349207 6.44141 0.327148 6.35547V6.05469L0.338178 6.02783L0.349207 5.99023C0.393325 5.68229 0.536707 5.41911 0.779354 5.20068C1.022 4.98226 1.29774 4.86589 1.60656 4.85156C1.9595 4.83724 2.27016 4.92318 2.53855 5.10938C2.80693 5.29557 2.98156 5.54622 3.06244 5.86133C3.0698 5.9043 3.0845 5.96875 3.10656 6.05469Z" fill="#B4B4B4"/>
</svg>
