<svg width="25" height="25" viewBox="0 0 25 25" fill="none" xmlns="http://www.w3.org/2000/svg">
<path fill-rule="evenodd" clip-rule="evenodd" d="M13.8125 2.49994H6.8125C5.70793 2.49994 4.8125 3.39537 4.8125 4.49994V20.4999C4.8125 21.6045 5.70793 22.4999 6.8125 22.4999H18.8125C19.9171 22.4999 20.8125 21.6045 20.8125 20.4999V9.49994L13.8125 2.49994Z" stroke="#C8643C" stroke-width="1.22693" stroke-linecap="round" stroke-linejoin="round"/>
<path d="M13.8125 2.49994V9.49994H20.8125" stroke="#C8643C" stroke-width="1.22693" stroke-linecap="round" stroke-linejoin="round"/>
<path d="M9.44581 18.6518C9.4897 18.6518 9.75304 18.5162 10.2438 17.6104C9.59743 17.9735 9.33409 18.2728 9.31414 18.4404C9.31015 18.4683 9.30217 18.5441 9.44581 18.6518Z" fill="#C76641"/>
<path d="M8.8149 18.3847C8.87076 17.8939 9.48124 17.3752 10.6264 16.8525C11.0996 15.8016 11.4827 14.7124 11.7715 13.5967C11.4683 12.9383 11.177 12.0845 11.3725 11.6017C11.3987 11.5187 11.4431 11.4427 11.5025 11.3792C11.5618 11.3157 11.6347 11.2663 11.7157 11.2346C11.8192 11.2003 11.9263 11.1776 12.0349 11.1667C12.1865 11.1667 12.3221 11.3623 12.4339 11.486C12.5456 11.6096 12.7251 11.8411 12.3221 13.5448C12.7233 14.378 13.242 15.1492 13.8623 15.8351C14.1977 15.7696 14.5381 15.7336 14.8797 15.7273C15.3546 15.7273 15.6418 15.8391 15.7575 16.0665C15.803 16.1755 15.8159 16.2953 15.7947 16.4114C15.7734 16.5276 15.7189 16.635 15.6378 16.7209C15.5648 16.8318 15.4653 16.9227 15.3482 16.9854C15.2312 17.0481 15.1003 17.0806 14.9675 17.08C14.4718 17.0174 14.0176 16.7711 13.6947 16.3897C12.7781 16.5872 11.8828 16.8731 11.0214 17.2436C10.8179 17.6917 10.5763 18.1216 10.2992 18.5283C9.98797 18.9633 9.72064 19.1667 9.4573 19.1667C9.35197 19.1659 9.24977 19.1309 9.16603 19.067C9.04963 18.9974 8.95504 18.8966 8.89299 18.776C8.83093 18.6554 8.80388 18.5199 8.8149 18.3847Z" fill="#C76641"/>
<path d="M12.1105 14.2748C11.8875 15.0526 11.6211 15.8172 11.3125 16.5651C11.9497 16.3176 12.6029 16.1137 13.2676 15.9546C12.8277 15.434 12.4401 14.8714 12.1105 14.2748Z" fill="#FED4D4"/>
</svg>
