<svg width="79" height="70" viewBox="0 0 79 70" fill="none" xmlns="http://www.w3.org/2000/svg">
<path fill-rule="evenodd" clip-rule="evenodd" d="M10.1172 12.6044C10.1172 9.29072 12.8035 6.60443 16.1172 6.60443H62.1172C65.4309 6.60443 68.1172 9.29072 68.1172 12.6044V54.566C68.1172 57.8797 65.4309 60.566 62.1172 60.566H16.1172C12.8035 60.566 10.1172 57.8797 10.1172 54.566V12.6044Z" stroke="#1A61DB" stroke-width="2" stroke-linecap="round" stroke-linejoin="round"/>
<path fill-rule="evenodd" clip-rule="evenodd" d="M27.3672 29.5369C29.8525 29.5369 31.8672 27.5221 31.8672 25.0369C31.8672 22.5516 29.8525 20.5369 27.3672 20.5369C24.8819 20.5369 22.8672 22.5516 22.8672 25.0369C22.8672 27.5221 24.8819 29.5369 27.3672 29.5369Z" stroke="#1A61DB" stroke-width="2" stroke-linecap="round" stroke-linejoin="round"/>
<path d="M68.3672 43.5369L52.1172 29.1619L16.3672 60.7869" stroke="#1A61DB" stroke-width="2" stroke-linecap="round" stroke-linejoin="round"/>
</svg>
