<svg width="15" height="15" viewBox="0 0 15 15" fill="none" xmlns="http://www.w3.org/2000/svg">
<path d="M0.280273 2.9483C0.280273 2.41787 0.490987 1.90916 0.86606 1.53409C1.24113 1.15902 1.74984 0.948303 2.28027 0.948303H10.6593C11.1897 0.948416 11.6983 1.1592 12.0733 1.5343L13.6943 3.1553C14.0694 3.53029 14.2802 4.03891 14.2803 4.5693V12.9483C14.2803 13.4787 14.0696 13.9874 13.6945 14.3625C13.3194 14.7376 12.8107 14.9483 12.2803 14.9483H2.28027C1.74984 14.9483 1.24113 14.7376 0.86606 14.3625C0.490987 13.9874 0.280273 13.4787 0.280273 12.9483V2.9483ZM2.28027 1.9483C2.01506 1.9483 1.7607 2.05366 1.57317 2.2412C1.38563 2.42873 1.28027 2.68309 1.28027 2.9483V12.9483C1.28027 13.2135 1.38563 13.4679 1.57317 13.6554C1.7607 13.8429 2.01506 13.9483 2.28027 13.9483V9.4483C2.28027 9.05048 2.43831 8.66895 2.71961 8.38764C3.00092 8.10634 3.38245 7.9483 3.78027 7.9483H10.7803C11.1781 7.9483 11.5596 8.10634 11.8409 8.38764C12.1222 8.66895 12.2803 9.05048 12.2803 9.4483V13.9483C12.5455 13.9483 12.7998 13.8429 12.9874 13.6554C13.1749 13.4679 13.2803 13.2135 13.2803 12.9483V4.5693C13.2802 4.30411 13.1748 4.0498 12.9873 3.8623L11.3663 2.2413C11.1788 2.05375 10.9245 1.94836 10.6593 1.9483H10.2803V4.4483C10.2803 4.84613 10.1222 5.22766 9.84093 5.50896C9.55963 5.79027 9.1781 5.9483 8.78027 5.9483H4.78027C4.38245 5.9483 4.00092 5.79027 3.71961 5.50896C3.43831 5.22766 3.28027 4.84613 3.28027 4.4483V1.9483H2.28027ZM4.28027 1.9483V4.4483C4.28027 4.58091 4.33295 4.70809 4.42672 4.80186C4.52049 4.89562 4.64767 4.9483 4.78027 4.9483H8.78027C8.91288 4.9483 9.04006 4.89562 9.13383 4.80186C9.2276 4.70809 9.28027 4.58091 9.28027 4.4483V1.9483H4.28027ZM11.2803 13.9483V9.4483C11.2803 9.31569 11.2276 9.18852 11.1338 9.09475C11.0401 9.00098 10.9129 8.9483 10.7803 8.9483H3.78027C3.64767 8.9483 3.52049 9.00098 3.42672 9.09475C3.33295 9.18852 3.28027 9.31569 3.28027 9.4483V13.9483H11.2803Z" fill="#00B87C"/>
</svg>
