<svg width="25" height="25" viewBox="0 0 25 25" fill="none" xmlns="http://www.w3.org/2000/svg">
<path fill-rule="evenodd" clip-rule="evenodd" d="M12.502 2.30127C12.2367 2.30127 11.9824 2.40663 11.7948 2.59416C11.6073 2.7817 11.502 3.03605 11.502 3.30127V3.47526C11.4999 3.99207 11.3467 4.49699 11.0614 4.92788C10.776 5.35877 10.3709 5.69682 9.89588 5.90041C9.81133 5.93665 9.72237 5.96096 9.63156 5.97283C9.19993 6.12399 8.73528 6.16125 8.28295 6.07923C7.76196 5.98476 7.2812 5.73639 6.90269 5.36613L6.8948 5.35842L6.83485 5.29838C6.74197 5.2054 6.63129 5.13125 6.50989 5.08092C6.38849 5.0306 6.25837 5.0047 6.12695 5.0047C5.99554 5.0047 5.86541 5.0306 5.74401 5.08092C5.62261 5.13125 5.51233 5.20501 5.41945 5.29798C5.32648 5.39086 5.25193 5.50193 5.20161 5.62333C5.15128 5.74473 5.12538 5.87485 5.12538 6.00627C5.12538 6.13768 5.15128 6.26781 5.20161 6.38921C5.25193 6.51061 5.32569 6.6209 5.41867 6.71377L5.48686 6.78196C5.85712 7.16048 6.10545 7.64127 6.19991 8.16227C6.2925 8.6729 6.23308 9.19924 6.0294 9.67605C5.84384 10.1626 5.51893 10.5839 5.095 10.8871C4.6625 11.1965 4.14693 11.3686 3.61534 11.381L3.59195 11.3813H3.50195C3.23674 11.3813 2.98238 11.4866 2.79485 11.6742C2.60731 11.8617 2.50195 12.1161 2.50195 12.3813C2.50195 12.6465 2.60731 12.9008 2.79485 13.0884C2.98238 13.2759 3.23674 13.3813 3.50195 13.3813H3.67594C4.19275 13.3833 4.69768 13.5365 5.12857 13.8218C5.55796 14.1062 5.89515 14.5095 6.09897 14.9824C6.31103 15.4655 6.37406 16.001 6.27991 16.5203C6.18545 17.0413 5.93707 17.522 5.56682 17.9005L5.5591 17.9084L5.49906 17.9684C5.40608 18.0613 5.33193 18.1719 5.28161 18.2933C5.23128 18.4147 5.20538 18.5449 5.20538 18.6763C5.20538 18.8077 5.23128 18.9378 5.28161 19.0592C5.33193 19.1806 5.40569 19.2909 5.49867 19.3838C5.59154 19.4767 5.70261 19.5513 5.82401 19.6016C5.94541 19.6519 6.07554 19.6778 6.20695 19.6778C6.33837 19.6778 6.46849 19.6519 6.58989 19.6016C6.71129 19.5513 6.82158 19.4775 6.91445 19.3846L6.98265 19.3164C7.36116 18.9461 7.84196 18.6978 8.36296 18.6033C8.87358 18.5107 9.39991 18.5701 9.87672 18.7738C10.3633 18.9594 10.7846 19.2843 11.0878 19.7082C11.3972 20.1407 11.5692 20.6563 11.5817 21.1879L11.582 21.2113V21.3013C11.582 21.5665 11.6873 21.8208 11.8748 22.0084C12.0624 22.1959 12.3167 22.3013 12.582 22.3013C12.8472 22.3013 13.1015 22.1959 13.2891 22.0084C13.4766 21.8208 13.582 21.5665 13.582 21.3013V21.1313L13.582 21.1273C13.584 20.6105 13.7372 20.1055 14.0225 19.6747C14.3069 19.2452 14.7103 18.908 15.1832 18.7042C15.6663 18.4922 16.2017 18.4292 16.721 18.5233C17.2419 18.6178 17.7227 18.8662 18.1012 19.2364L18.1091 19.2441L18.1691 19.3042C18.2619 19.3971 18.3726 19.4713 18.494 19.5216C18.6154 19.5719 18.7455 19.5978 18.877 19.5978C19.0084 19.5978 19.1385 19.5719 19.2599 19.5216C19.3813 19.4713 19.4916 19.3975 19.5845 19.3046C19.6774 19.2117 19.752 19.1006 19.8023 18.9792C19.8526 18.8578 19.8785 18.7277 19.8785 18.5963C19.8785 18.4649 19.8526 18.3347 19.8023 18.2133C19.752 18.0919 19.6782 17.9816 19.5852 17.8888L19.517 17.8206C19.1468 17.4421 18.8985 16.9613 18.804 16.4403C18.7099 15.9211 18.7729 15.3856 18.9849 14.9025C19.1887 14.4296 19.5259 14.0262 19.9553 13.7418C20.3862 13.4565 20.8912 13.3033 21.408 13.3013L21.412 13.3013L21.502 13.3013C21.7672 13.3013 22.0215 13.1959 22.2091 13.0084C22.3966 12.8208 22.502 12.5665 22.502 12.3013C22.502 12.0361 22.3966 11.7817 22.2091 11.5942C22.0215 11.4066 21.7672 11.3013 21.502 11.3013H21.332L21.328 11.3013C20.8112 11.2992 20.3062 11.1461 19.8753 10.8607C19.4445 10.5754 19.1064 10.1702 18.9028 9.6952C18.8666 9.61065 18.8423 9.52169 18.8304 9.43088C18.6792 8.99924 18.642 8.53459 18.724 8.08227C18.8185 7.56127 19.0668 7.08052 19.4371 6.702L19.4448 6.69412L19.5048 6.63417C19.5978 6.54129 19.672 6.43061 19.7223 6.30921C19.7726 6.18781 19.7985 6.05768 19.7985 5.92627C19.7985 5.79486 19.7726 5.66473 19.7223 5.54333C19.672 5.42193 19.5982 5.31164 19.5052 5.21877C19.4124 5.12579 19.3013 5.05125 19.1799 5.00092C19.0585 4.9506 18.9284 4.9247 18.797 4.9247C18.6655 4.9247 18.5354 4.9506 18.414 5.00092C18.2926 5.05125 18.1823 5.12501 18.0895 5.21798L18.0213 5.28618C17.6427 5.65643 17.1619 5.90476 16.641 5.99923C16.1217 6.09338 15.5862 6.03035 15.1031 5.81828C14.6302 5.61447 14.2269 5.27728 13.9425 4.84788C13.6572 4.41699 13.504 3.91207 13.502 3.39526L13.502 3.39127V3.30127C13.502 3.03605 13.3966 2.7817 13.2091 2.59416C13.0215 2.40663 12.7672 2.30127 12.502 2.30127ZM10.3806 1.17995C10.9432 0.61734 11.7063 0.30127 12.502 0.30127C13.2976 0.30127 14.0607 0.61734 14.6233 1.17995C15.1859 1.74256 15.502 2.50562 15.502 3.30127V3.38877C15.5027 3.51501 15.5403 3.63831 15.61 3.74359C15.68 3.84928 15.7794 3.93219 15.8959 3.98213L15.9057 3.98635C16.0246 4.03879 16.1563 4.05449 16.2841 4.03132C16.4105 4.0084 16.5273 3.94855 16.6196 3.85938L16.6745 3.80456C16.9531 3.52563 17.2839 3.30435 17.6481 3.15338C18.0123 3.0024 18.4027 2.9247 18.797 2.9247C19.1912 2.9247 19.5816 3.0024 19.9458 3.15338C20.31 3.30435 20.6408 3.52563 20.9195 3.80456C21.198 4.08301 21.419 4.4136 21.5698 4.77745C21.7208 5.14164 21.7985 5.53202 21.7985 5.92627C21.7985 6.32052 21.7208 6.7109 21.5698 7.07509C21.4189 7.43911 21.1978 7.76984 20.9191 8.04837L20.8639 8.10358C20.7747 8.19595 20.7148 8.31269 20.6919 8.43909C20.6687 8.56688 20.6844 8.69869 20.7368 8.8175C20.7651 8.88154 20.7865 8.94819 20.8007 9.01634C20.8481 9.08606 20.9087 9.14625 20.9796 9.19322C21.0849 9.26294 21.2082 9.30048 21.3345 9.30127H21.502C22.2976 9.30127 23.0607 9.61734 23.6233 10.1799C24.1859 10.7426 24.502 11.5056 24.502 12.3013C24.502 13.0969 24.1859 13.86 23.6233 14.4226C23.0607 14.9852 22.2976 15.3013 21.502 15.3013H21.4145C21.2882 15.3021 21.1649 15.3396 21.0596 15.4093C20.9539 15.4793 20.871 15.5787 20.8211 15.6952L20.8169 15.7051C20.7644 15.8239 20.7487 15.9557 20.7719 16.0834C20.7948 16.2098 20.8547 16.3266 20.9438 16.4189L20.9987 16.4738C21.2774 16.7523 21.4989 17.0834 21.6498 17.4474C21.8008 17.8116 21.8785 18.202 21.8785 18.5963C21.8785 18.9905 21.8008 19.3809 21.6498 19.7451C21.4989 20.1093 21.2776 20.4401 20.9987 20.7188C20.72 20.9977 20.39 21.2182 20.0258 21.3692C19.6616 21.5201 19.2712 21.5978 18.877 21.5978C18.4827 21.5978 18.0923 21.5201 17.7281 21.3692C17.3641 21.2183 17.0334 20.9971 16.7548 20.7184L16.6996 20.6631C16.6073 20.574 16.4905 20.5141 16.3641 20.4912C16.2363 20.4681 16.1045 20.4837 15.9857 20.5361L15.9759 20.5405C15.8594 20.5904 15.76 20.6733 15.69 20.779C15.6203 20.8842 15.5827 21.0075 15.582 21.1338V21.3013C15.582 22.0969 15.2659 22.86 14.7033 23.4226C14.1407 23.9852 13.3776 24.3013 12.582 24.3013C11.7863 24.3013 11.0232 23.9852 10.4606 23.4226C9.89803 22.86 9.58195 22.0969 9.58195 21.3013V21.2256C9.57721 21.0984 9.53522 20.9754 9.46109 20.8717C9.38522 20.7656 9.27918 20.6848 9.15677 20.6398C9.137 20.6325 9.11746 20.6246 9.09819 20.6161C8.97937 20.5637 8.84757 20.548 8.71977 20.5712C8.59337 20.5941 8.47662 20.654 8.38425 20.7432L8.32945 20.798C8.05091 21.0767 7.7198 21.2983 7.35577 21.4492C6.99158 21.6001 6.6012 21.6778 6.20695 21.6778C5.81271 21.6778 5.42233 21.6001 5.05813 21.4492C4.69428 21.2983 4.3637 21.0773 4.08524 20.7988C3.80631 20.5201 3.58503 20.1893 3.43406 19.8251C3.28309 19.4609 3.20538 19.0705 3.20538 18.6763C3.20538 18.282 3.28309 17.8916 3.43406 17.5274C3.58503 17.1633 3.80631 16.8324 4.08524 16.5538L4.14006 16.4989C4.22924 16.4066 4.28908 16.2898 4.312 16.1634C4.33517 16.0357 4.31953 15.9039 4.26709 15.785L4.26276 15.7752C4.21282 15.6587 4.12996 15.5593 4.02427 15.4893C3.91899 15.4196 3.7957 15.3821 3.66945 15.3813H3.50195C2.7063 15.3813 1.94324 15.0652 1.38063 14.5026C0.818024 13.94 0.501953 13.1769 0.501953 12.3813C0.501953 11.5856 0.818024 10.8226 1.38063 10.26C1.94324 9.69734 2.7063 9.38127 3.50195 9.38127H3.57759C3.70479 9.37653 3.82787 9.33454 3.9315 9.26041C4.03759 9.18454 4.1184 9.0785 4.16342 8.95609C4.17069 8.93632 4.17858 8.91678 4.18709 8.8975C4.23953 8.77869 4.25517 8.64688 4.232 8.51909C4.20908 8.39269 4.14923 8.27595 4.06005 8.18358L4.00524 8.12877C3.72631 7.85015 3.50503 7.51928 3.35406 7.15509C3.20309 6.7909 3.12538 6.40052 3.12538 6.00627C3.12538 5.61202 3.20309 5.22164 3.35406 4.85745C3.50496 4.49343 3.7261 4.1627 4.00485 3.88416C4.28338 3.60542 4.61411 3.38428 4.97813 3.23338C5.34233 3.0824 5.73271 3.0047 6.12695 3.0047C6.5212 3.0047 6.91158 3.0824 7.27577 3.23338C7.63997 3.38435 7.97083 3.60563 8.24945 3.88456L8.30426 3.93937C8.39663 4.02855 8.51338 4.0884 8.63977 4.11132C8.76757 4.13449 8.89937 4.11885 9.01819 4.06641C9.08223 4.03814 9.14888 4.01676 9.21702 4.00249C9.28675 3.95517 9.34694 3.8945 9.3939 3.82359C9.46362 3.71831 9.50116 3.59501 9.50195 3.46877V3.30127C9.50195 2.50562 9.81802 1.74256 10.3806 1.17995ZM12.502 10.3013C11.3974 10.3013 10.502 11.1967 10.502 12.3013C10.502 13.4058 11.3974 14.3013 12.502 14.3013C13.6065 14.3013 14.502 13.4058 14.502 12.3013C14.502 11.1967 13.6065 10.3013 12.502 10.3013ZM8.50195 12.3013C8.50195 10.0921 10.2928 8.30127 12.502 8.30127C14.7111 8.30127 16.502 10.0921 16.502 12.3013C16.502 14.5104 14.7111 16.3013 12.502 16.3013C10.2928 16.3013 8.50195 14.5104 8.50195 12.3013Z" fill="#999999"/>
</svg>
