<svg version="1.1" id="Layer_1" xmlns="http://www.w3.org/2000/svg" xmlns:xlink="http://www.w3.org/1999/xlink" x="0px" y="0px"
    width="512px" height="512px" viewBox="0 0 512 512" enable-background="new 0 0 512 512" xml:space="preserve">
    <polygon points="350.552,354 186.337,354 350,189.458 350,327 421,327 421,162.054 421,118.861 495.424,44.512 466.937,15.758 
	391.503,91 350.552,91 184,91 184,162 320.906,162 157,325.148 157,162.054 157,91.458 157,20 87,20 87,91 16,91 16,162 87,162 
	87,353.674 87,424 157.812,424 350,424 350,496 421,496 421,424 491,424 491,354 421.148,354 "/>
</svg>