<svg width="19" height="18" viewBox="0 0 19 18" fill="none" xmlns="http://www.w3.org/2000/svg">
<path fill-rule="evenodd" clip-rule="evenodd" d="M9.5 16.5C13.6421 16.5 17 13.1421 17 9C17 4.85786 13.6421 1.5 9.5 1.5C5.35786 1.5 2 4.85786 2 9C2 13.1421 5.35786 16.5 9.5 16.5Z" stroke="#999999" stroke-width="1.22693" stroke-linecap="round" stroke-linejoin="round"/>
<path fill-rule="evenodd" clip-rule="evenodd" d="M9.5 13.5C11.9853 13.5 14 11.4853 14 9C14 6.51472 11.9853 4.5 9.5 4.5C7.01472 4.5 5 6.51472 5 9C5 11.4853 7.01472 13.5 9.5 13.5Z" stroke="#999999" stroke-width="1.22693" stroke-linecap="round" stroke-linejoin="round"/>
<path fill-rule="evenodd" clip-rule="evenodd" d="M9.5 10.5C10.3284 10.5 11 9.82843 11 9C11 8.17157 10.3284 7.5 9.5 7.5C8.67157 7.5 8 8.17157 8 9C8 9.82843 8.67157 10.5 9.5 10.5Z" stroke="#999999" stroke-width="1.22693" stroke-linecap="round" stroke-linejoin="round"/>
</svg>
