<svg width="19" height="18" viewBox="0 0 19 18" fill="none" xmlns="http://www.w3.org/2000/svg">
<path d="M2.75 4.5H4.25H16.25" stroke="#999999" stroke-width="1.22693" stroke-linecap="round" stroke-linejoin="round"/>
<path d="M15.3635 4.50003C15.3635 4.16122 15.0888 3.88656 14.75 3.88656C14.4112 3.88656 14.1365 4.16122 14.1365 4.50003H15.3635ZM4.86346 4.50003C4.86346 4.16122 4.58881 3.88656 4.25 3.88656C3.91119 3.88656 3.63654 4.16122 3.63654 4.50003H4.86346ZM5.88664 4.5C5.88664 4.83881 6.16129 5.11346 6.5001 5.11346C6.8389 5.11346 7.11356 4.83881 7.11356 4.5H5.88664ZM11.8866 4.5C11.8866 4.83881 12.1613 5.11346 12.5001 5.11346C12.8389 5.11346 13.1136 4.83881 13.1136 4.5H11.8866ZM14.1365 4.50003V15H15.3635V4.50003H14.1365ZM14.1365 15C14.1365 15.4896 13.7396 15.8866 13.25 15.8866V17.1135C14.4172 17.1135 15.3635 16.1673 15.3635 15H14.1365ZM13.25 15.8866H5.75V17.1135H13.25V15.8866ZM5.75 15.8866C5.26038 15.8866 4.86346 15.4896 4.86346 15H3.63654C3.63654 16.1673 4.58277 17.1135 5.75 17.1135V15.8866ZM4.86346 15V4.50003H3.63654V15H4.86346ZM7.11356 4.5V3H5.88664V4.5H7.11356ZM7.11356 3C7.11356 2.51038 7.51048 2.11346 8.0001 2.11346V0.886537C6.83287 0.886537 5.88664 1.83277 5.88664 3H7.11356ZM8.0001 2.11346H11.0001V0.886537H8.0001V2.11346ZM11.0001 2.11346C11.4897 2.11346 11.8866 2.51038 11.8866 3H13.1136C13.1136 1.83277 12.1673 0.886537 11.0001 0.886537V2.11346ZM11.8866 3V4.5H13.1136V3H11.8866Z" fill="#999999"/>
<path d="M8 8.25V12.75" stroke="#999999" stroke-width="1.22693" stroke-linecap="round" stroke-linejoin="round"/>
<path d="M11 8.25V12.75" stroke="#999999" stroke-width="1.22693" stroke-linecap="round" stroke-linejoin="round"/>
</svg>
