<svg width="19" height="18" viewBox="0 0 19 18" fill="none" xmlns="http://www.w3.org/2000/svg">
<path fill-rule="evenodd" clip-rule="evenodd" d="M9.49976 16.5C13.6419 16.5 16.9998 13.1421 16.9998 9C16.9998 4.85786 13.6419 1.5 9.49976 1.5C5.35762 1.5 1.99976 4.85786 1.99976 9C1.99976 13.1421 5.35762 16.5 9.49976 16.5Z" stroke="#999999" stroke-width="1.22693" stroke-linecap="round" stroke-linejoin="round"/>
<path fill-rule="evenodd" clip-rule="evenodd" d="M9.5 12C11.1569 12 12.5 10.6569 12.5 9C12.5 7.34315 11.1569 6 9.5 6C7.84315 6 6.5 7.34315 6.5 9C6.5 10.6569 7.84315 12 9.5 12Z" stroke="#999999" stroke-width="1.22693" stroke-linecap="round" stroke-linejoin="round"/>
<path d="M16.3775 6H9.5" stroke="#999999" stroke-width="1.22693" stroke-linecap="round" stroke-linejoin="round"/>
<path d="M3.46265 4.54504L6.90515 10.5" stroke="#999999" stroke-width="1.22693" stroke-linecap="round" stroke-linejoin="round"/>
<path d="M8.65991 16.455L12.0949 10.5" stroke="#999999" stroke-width="1.22693" stroke-linecap="round" stroke-linejoin="round"/>
</svg>
