<svg width="19" height="18" viewBox="0 0 19 18" fill="none" xmlns="http://www.w3.org/2000/svg">
<path d="M4.25 14.1135C4.58881 14.1135 4.86346 13.8388 4.86346 13.5C4.86346 13.1612 4.58881 12.8865 4.25 12.8865V14.1135ZM1.25 12H0.636537H1.25ZM5.1425 5.11346C5.48131 5.11346 5.75596 4.83881 5.75596 4.5C5.75596 4.16119 5.48131 3.88654 5.1425 3.88654V5.11346ZM11.75 3.8866C11.4111 3.8866 11.1365 4.16125 11.1365 4.50006C11.1365 4.83887 11.4111 5.11352 11.75 5.11352V3.8866ZM10.8575 12.8866C10.5186 12.8866 10.244 13.1613 10.244 13.5001C10.244 13.8389 10.5186 14.1135 10.8575 14.1135V12.8866ZM4.25 12.8865H2.75V14.1135H4.25V12.8865ZM2.75 12.8865C2.26038 12.8865 1.86346 12.4896 1.86346 12H0.636537C0.636537 13.1672 1.58277 14.1135 2.75 14.1135V12.8865ZM1.86346 12V6H0.636537V12H1.86346ZM1.86346 6C1.86346 5.51038 2.26038 5.11346 2.75 5.11346V3.88654C1.58277 3.88654 0.636537 4.83277 0.636537 6H1.86346ZM2.75 5.11346H5.1425V3.88654H2.75V5.11346ZM11.75 5.11352H13.25V3.8866H11.75V5.11352ZM13.25 5.11352C13.7396 5.11352 14.1365 5.51044 14.1365 6.00006H15.3634C15.3634 4.83283 14.4172 3.8866 13.25 3.8866V5.11352ZM14.1365 6.00006V12.0001H15.3634V6.00006H14.1365ZM14.1365 12.0001C14.1365 12.4897 13.7396 12.8866 13.25 12.8866V14.1135C14.4172 14.1135 15.3634 13.1673 15.3634 12.0001H14.1365ZM13.25 12.8866H10.8575V14.1135H13.25V12.8866Z" fill="#999999"/>
<path d="M17.75 9.75V8.25" stroke="#999999" stroke-width="1.22693" stroke-linecap="round" stroke-linejoin="round"/>
<path d="M8.75 4.5L5.75 9H10.25L7.25 13.5" stroke="#999999" stroke-width="1.22693" stroke-linecap="round" stroke-linejoin="round"/>
</svg>
