<svg width="19" height="18" viewBox="0 0 19 18" fill="none" xmlns="http://www.w3.org/2000/svg">
<path d="M1.24976 3V7.5H5.74976" stroke="#999999" stroke-width="1.22693" stroke-linecap="round" stroke-linejoin="round"/>
<path d="M17.7498 15V10.5H13.2498" stroke="#999999" stroke-width="1.22693" stroke-linecap="round" stroke-linejoin="round"/>
<path d="M15.2889 6.95471C15.402 7.27411 15.7525 7.44141 16.0719 7.32838C16.3913 7.21536 16.5586 6.86481 16.4456 6.54541L15.2889 6.95471ZM4.72976 4.23006L5.14984 4.67713C5.15451 4.67273 5.15912 4.66827 5.16365 4.66374L4.72976 4.23006ZM0.829671 7.053C0.582765 7.28501 0.570687 7.67324 0.802693 7.92015C1.0347 8.16705 1.42293 8.17913 1.66984 7.94713L0.829671 7.053ZM18.1696 10.9472C18.4165 10.7152 18.4286 10.327 18.1966 10.08C17.9646 9.83314 17.5763 9.82106 17.3294 10.0531L18.1696 10.9472ZM14.2695 13.7701L13.8494 13.3231C13.8447 13.3275 13.8401 13.3319 13.8356 13.3365L14.2695 13.7701ZM3.71032 11.0455C3.59729 10.7261 3.24674 10.5588 2.92735 10.6718C2.60795 10.7848 2.44065 11.1354 2.55367 11.4548L3.71032 11.0455ZM16.4456 6.54541C15.6021 4.16195 13.5949 2.37787 11.1289 1.81992L10.8582 3.01659C12.9132 3.48158 14.586 4.96839 15.2889 6.95471L16.4456 6.54541ZM11.1289 1.81992C8.66296 1.26196 6.08319 2.00817 4.29586 3.79639L5.16365 4.66374C6.65316 3.17348 8.80309 2.55161 10.8582 3.01659L11.1289 1.81992ZM4.30967 3.783L0.829671 7.053L1.66984 7.94713L5.14984 4.67713L4.30967 3.783ZM17.3294 10.0531L13.8494 13.3231L14.6896 14.2172L18.1696 10.9472L17.3294 10.0531ZM13.8356 13.3365C12.3461 14.8267 10.1962 15.4486 8.14109 14.9836L7.87033 16.1803C10.3363 16.7382 12.9161 15.992 14.7034 14.2038L13.8356 13.3365ZM8.14109 14.9836C6.08602 14.5186 4.41321 13.0318 3.71032 11.0455L2.55367 11.4548C3.3971 13.8382 5.40437 15.6223 7.87033 16.1803L8.14109 14.9836Z" fill="#999999"/>
</svg>
