<svg width="19" height="18" viewBox="0 0 19 18" fill="none" xmlns="http://www.w3.org/2000/svg">
<path fill-rule="evenodd" clip-rule="evenodd" d="M1.99976 4.56731C1.99976 2.87328 3.37304 1.5 5.06707 1.5H13.9324C15.6265 1.5 16.9998 2.87328 16.9998 4.56731V13.4327C16.9998 15.1267 15.6265 16.5 13.9324 16.5H5.06707C3.37304 16.5 1.99976 15.1267 1.99976 13.4327V4.56731Z" stroke="#999999" stroke-width="1.22693" stroke-linecap="round" stroke-linejoin="round"/>
<path fill-rule="evenodd" clip-rule="evenodd" d="M12.4996 8.52737C12.6895 9.8076 12.0369 11.0653 10.8808 11.6471C9.72479 12.229 8.3259 12.0039 7.41074 11.0887C6.49559 10.1736 6.27049 8.7747 6.85236 7.61865C7.43423 6.4626 8.69189 5.81003 9.97212 5.99987C11.2793 6.19372 12.3058 7.22014 12.4996 8.52737Z" stroke="#999999" stroke-width="1.22693" stroke-linecap="round" stroke-linejoin="round"/>
</svg>
