<svg width="19" height="18" viewBox="0 0 19 18" fill="none" xmlns="http://www.w3.org/2000/svg">
<path fill-rule="evenodd" clip-rule="evenodd" d="M9.5 10.5C10.3284 10.5 11 9.82843 11 9C11 8.17157 10.3284 7.5 9.5 7.5C8.67157 7.5 8 8.17157 8 9C8 9.82843 8.67157 10.5 9.5 10.5Z" stroke="#999999" stroke-width="1.22693" stroke-linecap="round" stroke-linejoin="round"/>
<path d="M13.1134 5.38597C12.8737 5.14654 12.4852 5.14675 12.2458 5.38646C12.0064 5.62616 12.0066 6.01459 12.2463 6.25402L13.1134 5.38597ZM12.2463 11.7535C12.0066 11.9929 12.0064 12.3813 12.2458 12.621C12.4852 12.8607 12.8737 12.861 13.1134 12.6215L12.2463 11.7535ZM5.88625 12.614C6.12595 12.8535 6.51438 12.8533 6.75382 12.6136C6.99325 12.3739 6.99304 11.9854 6.75333 11.746L5.88625 12.614ZM6.75333 6.24654C6.99304 6.0071 6.99325 5.61868 6.75382 5.37897C6.51438 5.13927 6.12595 5.13905 5.88625 5.37849L6.75333 6.24654ZM15.2362 3.26379C14.9966 3.02418 14.6082 3.02412 14.3686 3.26366C14.129 3.5032 14.129 3.89162 14.3685 4.13123L15.2362 3.26379ZM14.3685 13.8688C14.129 14.1084 14.129 14.4968 14.3686 14.7364C14.6082 14.9759 14.9966 14.9758 15.2362 14.7362L14.3685 13.8688ZM3.76351 14.7362C4.00305 14.9758 4.39147 14.9759 4.63108 14.7364C4.87069 14.4968 4.87075 14.1084 4.63121 13.8688L3.76351 14.7362ZM4.63121 4.13124C4.87075 3.89163 4.87069 3.50321 4.63108 3.26367C4.39147 3.02414 4.00305 3.0242 3.76351 3.2638L4.63121 4.13124ZM12.2463 6.25402C12.9761 6.98302 13.3861 7.97223 13.3861 9.00375H14.6131C14.6131 7.64659 14.0736 6.3451 13.1134 5.38597L12.2463 6.25402ZM13.3861 9.00375C13.3861 10.0353 12.9761 11.0245 12.2463 11.7535L13.1134 12.6215C14.0736 11.6624 14.6131 10.3609 14.6131 9.00375H13.3861ZM6.75333 11.746C6.02353 11.017 5.61346 10.0278 5.61346 8.99626H4.38654C4.38654 10.3534 4.92606 11.6549 5.88625 12.614L6.75333 11.746ZM5.61346 8.99626C5.61346 7.96474 6.02353 6.97553 6.75333 6.24654L5.88625 5.37849C4.92606 6.33761 4.38654 7.6391 4.38654 8.99626H5.61346ZM14.3685 4.13123C17.0569 6.82042 17.0569 11.1796 14.3685 13.8688L15.2362 14.7362C18.4035 11.5679 18.4035 6.4321 15.2362 3.26379L14.3685 4.13123ZM4.63121 13.8688C1.94283 11.1796 1.94283 6.82043 4.63121 4.13124L3.76351 3.2638C0.596165 6.43211 0.596165 11.5679 3.76351 14.7362L4.63121 13.8688Z" fill="#999999"/>
</svg>
