<svg width="79" height="70" viewBox="0 0 79 70" fill="none" xmlns="http://www.w3.org/2000/svg">
<path fill-rule="evenodd" clip-rule="evenodd" d="M10.7305 12.4058C10.7305 9.09205 13.4168 6.40576 16.7305 6.40576H62.7305C66.0442 6.40576 68.7305 9.09205 68.7305 12.4058V54.3673C68.7305 57.681 66.0442 60.3673 62.7305 60.3673H16.7305C13.4168 60.3673 10.7305 57.681 10.7305 54.3673V12.4058Z" stroke="#1A61DB" stroke-width="2" stroke-linecap="round" stroke-linejoin="round"/>
<path fill-rule="evenodd" clip-rule="evenodd" d="M27.9805 29.3381C30.4658 29.3381 32.4805 27.3234 32.4805 24.8381C32.4805 22.3529 30.4658 20.3381 27.9805 20.3381C25.4952 20.3381 23.4805 22.3529 23.4805 24.8381C23.4805 27.3234 25.4952 29.3381 27.9805 29.3381Z" stroke="#1A61DB" stroke-width="2" stroke-linecap="round" stroke-linejoin="round"/>
<path d="M68.9802 43.3381L52.7302 28.9631L16.9802 60.5881" stroke="#1A61DB" stroke-width="2" stroke-linecap="round" stroke-linejoin="round"/>
</svg>
