<svg width="19" height="21" viewBox="0 0 19 21" fill="none" xmlns="http://www.w3.org/2000/svg">
<path d="M9.27734 3.29293C12.9898 3.29293 16.0273 6.5228 16.0273 10.4704C16.0273 14.4181 12.9898 17.6479 9.27734 17.6479C5.56484 17.6479 2.52734 14.4181 2.52734 10.4704C2.52734 6.5228 5.56484 3.29293 9.27734 3.29293ZM9.27734 2.09668C4.94609 2.09668 1.40234 5.86487 1.40234 10.4704C1.40234 15.076 4.94609 18.8442 9.27734 18.8442C13.6086 18.8442 17.1523 15.076 17.1523 10.4704C17.1523 5.86487 13.6086 2.09668 9.27734 2.09668Z" fill="#999999"/>
<path d="M13.7773 9.87218H9.83984V5.6853H8.71484V9.87218H4.77734V11.0684H8.71484V15.2553H9.83984V11.0684H13.7773V9.87218Z" fill="#999999"/>
</svg>
