<svg width="17" height="17" viewBox="0 0 17 17" fill="none" xmlns="http://www.w3.org/2000/svg">
<path d="M6.75405 12.3512L4.8687 14.2366C4.08707 15.0182 2.82128 15.0182 2.04031 14.2367C1.25918 13.4556 1.25918 12.1897 2.04015 11.4087L5.81152 7.63735C6.59249 6.85635 7.8584 6.85635 8.63938 7.63735C8.89972 7.8977 9.32185 7.8977 9.5822 7.63735C9.84254 7.37701 9.84254 6.95488 9.5822 6.69453C8.2805 5.39284 6.17039 5.39284 4.8687 6.69453L1.09737 10.4659C-0.20433 11.7676 -0.20433 13.8777 1.09737 15.1794C2.3989 16.4817 4.50917 16.4817 5.81155 15.1794L7.6969 13.294C7.95725 13.0337 7.95725 12.6115 7.6969 12.3512C7.43656 12.0908 7.0144 12.0909 6.75405 12.3512Z" fill="#606060"/>
<path d="M15.1439 1.13277C13.8422 -0.16893 11.7314 -0.16893 10.4298 1.13277L8.16774 3.39478C7.9074 3.65512 7.9074 4.07725 8.16774 4.3376C8.42809 4.59794 8.85021 4.59794 9.11056 4.3376L11.3726 2.07558C12.1535 1.29458 13.4201 1.29458 14.2011 2.07558C14.9821 2.85656 14.9821 4.12247 14.2011 4.90344L10.0531 9.0515C9.27209 9.8325 8.00621 9.8325 7.22524 9.0515C6.96489 8.79115 6.54276 8.79115 6.28242 9.0515C6.02207 9.31184 6.02207 9.73397 6.28242 9.99432C7.58411 11.296 9.69422 11.296 10.9959 9.99432L15.1439 5.84629C16.4456 4.5446 16.4456 2.43446 15.1439 1.13277Z" fill="#606060"/>
</svg>
