<svg width="15" height="14" viewBox="0 0 15 14" fill="none" xmlns="http://www.w3.org/2000/svg">
<path d="M0.998779 2C0.998779 1.46957 1.20949 0.960859 1.58457 0.585786C1.95964 0.210714 2.46835 0 2.99878 0H11.3778C11.9082 0.000113275 12.4168 0.210901 12.7918 0.586L14.4128 2.207C14.7879 2.58199 14.9987 3.09061 14.9988 3.621V12C14.9988 12.5304 14.7881 13.0391 14.413 13.4142C14.0379 13.7893 13.5292 14 12.9988 14H2.99878C2.46835 14 1.95964 13.7893 1.58457 13.4142C1.20949 13.0391 0.998779 12.5304 0.998779 12V2ZM2.99878 1C2.73356 1 2.47921 1.10536 2.29167 1.29289C2.10414 1.48043 1.99878 1.73478 1.99878 2V12C1.99878 12.2652 2.10414 12.5196 2.29167 12.7071C2.47921 12.8946 2.73356 13 2.99878 13V8.5C2.99878 8.10218 3.15681 7.72064 3.43812 7.43934C3.71942 7.15804 4.10095 7 4.49878 7H11.4988C11.8966 7 12.2781 7.15804 12.5594 7.43934C12.8407 7.72064 12.9988 8.10218 12.9988 8.5V13C13.264 13 13.5183 12.8946 13.7059 12.7071C13.8934 12.5196 13.9988 12.2652 13.9988 12V3.621C13.9987 3.3558 13.8933 3.10149 13.7058 2.914L12.0848 1.293C11.8973 1.10545 11.643 1.00006 11.3778 1H10.9988V3.5C10.9988 3.89782 10.8407 4.27936 10.5594 4.56066C10.2781 4.84196 9.8966 5 9.49878 5H5.49878C5.10095 5 4.71942 4.84196 4.43812 4.56066C4.15681 4.27936 3.99878 3.89782 3.99878 3.5V1H2.99878ZM4.99878 1V3.5C4.99878 3.63261 5.05146 3.75979 5.14523 3.85355C5.23899 3.94732 5.36617 4 5.49878 4H9.49878C9.63139 4 9.75856 3.94732 9.85233 3.85355C9.9461 3.75979 9.99878 3.63261 9.99878 3.5V1H4.99878ZM11.9988 13V8.5C11.9988 8.36739 11.9461 8.24021 11.8523 8.14645C11.7586 8.05268 11.6314 8 11.4988 8H4.49878C4.36617 8 4.23899 8.05268 4.14523 8.14645C4.05146 8.24021 3.99878 8.36739 3.99878 8.5V13H11.9988Z" fill="#00B87C"/>
</svg>
