<svg width="24" height="25" viewBox="0 0 24 25" fill="none" xmlns="http://www.w3.org/2000/svg">
<path fill-rule="evenodd" clip-rule="evenodd" d="M12 2.5C11.7348 2.5 11.4804 2.60536 11.2929 2.79289C11.1054 2.98043 11 3.23478 11 3.5V3.67399C10.9979 4.1908 10.8448 4.69572 10.5594 5.12661C10.2741 5.5575 9.86895 5.89555 9.39393 6.09914C9.30938 6.13538 9.22042 6.15969 9.12961 6.17157C8.69798 6.32272 8.23333 6.35998 7.781 6.27796C7.26 6.18349 6.77925 5.93512 6.40074 5.56486L6.39285 5.55715L6.33289 5.49711C6.24002 5.40413 6.12934 5.32998 6.00794 5.27965C5.88654 5.22933 5.75642 5.20343 5.625 5.20343C5.49358 5.20343 5.36346 5.22933 5.24206 5.27965C5.12066 5.32998 5.01037 5.40374 4.9175 5.49671C4.82452 5.58959 4.74998 5.70066 4.69965 5.82206C4.64933 5.94346 4.62343 6.07358 4.62343 6.205C4.62343 6.33642 4.64933 6.46654 4.69965 6.58794C4.74998 6.70934 4.82374 6.81963 4.91671 6.9125L4.98491 6.98069C5.35516 7.35921 5.60349 7.84 5.69796 8.361C5.79055 8.87163 5.73113 9.39797 5.52745 9.87478C5.34189 10.3613 5.01698 10.7827 4.59305 11.0859C4.16054 11.3952 3.64498 11.5673 3.11338 11.5797L3.09 11.58H3C2.73478 11.58 2.48043 11.6854 2.29289 11.8729C2.10536 12.0604 2 12.3148 2 12.58C2 12.8452 2.10536 13.0996 2.29289 13.2871C2.48043 13.4746 2.73478 13.58 3 13.58H3.17399C3.6908 13.5821 4.19572 13.7352 4.62661 14.0206C5.05601 14.3049 5.3932 14.7082 5.59701 15.1811C5.80908 15.6643 5.87211 16.1998 5.77796 16.719C5.68349 17.24 5.43512 17.7207 5.06486 18.0993L5.05715 18.1072L4.9971 18.1671C4.90413 18.26 4.82998 18.3707 4.77965 18.4921C4.72933 18.6135 4.70343 18.7436 4.70343 18.875C4.70343 19.0064 4.72933 19.1365 4.77965 19.2579C4.82998 19.3793 4.90374 19.4896 4.99671 19.5825C5.08958 19.6755 5.20066 19.75 5.32206 19.8003C5.44346 19.8507 5.57359 19.8766 5.705 19.8766C5.83641 19.8766 5.96654 19.8507 6.08794 19.8003C6.20934 19.75 6.31963 19.6763 6.4125 19.5833L6.48069 19.5151C6.85921 19.1448 7.34 18.8965 7.861 18.802C8.37163 18.7095 8.89796 18.7689 9.37477 18.9725C9.86133 19.1581 10.2827 19.483 10.5859 19.907C10.8952 20.3395 11.0673 20.855 11.0797 21.3866L11.08 21.41V21.5C11.08 21.7652 11.1854 22.0196 11.3729 22.2071C11.5604 22.3946 11.8148 22.5 12.08 22.5C12.3452 22.5 12.5996 22.3946 12.7871 22.2071C12.9746 22.0196 13.08 21.7652 13.08 21.5V21.33L13.08 21.326C13.0821 20.8092 13.2352 20.3043 13.5206 19.8734C13.805 19.444 14.2083 19.1067 14.6812 18.9029C15.1643 18.6909 15.6998 18.6279 16.219 18.722C16.74 18.8165 17.2207 19.0649 17.5993 19.4351L17.6072 19.4429L17.6671 19.5029C17.76 19.5959 17.8707 19.67 17.9921 19.7203C18.1135 19.7707 18.2436 19.7966 18.375 19.7966C18.5064 19.7966 18.6365 19.7707 18.7579 19.7203C18.8793 19.67 18.9896 19.5963 19.0825 19.5033C19.1755 19.4104 19.25 19.2993 19.3003 19.1779C19.3507 19.0565 19.3766 18.9264 19.3766 18.795C19.3766 18.6636 19.3507 18.5335 19.3003 18.4121C19.25 18.2907 19.1763 18.1804 19.0833 18.0875L19.0151 18.0193C18.6448 17.6408 18.3965 17.16 18.302 16.639C18.2079 16.1198 18.2709 15.5843 18.4829 15.1012C18.6867 14.6283 19.024 14.225 19.4534 13.9406C19.8843 13.6552 20.3892 13.5021 20.906 13.5L20.91 13.5L21 13.5C21.2652 13.5 21.5196 13.3946 21.7071 13.2071C21.8946 13.0196 22 12.7652 22 12.5C22 12.2348 21.8946 11.9804 21.7071 11.7929C21.5196 11.6054 21.2652 11.5 21 11.5H20.83L20.826 11.5C20.3092 11.4979 19.8043 11.3448 19.3734 11.0594C18.9425 10.7741 18.6045 10.369 18.4009 9.89393C18.3646 9.80938 18.3403 9.72042 18.3284 9.62961C18.1773 9.19798 18.14 8.73333 18.222 8.281C18.3165 7.76 18.5649 7.27925 18.9351 6.90074L18.9428 6.89285L19.0029 6.8329C19.0959 6.74002 19.17 6.62934 19.2203 6.50794C19.2707 6.38654 19.2966 6.25641 19.2966 6.125C19.2966 5.99359 19.2707 5.86346 19.2203 5.74206C19.17 5.62066 19.0963 5.51037 19.0033 5.4175C18.9104 5.32452 18.7993 5.24998 18.6779 5.19965C18.5565 5.14933 18.4264 5.12343 18.295 5.12343C18.1636 5.12343 18.0335 5.14933 17.9121 5.19965C17.7907 5.24998 17.6804 5.32374 17.5875 5.41671L17.5193 5.48491C17.1408 5.85516 16.66 6.10349 16.139 6.19796C15.6198 6.29211 15.0843 6.22908 14.6011 6.01701C14.1282 5.8132 13.7249 5.47601 13.4406 5.04661C13.1552 4.61572 13.0021 4.1108 13 3.59399L13 3.59V3.5C13 3.23478 12.8946 2.98043 12.7071 2.79289C12.5196 2.60536 12.2652 2.5 12 2.5ZM9.87868 1.37868C10.4413 0.816071 11.2044 0.5 12 0.5C12.7956 0.5 13.5587 0.816071 14.1213 1.37868C14.6839 1.94129 15 2.70435 15 3.5V3.5875C15.0008 3.71374 15.0383 3.83704 15.1081 3.94232C15.178 4.04801 15.2774 4.13092 15.3939 4.18086L15.4038 4.18508C15.5226 4.23752 15.6544 4.25322 15.7822 4.23005C15.9086 4.20713 16.0253 4.14728 16.1177 4.05811L16.1725 4.00329C16.4511 3.72436 16.782 3.50308 17.1462 3.35211C17.5104 3.20113 17.9008 3.12343 18.295 3.12343C18.6892 3.12343 19.0796 3.20113 19.4438 3.35211C19.808 3.50308 20.1389 3.72436 20.4175 4.00329C20.6961 4.28174 20.9171 4.61233 21.0679 4.97618C21.2189 5.34037 21.2966 5.73075 21.2966 6.125C21.2966 6.51925 21.2189 6.90963 21.0679 7.27382C20.917 7.63784 20.6959 7.96857 20.4171 8.2471L20.3619 8.30231C20.2727 8.39468 20.2129 8.51142 20.19 8.63782C20.1668 8.76561 20.1824 8.89742 20.2349 9.01624C20.2631 9.08027 20.2845 9.14692 20.2988 9.21507C20.3461 9.28479 20.4068 9.34498 20.4777 9.39195C20.583 9.46167 20.7063 9.49921 20.8325 9.5H21C21.7957 9.5 22.5587 9.81607 23.1213 10.3787C23.6839 10.9413 24 11.7043 24 12.5C24 13.2957 23.6839 14.0587 23.1213 14.6213C22.5587 15.1839 21.7957 15.5 21 15.5H20.9125C20.7863 15.5008 20.663 15.5383 20.5577 15.6081C20.452 15.678 20.3691 15.7774 20.3191 15.8939L20.3149 15.9038C20.2625 16.0226 20.2468 16.1544 20.27 16.2822C20.2929 16.4086 20.3527 16.5253 20.4419 16.6177L20.4967 16.6725C20.7755 16.951 20.997 17.2822 21.1479 17.6462C21.2989 18.0104 21.3766 18.4008 21.3766 18.795C21.3766 19.1892 21.2989 19.5796 21.1479 19.9438C20.9969 20.308 20.7756 20.6389 20.4967 20.9175C20.2181 21.1964 19.888 21.4169 19.5238 21.5679C19.1596 21.7189 18.7692 21.7966 18.375 21.7966C17.9808 21.7966 17.5904 21.7189 17.2262 21.5679C16.8622 21.417 16.5314 21.1959 16.2529 20.9171L16.1977 20.8619C16.1053 20.7727 15.9886 20.7129 15.8622 20.69C15.7344 20.6668 15.6026 20.6824 15.4838 20.7349L15.474 20.7392C15.3574 20.7891 15.258 20.872 15.1881 20.9777C15.1183 21.083 15.0808 21.2063 15.08 21.3325V21.5C15.08 22.2957 14.7639 23.0587 14.2013 23.6213C13.6387 24.1839 12.8757 24.5 12.08 24.5C11.2843 24.5 10.5213 24.1839 9.95868 23.6213C9.39607 23.0587 9.08 22.2957 9.08 21.5V21.4244C9.07526 21.2972 9.03327 21.1741 8.95914 21.0704C8.88326 20.9644 8.77723 20.8836 8.65482 20.8385C8.63505 20.8313 8.61551 20.8234 8.59624 20.8149C8.47742 20.7624 8.34561 20.7468 8.21782 20.77C8.09142 20.7929 7.97467 20.8527 7.8823 20.9419L7.8275 20.9967C7.54896 21.2755 7.21784 21.497 6.85382 21.6479C6.48963 21.7989 6.09925 21.8766 5.705 21.8766C5.31075 21.8766 4.92037 21.7989 4.55618 21.6479C4.19233 21.4971 3.86174 21.2761 3.58329 20.9975C3.30436 20.7189 3.08308 20.388 2.93211 20.0238C2.78113 19.6596 2.70343 19.2692 2.70343 18.875C2.70343 18.4808 2.78113 18.0904 2.93211 17.7262C3.08308 17.362 3.30436 17.0311 3.58329 16.7525L3.63811 16.6977C3.72728 16.6053 3.78713 16.4886 3.81005 16.3622C3.83322 16.2344 3.81758 16.1026 3.76514 15.9838L3.76081 15.974C3.71087 15.8574 3.62801 15.758 3.52232 15.6881C3.41704 15.6183 3.29374 15.5808 3.1675 15.58H3C2.20435 15.58 1.44129 15.2639 0.87868 14.7013C0.316071 14.1387 0 13.3756 0 12.58C0 11.7844 0.316071 11.0213 0.87868 10.4587C1.44129 9.89607 2.20435 9.58 3 9.58H3.07564C3.20283 9.57526 3.32591 9.53327 3.42955 9.45914C3.53564 9.38327 3.61644 9.27723 3.66146 9.15482C3.66874 9.13505 3.67663 9.11551 3.68514 9.09624C3.73758 8.97742 3.75322 8.84561 3.73005 8.71782C3.70713 8.59142 3.64728 8.47468 3.5581 8.38231L3.50329 8.3275C3.22436 8.04888 3.00308 7.71802 2.85211 7.35382C2.70113 6.98963 2.62343 6.59925 2.62343 6.205C2.62343 5.81075 2.70113 5.42037 2.85211 5.05618C3.00301 4.69216 3.22415 4.36143 3.50289 4.08289C3.78143 3.80415 4.11216 3.58301 4.47618 3.43211C4.84037 3.28113 5.23075 3.20343 5.625 3.20343C6.01925 3.20343 6.40963 3.28113 6.77382 3.43211C7.13802 3.58308 7.46888 3.80436 7.7475 4.08329L7.80231 4.1381C7.89468 4.22728 8.01142 4.28713 8.13782 4.31005C8.26561 4.33322 8.39742 4.31758 8.51624 4.26514C8.58027 4.23687 8.64693 4.21549 8.71507 4.20122C8.78479 4.1539 8.84498 4.09323 8.89195 4.02232C8.96167 3.91704 8.99921 3.79374 9 3.6675V3.5C9 2.70435 9.31607 1.94129 9.87868 1.37868ZM12 10.5C10.8954 10.5 10 11.3954 10 12.5C10 13.6046 10.8954 14.5 12 14.5C13.1046 14.5 14 13.6046 14 12.5C14 11.3954 13.1046 10.5 12 10.5ZM8 12.5C8 10.2909 9.79086 8.5 12 8.5C14.2091 8.5 16 10.2909 16 12.5C16 14.7091 14.2091 16.5 12 16.5C9.79086 16.5 8 14.7091 8 12.5Z" fill="#999999"/>
</svg>
