<svg width="26" height="18" viewBox="0 0 26 18" fill="none" xmlns="http://www.w3.org/2000/svg">
<path d="M0.777344 2.77002C0.777344 2.14842 1.02427 1.55228 1.46381 1.11274C1.90335 0.6732 2.49949 0.42627 3.12109 0.42627H23.4336C24.0552 0.42627 24.6513 0.6732 25.0909 1.11274C25.5304 1.55228 25.7773 2.14842 25.7773 2.77002V15.27C25.7773 15.8916 25.5304 16.4878 25.0909 16.9273C24.6513 17.3668 24.0552 17.6138 23.4336 17.6138H3.12109C2.49949 17.6138 1.90335 17.3668 1.46381 16.9273C1.02427 16.4878 0.777344 15.8916 0.777344 15.27L0.777344 2.77002ZM3.12109 1.98877C2.91389 1.98877 2.71518 2.07108 2.56867 2.21759C2.42215 2.36411 2.33984 2.56282 2.33984 2.77002V8.23877H8.58984V1.98877H3.12109ZM8.58984 9.80127H2.33984V15.27C2.33984 15.4772 2.42215 15.6759 2.56867 15.8224C2.71518 15.969 2.91389 16.0513 3.12109 16.0513H8.58984V9.80127ZM10.1523 9.80127V16.0513H16.4023V9.80127H10.1523ZM16.4023 8.23877V1.98877H10.1523V8.23877H16.4023ZM17.9648 9.80127V16.0513H23.4336C23.6408 16.0513 23.8395 15.969 23.986 15.8224C24.1325 15.6759 24.2148 15.4772 24.2148 15.27V9.80127H17.9648ZM17.9648 8.23877H24.2148V2.77002C24.2148 2.56282 24.1325 2.36411 23.986 2.21759C23.8395 2.07108 23.6408 1.98877 23.4336 1.98877H17.9648V8.23877Z" fill="#B4B4B4"/>
</svg>
