<svg width="19" height="20" viewBox="0 0 19 20" fill="none" xmlns="http://www.w3.org/2000/svg">
<path fill-rule="evenodd" clip-rule="evenodd" d="M2.43579 5.20514C2.43579 3.54828 3.77894 2.20514 5.43579 2.20514H13.564C15.2209 2.20514 16.564 3.54828 16.564 5.20514V14.0641C16.564 15.721 15.2209 17.0641 13.564 17.0641H5.43579C3.77894 17.0641 2.43579 15.721 2.43579 14.0641V5.20514Z" stroke="#1A61DB" stroke-linecap="round" stroke-linejoin="round"/>
<path fill-rule="evenodd" clip-rule="evenodd" d="M6.6379 8.51989C7.24329 8.51989 7.73405 7.96511 7.73405 7.28076C7.73405 6.5964 7.24329 6.04163 6.6379 6.04163C6.03251 6.04163 5.54175 6.5964 5.54175 7.28076C5.54175 7.96511 6.03251 8.51989 6.6379 8.51989Z" stroke="#1A61DB" stroke-linecap="round" stroke-linejoin="round"/>
<path d="M16.6247 11.4701L12.6663 7.51178L3.95801 16.2201" stroke="#1A61DB" stroke-linecap="round" stroke-linejoin="round"/>
</svg>
