<svg width="79" height="70" viewBox="0 0 79 70" fill="none" xmlns="http://www.w3.org/2000/svg">
<path fill-rule="evenodd" clip-rule="evenodd" d="M10.5156 12.655C10.5156 9.34132 13.2019 6.65503 16.5156 6.65503H62.5156C65.8293 6.65503 68.5156 9.34132 68.5156 12.655V54.6166C68.5156 57.9303 65.8293 60.6166 62.5156 60.6166H16.5156C13.2019 60.6166 10.5156 57.9303 10.5156 54.6166V12.655Z" stroke="#1A61DB" stroke-width="2" stroke-linecap="round" stroke-linejoin="round"/>
<path fill-rule="evenodd" clip-rule="evenodd" d="M27.7656 29.5874C30.2509 29.5874 32.2656 27.5727 32.2656 25.0874C32.2656 22.6021 30.2509 20.5874 27.7656 20.5874C25.2803 20.5874 23.2656 22.6021 23.2656 25.0874C23.2656 27.5727 25.2803 29.5874 27.7656 29.5874Z" stroke="#1A61DB" stroke-width="2" stroke-linecap="round" stroke-linejoin="round"/>
<path d="M68.7656 43.5874L52.5156 29.2124L16.7656 60.8374" stroke="#1A61DB" stroke-width="2" stroke-linecap="round" stroke-linejoin="round"/>
</svg>
