<svg width="16" height="16" viewBox="0 0 16 16" fill="none" xmlns="http://www.w3.org/2000/svg">
<path d="M6.63101 12.1952L4.74565 14.0806C3.96402 14.8622 2.69823 14.8622 1.91726 14.0807C1.13613 13.2996 1.13613 12.0337 1.9171 11.2527L5.68847 7.48135C6.46944 6.70034 7.73536 6.70034 8.51633 7.48135C8.77668 7.74169 9.1988 7.74169 9.45915 7.48135C9.71949 7.221 9.71949 6.79887 9.45915 6.53853C8.15745 5.23683 6.04735 5.23683 4.74565 6.53853L0.974318 10.3099C-0.327377 11.6116 -0.327377 13.7217 0.974318 15.0234C2.27586 16.3257 4.38612 16.3257 5.6885 15.0234L7.57386 13.138C7.8342 12.8777 7.8342 12.4555 7.57386 12.1952C7.31351 11.9348 6.89135 11.9349 6.63101 12.1952Z" fill="#00B87C"/>
<path d="M15.0209 0.976699C13.7192 -0.324997 11.6084 -0.324997 10.3067 0.976699L8.04469 3.23871C7.78435 3.49906 7.78435 3.92118 8.04469 4.18153C8.30504 4.44188 8.72717 4.44188 8.98751 4.18153L11.2495 1.91952C12.0305 1.13851 13.2971 1.13851 14.0781 1.91952C14.859 2.70049 14.859 3.9664 14.0781 4.74738L9.93005 8.89543C9.14904 9.67644 7.88316 9.67644 7.10219 8.89543C6.84184 8.63509 6.41972 8.63509 6.15937 8.89543C5.89903 9.15578 5.89903 9.5779 6.15937 9.83825C7.46107 11.1399 9.57117 11.1399 10.8729 9.83825L15.0209 5.69023C16.3226 4.38853 16.3226 2.27839 15.0209 0.976699Z" fill="#00B87C"/>
</svg>
