<svg width="23" height="23" viewBox="0 0 23 23" fill="none" xmlns="http://www.w3.org/2000/svg">
<path d="M4.90234 6.48877H18.6523C19.3817 6.48877 20.0812 6.7785 20.5969 7.29423C21.1126 7.80995 21.4023 8.50942 21.4023 9.23877V13.3638C21.4023 14.0931 21.1126 14.7926 20.5969 15.3083C20.0812 15.824 19.3817 16.1138 18.6523 16.1138H4.90234C4.173 16.1138 3.47353 15.824 2.9578 15.3083C2.44208 14.7926 2.15234 14.0931 2.15234 13.3638V9.23877C2.15234 8.50942 2.44208 7.80995 2.9578 7.29423C3.47353 6.7785 4.173 6.48877 4.90234 6.48877ZM4.90234 7.86377C4.53767 7.86377 4.18793 8.00864 3.93007 8.2665C3.67221 8.52436 3.52734 8.8741 3.52734 9.23877V13.3638C3.52734 13.7284 3.67221 14.0782 3.93007 14.336C4.18793 14.5939 4.53767 14.7388 4.90234 14.7388H18.6523C19.017 14.7388 19.3668 14.5939 19.6246 14.336C19.8825 14.0782 20.0273 13.7284 20.0273 13.3638V9.23877C20.0273 8.8741 19.8825 8.52436 19.6246 8.2665C19.3668 8.00864 19.017 7.86377 18.6523 7.86377H4.90234ZM2.15234 3.05127C2.15234 2.86893 2.22478 2.69406 2.35371 2.56513C2.48264 2.4362 2.65751 2.36377 2.83984 2.36377H20.7148C20.8972 2.36377 21.072 2.4362 21.201 2.56513C21.3299 2.69406 21.4023 2.86893 21.4023 3.05127C21.4023 3.23361 21.3299 3.40847 21.201 3.53741C21.072 3.66634 20.8972 3.73877 20.7148 3.73877H2.83984C2.65751 3.73877 2.48264 3.66634 2.35371 3.53741C2.22478 3.40847 2.15234 3.23361 2.15234 3.05127ZM2.15234 19.5513C2.15234 19.3689 2.22478 19.1941 2.35371 19.0651C2.48264 18.9362 2.65751 18.8638 2.83984 18.8638H20.7148C20.8972 18.8638 21.072 18.9362 21.201 19.0651C21.3299 19.1941 21.4023 19.3689 21.4023 19.5513C21.4023 19.7336 21.3299 19.9085 21.201 20.0374C21.072 20.1663 20.8972 20.2388 20.7148 20.2388H2.83984C2.65751 20.2388 2.48264 20.1663 2.35371 20.0374C2.22478 19.9085 2.15234 19.7336 2.15234 19.5513Z" fill="#B4B4B4"/>
</svg>
