<svg width="106" height="34" viewBox="0 0 106 34" fill="none" xmlns="http://www.w3.org/2000/svg">
<path d="M49.2294 9.40885C49.2294 9.58581 49.1987 9.76661 49.1371 9.95126C49.0833 10.1282 49.0025 10.2936 48.8948 10.4475L40.6317 22.1727H48.9986V24.8848H36.1886V23.5345C36.1886 23.3729 36.2155 23.2152 36.2694 23.0614C36.3232 22.8998 36.4002 22.7536 36.5002 22.6228L44.7863 10.8514H36.7772V8.13939H49.2294V9.40885ZM63.8912 22.115C64.4528 22.115 64.9568 22.0227 65.403 21.8381C65.8493 21.6457 66.2262 21.3764 66.534 21.0302C66.8417 20.684 67.0764 20.2647 67.238 19.7723C67.3995 19.2799 67.4803 18.7259 67.4803 18.1104V8.13939H70.9425V18.1104C70.9425 19.126 70.7771 20.0608 70.4462 20.9148C70.1231 21.7611 69.6576 22.492 69.0498 23.1075C68.442 23.723 67.7034 24.2039 66.834 24.5501C65.9647 24.8963 64.9837 25.0694 63.8912 25.0694C62.7987 25.0694 61.8139 24.8963 60.9368 24.5501C60.0674 24.2039 59.3288 23.723 58.721 23.1075C58.1132 22.492 57.6439 21.7611 57.3131 20.9148C56.9899 20.0608 56.8284 19.126 56.8284 18.1104V8.13939H60.2905V18.1104C60.2905 18.7259 60.3713 19.2799 60.5329 19.7723C60.6945 20.2647 60.9291 20.684 61.2369 21.0302C61.5446 21.3764 61.9216 21.6457 62.3678 21.8381C62.8141 22.0227 63.3219 22.115 63.8912 22.115ZM84.9509 16.0678C85.5126 16.0678 85.9973 15.9985 86.4051 15.86C86.8128 15.7139 87.1475 15.5177 87.4091 15.2715C87.6707 15.0176 87.863 14.7214 87.9861 14.3828C88.1092 14.0443 88.1708 13.675 88.1708 13.2749C88.1708 12.4825 87.9053 11.867 87.3745 11.4285C86.8513 10.9899 86.0512 10.7706 84.974 10.7706H83.1737V16.0678H84.9509ZM93.064 24.8848H89.9365C89.3518 24.8848 88.9286 24.6616 88.667 24.2154L85.4818 19.0799C85.351 18.8798 85.2048 18.7336 85.0433 18.6413C84.8894 18.549 84.6586 18.5028 84.3508 18.5028H83.1737V24.8848H79.7115V8.13939H84.974C86.1435 8.13939 87.1437 8.26249 87.9746 8.50869C88.8055 8.74719 89.4864 9.08187 90.0173 9.51272C90.5481 9.94357 90.9367 10.459 91.1829 11.0592C91.4291 11.6516 91.5522 12.3055 91.5522 13.0211C91.5522 13.575 91.4714 14.102 91.3098 14.6021C91.1559 15.0945 90.929 15.5446 90.6289 15.9524C90.3289 16.3601 89.9596 16.7217 89.521 17.0372C89.0825 17.3526 88.5824 17.6065 88.0207 17.7989C88.2439 17.922 88.4516 18.072 88.6439 18.2489C88.8363 18.4182 89.0094 18.6221 89.1633 18.8606L93.064 24.8848ZM103.663 24.8848H100.178V8.13939H103.663V24.8848Z" fill="#393939"/>
<rect x="4.53003" y="0.884766" width="11.7504" height="12.4946" rx="1.0991" fill="#00B87C"/>
<rect x="0.613281" y="15.1641" width="11.7504" height="12.4946" rx="1.0991" fill="#FEA162"/>
<rect x="17.959" y="6.83496" width="11.7504" height="12.4946" rx="1.0991" fill="#1A61DB"/>
<rect x="14.042" y="21.1143" width="11.7504" height="12.4946" rx="1.0991" fill="#DC1AA3"/>
</svg>
