<svg width="25" height="25" viewBox="0 0 25 25" fill="none" xmlns="http://www.w3.org/2000/svg">
<path fill-rule="evenodd" clip-rule="evenodd" d="M13.8962 2.33691H6.89624C5.79167 2.33691 4.89624 3.23234 4.89624 4.33691V20.3369C4.89624 21.4415 5.79167 22.3369 6.89624 22.3369H18.8962C20.0008 22.3369 20.8962 21.4415 20.8962 20.3369V9.33691L13.8962 2.33691Z" stroke="#C8643C" stroke-width="1.22693" stroke-linecap="round" stroke-linejoin="round"/>
<path d="M13.8965 2.33691V9.33692H20.8965" stroke="#C8643C" stroke-width="1.22693" stroke-linecap="round" stroke-linejoin="round"/>
<path d="M9.52979 18.4887C9.57369 18.4887 9.83703 18.353 10.3278 17.4473C9.68142 17.8104 9.41807 18.1096 9.39812 18.2772C9.39413 18.3051 9.38615 18.3809 9.52979 18.4887Z" fill="#C76641"/>
<path d="M8.89889 18.2216C8.95475 17.7308 9.56522 17.2121 10.7104 16.6894C11.1836 15.6385 11.5667 14.5493 11.8555 13.4336C11.5523 12.7752 11.261 11.9214 11.4565 11.4386C11.4827 11.3557 11.5271 11.2797 11.5865 11.2161C11.6458 11.1526 11.7187 11.1032 11.7996 11.0715C11.9032 11.0372 12.0103 11.0145 12.1188 11.0037C12.2705 11.0037 12.4061 11.1992 12.5178 11.3229C12.6296 11.4466 12.8091 11.678 12.4061 13.3817C12.8073 14.2149 13.326 14.9862 13.9463 15.672C14.2816 15.6066 14.6221 15.5705 14.9637 15.5643C15.4385 15.5643 15.7258 15.676 15.8415 15.9034C15.887 16.0124 15.8999 16.1322 15.8786 16.2483C15.8574 16.3645 15.8029 16.472 15.7218 16.5578C15.6488 16.6687 15.5492 16.7596 15.4322 16.8223C15.3151 16.885 15.1843 16.9175 15.0515 16.9169C14.5558 16.8543 14.1015 16.608 13.7787 16.2266C12.8621 16.4241 11.9668 16.71 11.1054 17.0805C10.9019 17.5286 10.6603 17.9585 10.3832 18.3653C10.072 18.8002 9.80462 19.0037 9.54128 19.0037C9.43596 19.0028 9.33375 18.9678 9.25001 18.9039C9.13361 18.8343 9.03903 18.7335 8.97697 18.6129C8.91491 18.4923 8.88786 18.3568 8.89889 18.2216Z" fill="#C76641"/>
<path d="M12.1945 14.1118C11.9715 14.8896 11.7051 15.6542 11.3965 16.4021C12.0336 16.1546 12.6868 15.9507 13.3516 15.7916C12.9116 15.2711 12.5241 14.7084 12.1945 14.1118Z" fill="#FED4D4"/>
</svg>
