<svg width="20" height="21" viewBox="0 0 20 21" fill="none" xmlns="http://www.w3.org/2000/svg">
<path d="M10.8333 2.16663V7.99996H16.6666" stroke="#C8643C" stroke-width="1.22693" stroke-linecap="round" stroke-linejoin="round"/>
<path fill-rule="evenodd" clip-rule="evenodd" d="M10.8333 2.16669H4.99992C4.07944 2.16669 3.33325 2.91288 3.33325 3.83335V17.1667C3.33325 18.0872 4.07944 18.8334 4.99992 18.8334H14.9999C15.9204 18.8334 16.6666 18.0872 16.6666 17.1667V8.00002L10.8333 2.16669Z" stroke="#C8643C" stroke-width="1.22693" stroke-linecap="round" stroke-linejoin="round"/>
<path d="M10.4165 10.5C10.6856 10.5 10.9444 10.5347 11.1929 10.6042C11.4414 10.6736 11.6736 10.7718 11.8896 10.8986C12.1055 11.0256 12.3018 11.1776 12.4784 11.3544C12.6555 11.5313 12.8074 11.7277 12.9343 11.9436C13.0613 12.1595 13.1596 12.3918 13.229 12.6403C13.2984 12.8888 13.3332 13.1476 13.3332 13.4167C13.3332 13.6857 13.2984 13.9445 13.229 14.1931C13.1596 14.4416 13.0614 14.6738 12.9346 14.8897C12.8075 15.1056 12.6556 15.3019 12.4787 15.4786C12.3019 15.6556 12.1055 15.8076 11.8896 15.9344C11.6736 16.0615 11.4414 16.1597 11.1929 16.2292C10.9444 16.2986 10.6856 16.3333 10.4165 16.3333C10.1776 16.3333 9.94428 16.3051 9.7165 16.2486C9.48873 16.1923 9.27234 16.1105 9.06734 16.0031C8.86215 15.8956 8.67113 15.7644 8.49428 15.6092C8.31743 15.454 8.16067 15.2787 8.024 15.0833H6.94345C6.86734 15.0833 6.80215 15.0562 6.74789 15.0019C6.69363 14.9477 6.6665 14.8826 6.6665 14.8067V12.0267C6.6665 11.9507 6.69363 11.8856 6.74789 11.8314C6.80215 11.7771 6.86724 11.75 6.94317 11.75H8.02373C8.16058 11.5546 8.31743 11.3794 8.49428 11.2242C8.67113 11.0692 8.86215 10.9379 9.06734 10.8303C9.27234 10.7229 9.48873 10.641 9.7165 10.5847C9.94428 10.5282 10.1776 10.5 10.4165 10.5ZM10.6248 10.9264V13.2083H12.9068C12.8809 12.9046 12.8044 12.6198 12.6773 12.3539C12.5503 12.088 12.3853 11.8536 12.1823 11.6508C11.9796 11.4479 11.7447 11.2829 11.4776 11.1558C11.2108 11.029 10.9265 10.9525 10.6248 10.9264ZM9.16317 13.0292C9.16317 12.9032 9.14206 12.7953 9.09984 12.7053C9.05743 12.6153 8.99937 12.5421 8.92567 12.4858C8.85178 12.4294 8.76493 12.3881 8.66512 12.3619C8.5653 12.336 8.45678 12.3231 8.33956 12.3231H7.45762V14.5072H7.96873V13.7456H8.31373C8.42002 13.7456 8.52363 13.7298 8.62456 13.6983C8.72549 13.6669 8.81604 13.6212 8.89623 13.5614C8.9766 13.5018 9.04123 13.4275 9.09012 13.3386C9.13882 13.2497 9.16317 13.1466 9.16317 13.0292ZM10.4165 15.9167C10.6335 15.9167 10.843 15.8901 11.0448 15.8369C11.2467 15.7838 11.4371 15.7079 11.6159 15.6092C11.795 15.5103 11.9595 15.3919 12.1093 15.2542C12.2589 15.1164 12.3902 14.9623 12.5032 14.7919C12.6161 14.6216 12.7072 14.4377 12.7765 14.2403C12.8459 14.0427 12.8894 13.8365 12.9068 13.6217H10.2115V10.9264C9.89021 10.9523 9.58743 11.0364 9.30317 11.1786C9.01891 11.3208 8.76937 11.5113 8.55456 11.75H9.72317C9.7991 11.75 9.86419 11.7771 9.91845 11.8314C9.97271 11.8856 9.99984 11.9507 9.99984 12.0267V14.8067C9.99984 14.8826 9.97271 14.9477 9.91845 15.0019C9.86419 15.0562 9.7991 15.0833 9.72317 15.0833H8.55456C8.67382 15.2157 8.80456 15.3334 8.94678 15.4364C9.089 15.5395 9.23928 15.6269 9.39762 15.6986C9.55595 15.7703 9.72086 15.8245 9.89234 15.8614C10.064 15.8982 10.2387 15.9167 10.4165 15.9167ZM8.28095 12.7494C8.38743 12.7494 8.47215 12.7706 8.53512 12.8128C8.59808 12.8552 8.62956 12.9328 8.62956 13.0456C8.62956 13.0956 8.61808 13.1363 8.59512 13.1678C8.57234 13.1993 8.54363 13.2247 8.509 13.2442C8.47419 13.2636 8.43512 13.2771 8.39178 13.2847C8.34845 13.2923 8.30724 13.2961 8.26817 13.2961H7.96845V12.7494H8.28095Z" fill="#C8643C"/>
</svg>
