<svg width="20" height="21" viewBox="0 0 20 21" fill="none" xmlns="http://www.w3.org/2000/svg">
<path fill-rule="evenodd" clip-rule="evenodd" d="M11.6666 2.16663H4.99992C4.07944 2.16663 3.33325 2.91282 3.33325 3.83329V17.1666C3.33325 18.0871 4.07944 18.8333 4.99992 18.8333H14.9999C15.9204 18.8333 16.6666 18.0871 16.6666 17.1666V7.16663L11.6666 2.16663Z" stroke="#5783CE" stroke-width="1.22693" stroke-linecap="round" stroke-linejoin="round"/>
<path d="M11.6665 2.16663V7.16663H16.6665" stroke="#5783CE" stroke-width="1.22693" stroke-linecap="round" stroke-linejoin="round"/>
<path d="M8.64598 12.2773C8.86582 12.2773 9.02642 12.2227 9.12776 12.1135C9.23067 12.0044 9.28212 11.855 9.28212 11.6656C9.28212 11.5789 9.26886 11.5002 9.24236 11.4296C9.21741 11.3573 9.17843 11.2963 9.12542 11.2466C9.07397 11.1952 9.00849 11.1558 8.92897 11.1286C8.84945 11.1013 8.75512 11.0876 8.64598 11.0876H8.20162V12.2773H8.64598ZM8.64598 10.5385C8.8783 10.5385 9.07865 10.5666 9.24704 10.6228C9.41698 10.679 9.55653 10.7577 9.66567 10.8588C9.77481 10.9584 9.85511 11.0772 9.90656 11.2152C9.95957 11.3533 9.98608 11.5034 9.98608 11.6656C9.98608 11.8374 9.95879 11.9947 9.90422 12.1376C9.84965 12.2805 9.76702 12.4033 9.65632 12.5061C9.54562 12.6088 9.40607 12.6891 9.23768 12.7469C9.06929 12.8031 8.87206 12.8312 8.64598 12.8312H8.20162V14.0329H7.5V10.5385H8.64598Z" fill="#5783CE"/>
<path d="M12.2708 11.208C12.249 11.245 12.2264 11.2722 12.203 11.2899C12.1812 11.306 12.1523 11.314 12.1164 11.314C12.0821 11.314 12.0447 11.3019 12.0042 11.2779C11.9652 11.2522 11.9192 11.2249 11.8662 11.196C11.8132 11.1671 11.7524 11.1406 11.6838 11.1165C11.6152 11.0908 11.5349 11.078 11.4429 11.078C11.2807 11.078 11.1591 11.1157 11.078 11.1912C10.997 11.265 10.9564 11.3622 10.9564 11.4826C10.9564 11.5596 10.9783 11.6238 11.0219 11.6752C11.0671 11.725 11.1256 11.7683 11.1973 11.8053C11.2706 11.8422 11.3532 11.8751 11.4452 11.904C11.5372 11.9329 11.6315 11.965 11.7282 12.0003C11.8249 12.0341 11.9192 12.0742 12.0112 12.1207C12.1032 12.1673 12.1851 12.2259 12.2568 12.2966C12.3301 12.3672 12.3885 12.4539 12.4322 12.5566C12.4774 12.6578 12.5 12.7814 12.5 12.9275C12.5 13.0865 12.4727 13.2358 12.4181 13.3754C12.3651 13.5135 12.288 13.6347 12.1866 13.7391C12.0853 13.8418 11.9598 13.9229 11.8101 13.9823C11.662 14.0417 11.4936 14.0714 11.3049 14.0714C11.1973 14.0714 11.0897 14.0602 10.9822 14.0377C10.8761 14.0152 10.7732 13.9839 10.6734 13.9438C10.5752 13.9037 10.4824 13.8555 10.3951 13.7993C10.3078 13.7431 10.2314 13.6805 10.1659 13.6115L10.3717 13.2695C10.3889 13.2438 10.4115 13.2229 10.4396 13.2069C10.4676 13.1892 10.4973 13.1804 10.5284 13.1804C10.5705 13.1804 10.615 13.1964 10.6618 13.2285C10.7085 13.2607 10.7623 13.296 10.8231 13.3345C10.8839 13.373 10.9541 13.4084 11.0336 13.4405C11.1147 13.4726 11.2114 13.4886 11.3236 13.4886C11.4873 13.4886 11.6136 13.4501 11.7025 13.373C11.7929 13.296 11.8381 13.1812 11.8381 13.0287C11.8381 12.9404 11.8155 12.8689 11.7703 12.8143C11.7267 12.7597 11.669 12.714 11.5972 12.6771C11.5255 12.6401 11.4437 12.6088 11.3517 12.5831C11.2597 12.5558 11.1654 12.5261 11.0687 12.494C10.972 12.4619 10.8777 12.4234 10.7857 12.3784C10.6937 12.3335 10.6119 12.2741 10.5401 12.2002C10.4684 12.1264 10.4099 12.0349 10.3647 11.9257C10.3211 11.8165 10.2992 11.6808 10.2992 11.5187C10.2992 11.3886 10.3242 11.2626 10.3741 11.1406C10.424 11.0186 10.4973 10.9102 10.5939 10.8155C10.6906 10.7208 10.8091 10.6445 10.9494 10.5867C11.0913 10.5289 11.2535 10.5 11.4359 10.5C11.6401 10.5 11.8288 10.5329 12.0018 10.5987C12.1765 10.663 12.3238 10.7529 12.4439 10.8685L12.2708 11.208Z" fill="#5783CE"/>
</svg>
