<svg width="19" height="19" viewBox="0 0 19 19" fill="none" xmlns="http://www.w3.org/2000/svg">
<path fill-rule="evenodd" clip-rule="evenodd" d="M4.62109 7.50586C5.86373 7.50586 6.87109 6.4985 6.87109 5.25586C6.87109 4.01322 5.86373 3.00586 4.62109 3.00586C3.37845 3.00586 2.37109 4.01322 2.37109 5.25586C2.37109 6.4985 3.37845 7.50586 4.62109 7.50586Z" stroke="#606060" stroke-width="1.22693" stroke-linecap="round" stroke-linejoin="round"/>
<path fill-rule="evenodd" clip-rule="evenodd" d="M4.62109 16.5059C5.86373 16.5059 6.87109 15.4985 6.87109 14.2559C6.87109 13.0132 5.86373 12.0059 4.62109 12.0059C3.37845 12.0059 2.37109 13.0132 2.37109 14.2559C2.37109 15.4985 3.37845 16.5059 4.62109 16.5059Z" stroke="#606060" stroke-width="1.22693" stroke-linecap="round" stroke-linejoin="round"/>
<path d="M15.1212 3.75586L6.21118 12.6659" stroke="#606060" stroke-width="1.22693" stroke-linecap="round" stroke-linejoin="round"/>
<path d="M10.9736 11.6157L15.1211 15.7557" stroke="#606060" stroke-width="1.22693" stroke-linecap="round" stroke-linejoin="round"/>
<path d="M6.21118 6.8457L9.12118 9.7557" stroke="#606060" stroke-width="1.22693" stroke-linecap="round" stroke-linejoin="round"/>
</svg>
