<svg width="50" height="54" viewBox="0 0 50 54" fill="none" xmlns="http://www.w3.org/2000/svg">
<path d="M35.4193 46.5207V42.0901C35.4193 37.1963 31.6883 33.229 27.0859 33.229H10.4193C5.8169 33.229 2.08594 37.1963 2.08594 42.0901V46.5207" stroke="#00B87C" stroke-width="2" stroke-linecap="round" stroke-linejoin="round"/>
<path fill-rule="evenodd" clip-rule="evenodd" d="M18.7493 24.3677C23.3517 24.3677 27.0827 20.4005 27.0827 15.5066C27.0827 10.6128 23.3517 6.64551 18.7493 6.64551C14.147 6.64551 10.416 10.6128 10.416 15.5066C10.416 20.4005 14.147 24.3677 18.7493 24.3677Z" stroke="#00B87C" stroke-width="2" stroke-linecap="round" stroke-linejoin="round"/>
<path d="M47.915 46.5208V42.0902C47.9122 38.052 45.3421 34.5266 41.665 33.5171" stroke="#00B87C" stroke-width="2" stroke-linecap="round" stroke-linejoin="round"/>
<path d="M33.335 6.93359C37.0223 7.93749 39.6013 11.4705 39.6013 15.5178C39.6013 19.5651 37.0223 23.0981 33.335 24.102" stroke="#00B87C" stroke-width="2" stroke-linecap="round" stroke-linejoin="round"/>
</svg>
