<svg width="17" height="17" viewBox="0 0 17 17" fill="none" xmlns="http://www.w3.org/2000/svg">
<path fill-rule="evenodd" clip-rule="evenodd" d="M12.1211 6.28931C13.2257 6.28931 14.1211 5.39388 14.1211 4.28931C14.1211 3.18474 13.2257 2.28931 12.1211 2.28931C11.0165 2.28931 10.1211 3.18474 10.1211 4.28931C10.1211 5.39388 11.0165 6.28931 12.1211 6.28931Z" stroke="#606060" stroke-width="1.22693" stroke-linecap="round" stroke-linejoin="round"/>
<path fill-rule="evenodd" clip-rule="evenodd" d="M4.12109 10.9561C5.22566 10.9561 6.12109 10.0606 6.12109 8.95606C6.12109 7.85149 5.22566 6.95605 4.12109 6.95605C3.01652 6.95605 2.12109 7.85149 2.12109 8.95606C2.12109 10.0606 3.01652 10.9561 4.12109 10.9561Z" stroke="#606060" stroke-width="1.22693" stroke-linecap="round" stroke-linejoin="round"/>
<path fill-rule="evenodd" clip-rule="evenodd" d="M12.1211 15.6226C13.2257 15.6226 14.1211 14.7271 14.1211 13.6226C14.1211 12.518 13.2257 11.6226 12.1211 11.6226C11.0165 11.6226 10.1211 12.518 10.1211 13.6226C10.1211 14.7271 11.0165 15.6226 12.1211 15.6226Z" stroke="#606060" stroke-width="1.22693" stroke-linecap="round" stroke-linejoin="round"/>
<path d="M5.84766 9.96265L10.401 12.616" stroke="#606060" stroke-width="1.22693" stroke-linecap="round" stroke-linejoin="round"/>
<path d="M10.3943 5.2959L5.84766 7.94923" stroke="#606060" stroke-width="1.22693" stroke-linecap="round" stroke-linejoin="round"/>
</svg>
