<svg width="17" height="17" viewBox="0 0 17 17" fill="none" xmlns="http://www.w3.org/2000/svg">
<path d="M3.45438 16.5559C3.59343 16.5557 3.72892 16.512 3.84188 16.4309L8.12094 13.375L12.4 16.4309C12.511 16.5097 12.6434 16.5527 12.7795 16.554C12.9156 16.5553 13.0489 16.515 13.1614 16.4384C13.2739 16.3618 13.3603 16.2525 13.4089 16.1254C13.4575 15.9983 13.4661 15.8593 13.4334 15.7272L12.1916 10.76L15.9256 7.02719C16.0189 6.93399 16.0825 6.8152 16.1082 6.68587C16.134 6.55654 16.1208 6.42247 16.0704 6.30063C16.0199 6.17878 15.9345 6.07464 15.8248 6.00138C15.7152 5.92812 15.5863 5.88904 15.4544 5.88906H10.5831L8.74594 0.988439C8.69834 0.861327 8.61306 0.751778 8.50151 0.67444C8.38996 0.597103 8.25746 0.555664 8.12172 0.555664C7.98599 0.555664 7.85349 0.597103 7.74194 0.67444C7.63039 0.751778 7.54511 0.861327 7.4975 0.988439L5.65969 5.88906H0.787504C0.65563 5.88904 0.52671 5.92812 0.417057 6.00138C0.307405 6.07464 0.221947 6.17878 0.171496 6.30063C0.121046 6.42247 0.107872 6.55654 0.133639 6.68587C0.159407 6.8152 0.22296 6.93399 0.316255 7.02719L4.04938 10.7603L2.80844 15.7272C2.7838 15.8254 2.78187 15.928 2.8028 16.0271C2.82373 16.1262 2.86697 16.2193 2.92924 16.2991C2.9915 16.379 3.07116 16.4437 3.16216 16.4882C3.25315 16.5327 3.35309 16.5559 3.45438 16.5559ZM8.12094 11.8891C7.9819 11.8893 7.84641 11.933 7.73344 12.0141L4.54032 14.2953L5.43344 10.7175C5.46138 10.6058 5.45992 10.4888 5.4292 10.3778C5.39848 10.2669 5.33954 10.1658 5.25813 10.0844L2.39625 7.2225H6.12094C6.25677 7.22264 6.3894 7.1813 6.50109 7.10401C6.61278 7.02672 6.69821 6.91716 6.74594 6.79L8.12094 3.12125L9.49594 6.79C9.54368 6.91716 9.62911 7.02672 9.7408 7.10401C9.85249 7.1813 9.98512 7.22264 10.1209 7.2225H13.8447L10.9828 10.0844C10.9016 10.1659 10.8428 10.267 10.8123 10.378C10.7817 10.4889 10.7804 10.6059 10.8084 10.7175L11.7016 14.2941L8.50844 12.0128C8.39533 11.9322 8.25985 11.8889 8.12094 11.8891Z" fill="#606060"/>
</svg>
