<svg viewBox="212.09 199.329 49 49.617" width="49" height="49.617" xmlns="http://www.w3.org/2000/svg">
  <path d="M 260.902 217.982 L 260.903 217.984 C 261.119 218.682 261.149 219.429 260.988 220.144 C 260.827 220.859 260.482 221.509 259.995 222.025 L 259.994 222.026 L 251.38 231.19 L 251.214 231.366 L 251.249 231.605 L 253.114 244.361 L 253.114 244.362 C 253.22 245.088 253.134 245.831 252.867 246.508 C 252.6 247.185 252.163 247.767 251.607 248.194 C 251.051 248.62 250.397 248.874 249.718 248.932 C 249.039 248.99 248.356 248.849 247.745 248.524 L 236.824 242.71 L 236.589 242.585 L 236.354 242.71 L 225.433 248.524 L 225.432 248.524 C 224.821 248.85 224.138 248.991 223.459 248.934 C 222.779 248.876 222.125 248.622 221.569 248.196 C 221.013 247.769 220.576 247.186 220.309 246.509 C 220.042 245.832 219.957 245.089 220.064 244.362 L 220.064 244.361 L 221.928 231.605 L 221.963 231.366 L 221.798 231.19 L 213.183 222.026 C 212.698 221.509 212.354 220.858 212.193 220.144 C 212.032 219.429 212.06 218.681 212.275 217.983 C 212.49 217.285 212.882 216.667 213.405 216.193 C 213.927 215.721 214.56 215.411 215.233 215.296 L 227.307 213.225 L 227.559 213.182 L 227.672 212.951 L 233.269 201.474 C 233.586 200.823 234.066 200.281 234.652 199.904 L 234.381 199.483 L 234.652 199.904 C 235.237 199.527 235.907 199.329 236.589 199.329 C 237.27 199.329 237.94 199.527 238.525 199.904 L 238.796 199.483 L 238.525 199.904 C 239.111 200.281 239.591 200.823 239.908 201.474 L 245.505 212.951 L 245.618 213.182 L 245.87 213.225 L 257.944 215.296 L 257.945 215.296 C 258.619 215.41 259.252 215.718 259.775 216.191 C 260.297 216.664 260.689 217.283 260.902 217.982 Z M 258.356 220.234 L 258.676 219.893 L 258.622 219.834 C 258.663 219.743 258.695 219.647 258.717 219.549 L 258.229 219.439 L 258.717 219.549 C 258.775 219.293 258.764 219.026 258.687 218.776 C 258.61 218.525 258.468 218.299 258.274 218.122 L 257.938 218.493 L 258.274 218.122 C 258.079 217.946 257.839 217.827 257.579 217.782 L 257.578 217.782 L 244.098 215.47 L 237.843 202.645 C 237.728 202.409 237.552 202.208 237.331 202.065 C 237.109 201.923 236.853 201.846 236.589 201.846 C 236.325 201.846 236.068 201.923 235.846 202.065 C 235.625 202.208 235.449 202.409 235.334 202.645 L 229.08 215.47 L 215.599 217.782 L 215.598 217.782 C 215.338 217.827 215.098 217.946 214.904 218.122 C 214.709 218.299 214.567 218.525 214.49 218.776 C 214.413 219.026 214.403 219.293 214.46 219.549 C 214.518 219.805 214.641 220.042 214.821 220.233 L 214.821 220.234 L 224.455 230.482 L 222.369 244.751 C 222.369 244.752 222.369 244.752 222.368 244.753 C 222.329 245.012 222.359 245.278 222.455 245.523 C 222.551 245.768 222.711 245.984 222.92 246.144 C 223.129 246.305 223.38 246.403 223.644 246.425 C 223.907 246.446 224.17 246.391 224.402 246.266 C 224.402 246.265 224.403 246.265 224.403 246.265 L 236.589 239.778 L 248.774 246.265 C 248.774 246.265 248.775 246.265 248.775 246.266 C 249.007 246.39 249.27 246.446 249.533 246.425 C 249.797 246.403 250.048 246.305 250.257 246.144 C 250.466 245.983 250.626 245.768 250.722 245.523 C 250.818 245.278 250.848 245.012 250.809 244.753 C 250.808 244.752 250.808 244.751 250.808 244.751 L 248.722 230.482 L 258.356 220.234 Z" fill="#00B87C" stroke="#CEFFEF"/>
</svg>