<svg width="66" height="68" viewBox="0 0 66 68" fill="none" xmlns="http://www.w3.org/2000/svg">
<g clip-path="url(#clip0)">
<path d="M28.9741 32.9297C27.7792 32.9297 26.8074 33.9313 26.8074 35.1631V46.3297C26.8074 47.5614 27.7791 48.5631 28.9741 48.5631H35.4741C36.6679 48.5631 37.6408 47.5615 37.6408 46.3297V35.1631C37.6408 33.9314 36.6679 32.9297 35.4741 32.9297C34.875 32.9297 34.3908 33.43 34.3908 34.0463C34.3908 34.6627 34.875 35.1629 35.4741 35.1629V46.3296H28.9741V35.1629H32.2241C32.822 35.1629 33.3074 34.6627 33.3074 34.0463V29.5797C33.3074 28.9634 32.822 28.4631 32.2241 28.4631H31.1408V26.2297H32.2241C32.822 26.2297 33.3074 25.7294 33.3074 25.1131V20.6463C33.3074 20.03 32.822 19.5297 32.2241 19.5297H31.1408V17.2963H32.2241C32.822 17.2963 33.3074 16.7961 33.3074 16.1797V11.713C33.3074 11.0966 32.822 10.5963 32.2241 10.5963H31.1408V8.36295H32.2241C32.822 8.36295 33.3074 7.86268 33.3074 7.24633V3.89633H44.7756L55.2915 14.7358C55.714 15.1725 56.3998 15.1725 56.8233 14.7358C57.2458 14.2993 57.2458 13.5934 56.8233 13.1569L45.99 1.99023C45.7864 1.78034 45.5111 1.66309 45.2241 1.66309H32.2241C31.625 1.66309 31.1408 2.16336 31.1408 2.77971V6.12971H30.0574C29.4583 6.12971 28.9741 6.62998 28.9741 7.24633V11.713C28.9741 12.3293 29.4583 12.8296 30.0574 12.8296H31.1407V15.063H30.0574C29.4583 15.063 28.9741 15.5632 28.9741 16.1796V20.6463C28.9741 21.2627 29.4583 21.763 30.0574 21.763H31.1407V23.9963H30.0574C29.4583 23.9963 28.9741 24.4966 28.9741 25.113V29.5796C28.9741 30.1959 29.4583 30.6962 30.0574 30.6962H31.1407V32.9296H28.9741V32.9297Z" fill="#DC1AA3"/>
<path d="M32.257 41.863H32.245C31.6481 41.863 31.1682 42.3633 31.1682 42.9797C31.1682 43.596 31.6579 44.0963 32.257 44.0963C32.8549 44.0963 33.3403 43.596 33.3403 42.9797C33.3403 42.3633 32.8549 41.863 32.257 41.863Z" fill="#DC1AA3"/>
<path d="M60.3901 16.1798H49.5569C47.7639 16.1798 46.3069 14.6767 46.3069 12.8298V7.24639C46.3069 6.63004 45.8215 6.12976 45.2236 6.12976C44.6245 6.12976 44.1403 6.63004 44.1403 7.24639V12.8298C44.1403 15.9084 46.5702 18.4131 49.557 18.4131H59.307V61.9631C59.307 63.8101 57.8488 65.3131 56.057 65.3131H10.5568C8.76389 65.3131 7.30685 63.8101 7.30685 61.9631V6.12976C7.30685 4.28281 8.76389 2.77976 10.5568 2.77976H27.7548C28.3528 2.77976 28.8381 2.27949 28.8381 1.66314C28.8381 1.04679 28.3528 0.546387 27.7548 0.546387H10.5568C7.57015 0.546387 5.14014 3.05104 5.14014 6.12976V61.9631C5.14014 65.0417 7.57015 67.5464 10.5568 67.5464H56.0569C59.0436 67.5464 61.4736 65.0417 61.4736 61.963V17.2964C61.4736 16.68 60.9882 16.1798 60.3901 16.1798Z" fill="#DC1AA3"/>
</g>
<defs>
<clipPath id="clip0">
<rect width="65" height="67" fill="white" transform="translate(0.805908 0.546387)"/>
</clipPath>
</defs>
</svg>
