<svg width="17" height="17" viewBox="0 0 17 17" fill="none" xmlns="http://www.w3.org/2000/svg">
<path d="M2.12109 4.75586H3.45443H14.1211" stroke="#606060" stroke-width="1.22693" stroke-linecap="round" stroke-linejoin="round"/>
<path d="M13.4011 4.7558C13.4011 4.417 13.1265 4.14234 12.7877 4.14234C12.4489 4.14234 12.1742 4.417 12.1742 4.7558H13.4011ZM4.06781 4.7558C4.06781 4.417 3.79315 4.14234 3.45435 4.14234C3.11554 4.14234 2.84088 4.417 2.84088 4.7558H4.06781ZM4.84097 4.75578C4.84097 5.09458 5.11563 5.36924 5.45443 5.36924C5.79324 5.36924 6.0679 5.09458 6.0679 4.75578H4.84097ZM10.1743 4.75578C10.1743 5.09458 10.449 5.36924 10.7878 5.36924C11.1266 5.36924 11.4012 5.09458 11.4012 4.75578H10.1743ZM12.1742 4.7558V14.0891H13.4011V4.7558H12.1742ZM12.1742 14.0891C12.1742 14.4867 11.8519 14.809 11.4543 14.809V16.0359C12.5295 16.0359 13.4011 15.1643 13.4011 14.0891H12.1742ZM11.4543 14.809H4.78768V16.0359H11.4543V14.809ZM4.78768 14.809C4.39011 14.809 4.06781 14.4867 4.06781 14.0891H2.84088C2.84088 15.1643 3.71249 16.0359 4.78768 16.0359V14.809ZM4.06781 14.0891V4.7558H2.84088V14.0891H4.06781ZM6.0679 4.75578V3.42244H4.84097V4.75578H6.0679ZM6.0679 3.42244C6.0679 3.02487 6.39019 2.70257 6.78777 2.70257V1.47565C5.71258 1.47565 4.84097 2.34726 4.84097 3.42244H6.0679ZM6.78777 2.70257H9.45443V1.47565H6.78777V2.70257ZM9.45443 2.70257C9.85201 2.70257 10.1743 3.02487 10.1743 3.42244H11.4012C11.4012 2.34726 10.5296 1.47565 9.45443 1.47565V2.70257ZM10.1743 3.42244V4.75578H11.4012V3.42244H10.1743Z" fill="#606060"/>
<path d="M6.7876 8.08911V12.0891" stroke="#606060" stroke-width="1.22693" stroke-linecap="round" stroke-linejoin="round"/>
<path d="M9.45435 8.08911V12.0891" stroke="#606060" stroke-width="1.22693" stroke-linecap="round" stroke-linejoin="round"/>
</svg>
