<svg width="19" height="18" viewBox="0 0 19 18" fill="none" xmlns="http://www.w3.org/2000/svg">
<path d="M7.25748 3.01003C7.01861 3.25031 7.01976 3.63873 7.26005 3.87759C7.50033 4.11645 7.88875 4.1153 8.12761 3.87502L7.25748 3.01003ZM8.75004 6.00002L8.75262 5.38656H8.75004V6.00002ZM2.00004 5.38656C1.66124 5.38656 1.38658 5.66122 1.38658 6.00002C1.38658 6.33883 1.66124 6.61349 2.00004 6.61349V5.38656ZM10.3776 14.1251C10.1387 13.8848 9.75028 13.8836 9.51 14.1225C9.26972 14.3613 9.26857 14.7498 9.50743 14.99L10.3776 14.1251ZM11 12.0001V12.6135L11.0026 12.6135L11 12.0001ZM2 11.3866C1.66119 11.3866 1.38654 11.6612 1.38654 12.0001C1.38654 12.3389 1.66119 12.6135 2 12.6135V11.3866ZM13.3643 5.36328C13.1244 5.60254 13.1239 5.99097 13.3632 6.23084C13.6024 6.47072 13.9909 6.47121 14.2307 6.23194L13.3643 5.36328ZM15.125 9.00011V9.61357L15.1261 9.61357L15.125 9.00011ZM2 8.38665C1.66119 8.38665 1.38654 8.6613 1.38654 9.00011C1.38654 9.33891 1.66119 9.61357 2 9.61357V8.38665ZM8.12761 3.87502C8.41105 3.58989 8.85088 3.5312 9.19917 3.73202L9.81202 2.66912C8.98171 2.19037 7.93318 2.3303 7.25748 3.01003L8.12761 3.87502ZM9.19917 3.73202C9.54746 3.93284 9.71701 4.34289 9.61225 4.73104L10.7968 5.05074C11.0465 4.12541 10.6423 3.14786 9.81202 2.66912L9.19917 3.73202ZM9.61225 4.73104C9.50749 5.11919 9.15465 5.38825 8.75262 5.38657L8.74747 6.61348C9.7059 6.6175 10.5471 5.97607 10.7968 5.05074L9.61225 4.73104ZM8.75004 5.38656H2.00004V6.61349H8.75004V5.38656ZM9.50743 14.99C10.1831 15.6698 11.2317 15.8097 12.062 15.331L11.4491 14.2681C11.1008 14.4689 10.661 14.4102 10.3776 14.1251L9.50743 14.99ZM12.062 15.331C12.8923 14.8522 13.2965 13.8747 13.0468 12.9493L11.8622 13.269C11.967 13.6572 11.7974 14.0672 11.4491 14.2681L12.062 15.331ZM13.0468 12.9493C12.797 12.024 11.9559 11.3826 10.9974 11.3866L11.0026 12.6135C11.4046 12.6118 11.7575 12.8809 11.8622 13.269L13.0468 12.9493ZM11 11.3866H2V12.6135H11V11.3866ZM14.2307 6.23194C14.6346 5.82905 15.2587 5.74737 15.7527 6.03274L16.3664 4.97035C15.392 4.40743 14.161 4.56854 13.3643 5.36328L14.2307 6.23194ZM15.7527 6.03274C16.2467 6.31812 16.4877 6.89951 16.3404 7.45068L17.5258 7.76732C17.8162 6.68009 17.3409 5.53327 16.3664 4.97035L15.7527 6.03274ZM16.3404 7.45068C16.1932 8.00186 15.6944 8.38563 15.1239 8.38665L15.1261 9.61357C16.2514 9.61156 17.2354 8.85455 17.5258 7.76732L16.3404 7.45068ZM15.125 8.38665H2V9.61357H15.125V8.38665Z" fill="#999999"/>
</svg>
