<svg width="19" height="18" viewBox="0 0 19 18" fill="none" xmlns="http://www.w3.org/2000/svg">
<path d="M6.61863 1.6406C6.32356 1.8071 6.21933 2.18127 6.38583 2.47635C6.55233 2.77142 6.9265 2.87565 7.22158 2.70915L6.61863 1.6406ZM14.7501 6.74987L14.1366 6.74956V6.74987H14.7501ZM14.1366 9.74987C14.1366 10.0887 14.4113 10.3633 14.7501 10.3633C15.0889 10.3633 15.3636 10.0887 15.3636 9.74987H14.1366ZM13.25 13.3633C13.5888 13.3633 13.8635 13.0887 13.8635 12.7499C13.8635 12.4111 13.5888 12.1364 13.25 12.1364V13.3633ZM2 12.1364C1.66119 12.1364 1.38654 12.4111 1.38654 12.7499C1.38654 13.0887 1.66119 13.3633 2 13.3633V12.1364ZM4.25 6.74988H4.86346L4.86346 6.7491L4.25 6.74988ZM5.3801 4.6163C5.53553 4.31524 5.41747 3.9452 5.11642 3.78977C4.81537 3.63435 4.44532 3.7524 4.2899 4.05346L5.3801 4.6163ZM11.3281 16.0577C11.4981 15.7646 11.3984 15.3892 11.1053 15.2192C10.8122 15.0492 10.4368 15.149 10.2668 15.442L11.3281 16.0577ZM8.73312 15.442C8.56311 15.149 8.18772 15.0492 7.89465 15.2192C7.60159 15.3892 7.50182 15.7646 7.67183 16.0577L8.73312 15.442ZM7.22158 2.70915C8.65748 1.89892 10.4156 1.91216 11.8392 2.74392L12.4581 1.68457C10.6579 0.632705 8.4345 0.615963 6.61863 1.6406L7.22158 2.70915ZM11.8392 2.74392C13.2627 3.57568 14.1375 5.10083 14.1366 6.74956L15.3636 6.75019C15.3646 4.66517 14.2584 2.73643 12.4581 1.68457L11.8392 2.74392ZM14.1366 6.74987V9.74987H15.3636V6.74987H14.1366ZM13.25 12.1364H2V13.3633H13.25V12.1364ZM2 13.3633C3.58145 13.3633 4.86346 12.0813 4.86346 10.4999H3.63654C3.63654 11.4037 2.90383 12.1364 2 12.1364V13.3633ZM4.86346 10.4999V6.74988H3.63654V10.4999H4.86346ZM4.86346 6.7491C4.86253 6.00707 5.0397 5.27565 5.3801 4.6163L4.2899 4.05346C3.85942 4.88729 3.63536 5.81226 3.63654 6.75065L4.86346 6.7491ZM10.2668 15.442C10.1082 15.7154 9.81605 15.8837 9.49997 15.8837V17.1107C10.2535 17.1107 10.95 16.7095 11.3281 16.0577L10.2668 15.442ZM9.49997 15.8837C9.18389 15.8837 8.89172 15.7154 8.73312 15.442L7.67183 16.0577C8.04992 16.7095 8.74645 17.1107 9.49997 17.1107V15.8837Z" fill="#999999"/>
<path d="M1.25 0.75L17.75 17.25" stroke="#999999" stroke-width="1.22693" stroke-linecap="round" stroke-linejoin="round"/>
</svg>
