<svg width="19" height="18" viewBox="0 0 19 18" fill="none" xmlns="http://www.w3.org/2000/svg">
<path fill-rule="evenodd" clip-rule="evenodd" d="M9.5 14.25C12.3995 14.25 14.75 11.8995 14.75 9C14.75 6.10051 12.3995 3.75 9.5 3.75C6.60051 3.75 4.25 6.10051 4.25 9C4.25 11.8995 6.60051 14.25 9.5 14.25Z" stroke="#999999" stroke-width="1.22693" stroke-linecap="round" stroke-linejoin="round"/>
<path d="M9.5 6.75V9L10.625 10.125" stroke="#999999" stroke-width="1.22693" stroke-linecap="round" stroke-linejoin="round"/>
<path d="M13.4933 13.0683C13.5241 12.7309 13.2756 12.4324 12.9382 12.4015C12.6008 12.3707 12.3023 12.6192 12.2714 12.9566L13.4933 13.0683ZM12.6199 15.885L12.0089 15.8291L12.0089 15.8298L12.6199 15.885ZM11.1199 17.25L11.1224 16.6365H11.1199V17.25ZM7.87236 17.25V16.6365L7.86987 16.6365L7.87236 17.25ZM6.37236 15.885L6.98334 15.8298L6.98328 15.8291L6.37236 15.885ZM6.72078 12.9566C6.68995 12.6192 6.39144 12.3707 6.05404 12.4015C5.71664 12.4324 5.46811 12.7309 5.49895 13.0683L6.72078 12.9566ZM5.50668 4.93168C5.47585 5.26908 5.72437 5.5676 6.06177 5.59843C6.39917 5.62926 6.69768 5.38074 6.72851 5.04334L5.50668 4.93168ZM6.3801 2.11501L6.99101 2.17084L6.99107 2.17022L6.3801 2.11501ZM7.8726 0.750013V0.13655L7.87202 0.13655L7.8726 0.750013ZM11.1351 0.750013V1.36348L11.1376 1.36347L11.1351 0.750013ZM12.6351 2.11501L12.0241 2.17022L12.0242 2.17084L12.6351 2.11501ZM12.2867 5.04334C12.3175 5.38074 12.616 5.62926 12.9534 5.59843C13.2908 5.5676 13.5393 5.26908 13.5085 4.93168L12.2867 5.04334ZM12.2714 12.9566L12.0089 15.8291L13.2308 15.9408L13.4933 13.0683L12.2714 12.9566ZM12.0089 15.8298C11.9675 16.288 11.5824 16.6384 11.1224 16.6365L11.1174 17.8634C12.2142 17.8679 13.1321 17.0325 13.2308 15.9402L12.0089 15.8298ZM11.1199 16.6365H7.87236V17.8634H11.1199V16.6365ZM7.86987 16.6365C7.40979 16.6384 7.02474 16.288 6.98334 15.8298L5.76139 15.9402C5.86009 17.0325 6.77804 17.8679 7.87485 17.8634L7.86987 16.6365ZM6.98328 15.8291L6.72078 12.9566L5.49895 13.0683L5.76145 15.9408L6.98328 15.8291ZM6.72851 5.04334L6.99101 2.17084L5.76918 2.05918L5.50668 4.93168L6.72851 5.04334ZM6.99107 2.17022C7.03232 1.7137 7.41479 1.36391 7.87317 1.36347L7.87202 0.13655C6.77926 0.13758 5.86747 0.971473 5.76912 2.0598L6.99107 2.17022ZM7.8726 1.36348H11.1351V0.13655H7.8726V1.36348ZM11.1376 1.36347C11.5977 1.3616 11.9827 1.712 12.0241 2.17022L13.2461 2.05981C13.1474 0.967434 12.2294 0.132105 11.1326 0.136555L11.1376 1.36347ZM12.0242 2.17084L12.2867 5.04334L13.5085 4.93168L13.246 2.05918L12.0242 2.17084Z" fill="#999999"/>
</svg>
