<svg width="19" height="18" viewBox="0 0 19 18" fill="none" xmlns="http://www.w3.org/2000/svg">
<path fill-rule="evenodd" clip-rule="evenodd" d="M8.74976 3.75L4.99976 6.75H1.99976V11.25H4.99976L8.74976 14.25V3.75V3.75Z" stroke="#999999" stroke-width="1.22693" stroke-linecap="round" stroke-linejoin="round"/>
<path d="M15.2363 3.26379C14.9967 3.02418 14.6083 3.02412 14.3687 3.26366C14.1291 3.5032 14.129 3.89162 14.3686 4.13123L15.2363 3.26379ZM14.3686 13.8688C14.129 14.1084 14.1291 14.4968 14.3687 14.7364C14.6083 14.9759 14.9967 14.9758 15.2363 14.7362L14.3686 13.8688ZM12.5889 5.91136C12.3493 5.67175 11.9609 5.67169 11.7213 5.91123C11.4817 6.15076 11.4816 6.53919 11.7212 6.77879L12.5889 5.91136ZM11.7212 11.2139C11.4816 11.4535 11.4817 11.8419 11.7213 12.0814C11.9609 12.321 12.3493 12.3209 12.5889 12.0813L11.7212 11.2139ZM14.3686 4.13123C17.057 6.82042 17.057 11.1796 14.3686 13.8688L15.2363 14.7362C18.4036 11.5679 18.4036 6.4321 15.2363 3.26379L14.3686 4.13123ZM11.7212 6.77879C12.9456 8.00361 12.9456 9.98904 11.7212 11.2139L12.5889 12.0813C14.2923 10.3774 14.2923 7.61529 12.5889 5.91136L11.7212 6.77879Z" fill="#999999"/>
</svg>
