<svg width="19" height="18" viewBox="0 0 19 18" fill="none" xmlns="http://www.w3.org/2000/svg">
<path d="M12.5 3H14C14.8284 3 15.5 3.67157 15.5 4.5V15C15.5 15.8284 14.8284 16.5 14 16.5H5C4.17157 16.5 3.5 15.8284 3.5 15V4.5C3.5 3.67157 4.17157 3 5 3H6.5" stroke="#999999" stroke-width="1.22693" stroke-linecap="round" stroke-linejoin="round"/>
<path fill-rule="evenodd" clip-rule="evenodd" d="M6.5 2.11346C6.5 1.77466 6.77466 1.5 7.11346 1.5H11.8865C12.2253 1.5 12.5 1.77466 12.5 2.11346V3.88654C12.5 4.22534 12.2253 4.5 11.8865 4.5H7.11346C6.77466 4.5 6.5 4.22534 6.5 3.88654V2.11346Z" stroke="#999999" stroke-width="1.22693" stroke-linecap="round" stroke-linejoin="round"/>
</svg>
