<svg width="19" height="18" viewBox="0 0 19 18" fill="none" xmlns="http://www.w3.org/2000/svg">
<path d="M2 12.1365C1.66119 12.1365 1.38654 12.4112 1.38654 12.75C1.38654 13.0888 1.66119 13.3635 2 13.3635V12.1365ZM4.25 6.75H3.63654H4.25ZM14.75 6.75H15.3635H14.75ZM10.7975 15.75L11.3281 16.0578C11.4382 15.8681 11.4385 15.6339 11.329 15.4438C11.2195 15.2537 11.0168 15.1366 10.7975 15.1366V15.75ZM8.20246 15.75V15.1366C7.98306 15.1366 7.78037 15.2537 7.67087 15.4438C7.56137 15.6339 7.56173 15.8681 7.67181 16.0578L8.20246 15.75ZM17 12.1365H2V13.3635H17V12.1365ZM2 13.3635C3.58145 13.3635 4.86346 12.0814 4.86346 10.5H3.63654C3.63654 11.4038 2.90383 12.1365 2 12.1365V13.3635ZM4.86346 10.5V6.75H3.63654V10.5H4.86346ZM4.86346 6.75C4.86346 4.18931 6.93931 2.11346 9.5 2.11346V0.886537C6.2617 0.886537 3.63654 3.5117 3.63654 6.75H4.86346ZM9.5 2.11346C12.0607 2.11346 14.1365 4.18931 14.1365 6.75H15.3635C15.3635 3.5117 12.7383 0.886537 9.5 0.886537V2.11346ZM14.1365 6.75V10.5H15.3635V6.75H14.1365ZM14.1365 10.5C14.1365 12.0814 15.4186 13.3635 17 13.3635V12.1365C16.0962 12.1365 15.3635 11.4038 15.3635 10.5H14.1365ZM10.2668 15.4422C10.1082 15.7156 9.81604 15.8839 9.49996 15.8839V17.1108C10.2535 17.1108 10.95 16.7096 11.3281 16.0578L10.2668 15.4422ZM9.49996 15.8839C9.18388 15.8839 8.8917 15.7156 8.7331 15.4422L7.67181 16.0578C8.04991 16.7096 8.74643 17.1108 9.49996 17.1108V15.8839ZM8.20246 16.3635H10.7975V15.1366H8.20246V16.3635Z" fill="#999999"/>
</svg>
