<svg width="114" height="305" viewBox="0 0 114 305" fill="none" xmlns="http://www.w3.org/2000/svg">
<path fill-rule="evenodd" clip-rule="evenodd" d="M16.2498 12.6898V14.9398C16.2515 15.3622 16.0751 15.7657 15.7639 16.0512C15.4527 16.3368 15.0355 16.4778 14.6148 16.4398C12.307 16.1891 10.0901 15.4004 8.14233 14.1373C6.3302 12.9858 4.79384 11.4495 3.64233 9.63733C2.37482 7.68073 1.58602 5.45308 1.33983 3.13483C1.30194 2.71548 1.44204 2.29952 1.72591 1.98855C2.00978 1.67757 2.41128 1.50023 2.83233 1.49983H5.08233C5.83523 1.49242 6.47696 2.04431 6.58233 2.78983C6.6773 3.50988 6.85342 4.21687 7.10733 4.89733C7.31338 5.44549 7.18159 6.06343 6.76983 6.47983L5.81733 7.43233C6.885 9.30999 8.43967 10.8647 10.3173 11.9323L11.2698 10.9798C11.6862 10.5681 12.3042 10.4363 12.8523 10.6423C13.5328 10.8962 14.2398 11.0724 14.9598 11.1673C15.714 11.2737 16.2687 11.9284 16.2498 12.6898Z" stroke="#999999" stroke-width="1.22693" stroke-linecap="round" stroke-linejoin="round"/>
<path fill-rule="evenodd" clip-rule="evenodd" d="M112.75 292.25L107.5 296L112.75 299.75V292.25V292.25Z" stroke="#999999" stroke-width="1.22693" stroke-linecap="round" stroke-linejoin="round"/>
<path fill-rule="evenodd" clip-rule="evenodd" d="M96.2498 291.977C96.2498 291.299 96.7991 290.75 97.4767 290.75H106.273C106.95 290.75 107.5 291.299 107.5 291.977V300.023C107.5 300.701 106.95 301.25 106.273 301.25H97.4767C96.7991 301.25 96.2498 300.701 96.2498 300.023V291.977Z" stroke="#999999" stroke-width="1.22693" stroke-linecap="round" stroke-linejoin="round"/>
</svg>
