<svg width="19" height="18" viewBox="0 0 19 18" fill="none" xmlns="http://www.w3.org/2000/svg">
<path fill-rule="evenodd" clip-rule="evenodd" d="M6.5 17.25C7.32843 17.25 8 16.5784 8 15.75C8 14.9216 7.32843 14.25 6.5 14.25C5.67157 14.25 5 14.9216 5 15.75C5 16.5784 5.67157 17.25 6.5 17.25Z" stroke="#999999" stroke-width="1.22693" stroke-linecap="round" stroke-linejoin="round"/>
<path fill-rule="evenodd" clip-rule="evenodd" d="M15.5 17.25C16.3284 17.25 17 16.5784 17 15.75C17 14.9216 16.3284 14.25 15.5 14.25C14.6716 14.25 14 14.9216 14 15.75C14 16.5784 14.6716 17.25 15.5 17.25Z" stroke="#999999" stroke-width="1.22693" stroke-linecap="round" stroke-linejoin="round"/>
<path d="M4.75226 4.5H17.7498L16.4898 10.7925C16.3482 11.5052 15.7162 12.0139 14.9898 12H7.06226C6.30437 12.0064 5.66076 11.4465 5.56226 10.695L4.42226 2.055C4.32447 1.3092 3.68944 0.751139 2.93726 0.75H1.24976" stroke="#999999" stroke-width="1.22693" stroke-linecap="round" stroke-linejoin="round"/>
</svg>
