<svg width="19" height="18" viewBox="0 0 19 18" fill="none" xmlns="http://www.w3.org/2000/svg">
<path d="M14.3269 13.9429C14.5963 13.7375 14.6483 13.3525 14.4429 13.0831C14.2375 12.8136 13.8526 12.7617 13.5831 12.9671L14.3269 13.9429ZM9.5 15V15.6135L9.51003 15.6134L9.5 15ZM1.25 8.99998L0.709444 8.70992C0.615195 8.88556 0.612159 9.09604 0.701302 9.27433L1.25 8.99998ZM5.41731 5.03255C5.68659 4.82693 5.73819 4.44195 5.53257 4.17267C5.32694 3.90339 4.94196 3.85179 4.67269 4.05741L5.41731 5.03255ZM7.7851 2.5827C7.45521 2.65992 7.25038 2.98995 7.3276 3.31984C7.40482 3.64972 7.73484 3.85455 8.06473 3.77734L7.7851 2.5827ZM9.49992 3.00002L9.49848 3.61348H9.49992V3.00002ZM17.7499 9.00002L18.2909 9.28921C18.3847 9.11373 18.3876 8.90365 18.2986 8.72567L17.7499 9.00002ZM15.6605 10.9975C15.4424 11.2568 15.4757 11.6438 15.7349 11.8619C15.9942 12.0801 16.3812 12.0467 16.5993 11.7875L15.6605 10.9975ZM11.5389 11.0082C11.7699 10.7603 11.7562 10.3721 11.5083 10.1411C11.2605 9.91017 10.8723 9.92388 10.6413 10.1717L11.5389 11.0082ZM8.32834 7.85878C8.57621 7.62781 8.58992 7.23962 8.35895 6.99175C8.12797 6.74388 7.73979 6.73017 7.49192 6.96114L8.32834 7.85878ZM13.5831 12.9671C12.4052 13.865 10.9709 14.3624 9.48997 14.3866L9.51003 15.6134C11.2528 15.5849 12.9407 14.9995 14.3269 13.9429L13.5831 12.9671ZM9.5 14.3865C7.12008 14.3865 5.2085 13.0254 3.85379 11.5804C3.18203 10.8639 2.66507 10.145 2.31611 9.60466C2.14202 9.33509 2.01074 9.11153 1.92384 8.95704C1.88041 8.87983 1.84813 8.82 1.8272 8.78044C1.81673 8.76066 1.80911 8.74596 1.80435 8.7367C1.80197 8.73207 1.80031 8.72881 1.79936 8.72695C1.79889 8.72602 1.7986 8.72544 1.79849 8.72522C1.79843 8.72511 1.79842 8.72508 1.79846 8.72515C1.79848 8.72519 1.79854 8.72531 1.79854 8.72533C1.79862 8.72547 1.7987 8.72563 1.25 8.99998C0.701302 9.27433 0.701408 9.27454 0.701525 9.27477C0.701579 9.27488 0.701708 9.27514 0.701817 9.27536C0.702034 9.27579 0.702298 9.27632 0.702609 9.27693C0.703229 9.27816 0.704035 9.27976 0.705025 9.28171C0.707006 9.28562 0.709726 9.29096 0.713183 9.29768C0.720096 9.31113 0.729959 9.33012 0.742747 9.35429C0.768321 9.40262 0.805624 9.47169 0.854481 9.55855C0.952149 9.73218 1.09626 9.97737 1.28545 10.2703C1.66306 10.855 2.22422 11.6361 2.95871 12.4196C4.4165 13.9745 6.62992 15.6134 9.5 15.6134V14.3865ZM1.79056 9.29004C2.68211 7.62854 3.91868 6.17692 5.41731 5.03255L4.67269 4.05741C3.03502 5.30796 1.68372 6.89426 0.709444 8.70992L1.79056 9.29004ZM8.06473 3.77734C8.53468 3.66733 9.01583 3.61235 9.49848 3.61348L9.50136 2.38656C8.9236 2.3852 8.34765 2.45102 7.7851 2.5827L8.06473 3.77734ZM9.49992 3.61348C11.8798 3.61348 13.7914 4.97457 15.1461 6.41959C15.8179 7.13614 16.3348 7.85502 16.6838 8.39534C16.8579 8.66491 16.9892 8.88847 17.0761 9.04296C17.1195 9.12017 17.1518 9.18 17.1727 9.21956C17.1832 9.23934 17.1908 9.25404 17.1956 9.2633C17.1979 9.26793 17.1996 9.2712 17.2006 9.27306C17.201 9.27399 17.2013 9.27456 17.2014 9.27479C17.2015 9.2749 17.2015 9.27492 17.2015 9.27485C17.2014 9.27481 17.2014 9.27469 17.2014 9.27468C17.2013 9.27453 17.2012 9.27437 17.7499 9.00002C18.2986 8.72567 18.2985 8.72546 18.2984 8.72523C18.2983 8.72512 18.2982 8.72486 18.2981 8.72465C18.2979 8.72421 18.2976 8.72369 18.2973 8.72307C18.2967 8.72184 18.2959 8.72024 18.2949 8.71829C18.2929 8.71438 18.2902 8.70904 18.2867 8.70232C18.2798 8.68887 18.27 8.66988 18.2572 8.64571C18.2316 8.59738 18.1943 8.52831 18.1454 8.44145C18.0478 8.26782 17.9037 8.02263 17.7145 7.7297C17.3369 7.14502 16.7757 6.3639 16.0412 5.58045C14.5834 4.02547 12.37 2.38656 9.49992 2.38656V3.61348ZM17.2089 8.71083C16.7738 9.52488 16.2548 10.2913 15.6605 10.9975L16.5993 11.7875C17.2486 11.0159 17.8155 10.1786 18.2909 9.28921L17.2089 8.71083ZM10.6413 10.1717C10.2333 10.6096 9.6189 10.7898 9.03906 10.6417L8.73547 11.8305C9.75002 12.0896 10.8251 11.7743 11.5389 11.0082L10.6413 10.1717ZM9.03906 10.6417C8.45921 10.4936 8.00644 10.0409 7.85836 9.46103L6.66959 9.76462C6.92869 10.7792 7.72091 11.5714 8.73547 11.8305L9.03906 10.6417ZM7.85836 9.46103C7.71028 8.88119 7.8905 8.26676 8.32834 7.85878L7.49192 6.96114C6.72583 7.67499 6.41049 8.75007 6.66959 9.76462L7.85836 9.46103Z" fill="#999999"/>
<path d="M1.25 0.75L17.75 17.25" stroke="#999999" stroke-width="1.22693" stroke-linecap="round" stroke-linejoin="round"/>
</svg>
