<svg width="66" height="68" viewBox="0 0 66 68" fill="none" xmlns="http://www.w3.org/2000/svg">
<g clip-path="url(#clip0)">
<path d="M28.7585 33.1792C27.5636 33.1792 26.5918 34.1808 26.5918 35.4126V46.5792C26.5918 47.8109 27.5635 48.8126 28.7585 48.8126H35.2585C36.4524 48.8126 37.4252 47.811 37.4252 46.5792V35.4126C37.4252 34.1809 36.4524 33.1792 35.2585 33.1792C34.6594 33.1792 34.1752 33.6795 34.1752 34.2958C34.1752 34.9122 34.6594 35.4125 35.2585 35.4125V46.5791H28.7585V35.4125H32.0085C32.6065 35.4125 33.0918 34.9122 33.0918 34.2958V29.8292C33.0918 29.2129 32.6065 28.7126 32.0085 28.7126H30.9252V26.4792H32.0085C32.6065 26.4792 33.0918 25.9789 33.0918 25.3626V20.8958C33.0918 20.2795 32.6065 19.7792 32.0085 19.7792H30.9252V17.5458H32.0085C32.6065 17.5458 33.0918 17.0456 33.0918 16.4292V11.9625C33.0918 11.3461 32.6065 10.8458 32.0085 10.8458H30.9252V8.61247H32.0085C32.6065 8.61247 33.0918 8.11219 33.0918 7.49584V4.14584H44.56L55.0759 14.9853C55.4984 15.422 56.1842 15.422 56.6077 14.9853C57.0302 14.5488 57.0302 13.8429 56.6077 13.4064L45.7744 2.23975C45.5708 2.02985 45.2955 1.9126 45.0085 1.9126H32.0085C31.4094 1.9126 30.9252 2.41287 30.9252 3.02922V6.37922H29.8418C29.2427 6.37922 28.7585 6.8795 28.7585 7.49584V11.9625C28.7585 12.5788 29.2427 13.0791 29.8418 13.0791H30.9251V15.3125H29.8418C29.2427 15.3125 28.7585 15.8127 28.7585 16.4291V20.8958C28.7585 21.5122 29.2427 22.0125 29.8418 22.0125H30.9251V24.2458H29.8418C29.2427 24.2458 28.7585 24.7461 28.7585 25.3625V29.8291C28.7585 30.4454 29.2427 30.9457 29.8418 30.9457H30.9251V33.1791H28.7585V33.1792Z" fill="#DC1AA3"/>
<path d="M32.0419 42.1125H32.0299C31.433 42.1125 30.9531 42.6128 30.9531 43.2292C30.9531 43.8455 31.4428 44.3458 32.0419 44.3458C32.6398 44.3458 33.1252 43.8455 33.1252 43.2292C33.1252 42.6128 32.6398 42.1125 32.0419 42.1125Z" fill="#DC1AA3"/>
<path d="M60.1748 16.4293H49.3415C47.5486 16.4293 46.0915 14.9262 46.0915 13.0793V7.4959C46.0915 6.87955 45.6062 6.37928 45.0082 6.37928C44.4091 6.37928 43.9249 6.87955 43.9249 7.4959V13.0793C43.9249 16.1579 46.3548 18.6627 49.3416 18.6627H59.0916V62.2127C59.0916 64.0596 57.6335 65.5627 55.8416 65.5627H10.3415C8.54856 65.5627 7.09151 64.0596 7.09151 62.2127V6.37928C7.09151 4.53233 8.54856 3.02928 10.3415 3.02928H27.5395C28.1374 3.02928 28.6228 2.529 28.6228 1.91265C28.6228 1.2963 28.1374 0.795898 27.5395 0.795898H10.3415C7.35482 0.795898 4.9248 3.30055 4.9248 6.37928V62.2127C4.9248 65.2913 7.35482 67.7959 10.3415 67.7959H55.8415C58.8282 67.7959 61.2582 65.2913 61.2582 62.2125V17.5459C61.2582 16.9296 60.7729 16.4293 60.1748 16.4293Z" fill="#DC1AA3"/>
</g>
<defs>
<clipPath id="clip0">
<rect width="65" height="67" fill="white" transform="translate(0.59082 0.795898)"/>
</clipPath>
</defs>
</svg>
