<svg width="19" height="18" viewBox="0 0 19 18" fill="none" xmlns="http://www.w3.org/2000/svg">
<path d="M7.25 12.75H7.86346C7.86346 12.4112 7.58881 12.1365 7.25 12.1365V12.75ZM16.25 11.25H16.8635C16.8635 10.9112 16.5888 10.6365 16.25 10.6365V11.25ZM7.25 12.1365H4.25V13.3635H7.25V12.1365ZM4.25 12.1365C3.08277 12.1365 2.13654 13.0828 2.13654 14.25H3.36346C3.36346 13.7604 3.76038 13.3635 4.25 13.3635V12.1365ZM2.13654 14.25C2.13654 15.4172 3.08277 16.3635 4.25 16.3635V15.1365C3.76038 15.1365 3.36346 14.7396 3.36346 14.25H2.13654ZM4.25 16.3635H5.75V15.1365H4.25V16.3635ZM5.75 16.3635C6.91723 16.3635 7.86346 15.4172 7.86346 14.25H6.63654C6.63654 14.7396 6.23962 15.1365 5.75 15.1365V16.3635ZM7.86346 14.25V12.75H6.63654V14.25H7.86346ZM16.25 10.6365H13.25V11.8635H16.25V10.6365ZM13.25 10.6365C12.0828 10.6365 11.1366 11.5828 11.1366 12.75H12.3635C12.3635 12.2604 12.7604 11.8635 13.25 11.8635V10.6365ZM11.1366 12.75C11.1366 13.9172 12.0828 14.8635 13.25 14.8635V13.6365C12.7604 13.6365 12.3635 13.2396 12.3635 12.75H11.1366ZM13.25 14.8635H14.75V13.6365H13.25V14.8635ZM14.75 14.8635C15.9172 14.8635 16.8635 13.9172 16.8635 12.75H15.6366C15.6366 13.2396 15.2396 13.6365 14.75 13.6365V14.8635ZM16.8635 12.75V11.25H15.6366V12.75H16.8635Z" fill="#999999"/>
<path d="M7.24976 12.75V3.75L16.2498 2.25V11.25" stroke="#999999" stroke-width="1.22693" stroke-linecap="round" stroke-linejoin="round"/>
</svg>
