<svg width="20" height="21" viewBox="0 0 20 21" fill="none" xmlns="http://www.w3.org/2000/svg">
<path fill-rule="evenodd" clip-rule="evenodd" d="M10.8333 2.16663H4.99992C4.07944 2.16663 3.33325 2.91282 3.33325 3.83329V17.1666C3.33325 18.0871 4.07944 18.8333 4.99992 18.8333H14.9999C15.9204 18.8333 16.6666 18.0871 16.6666 17.1666V7.99996L10.8333 2.16663Z" stroke="#C8643C" stroke-width="1.22693" stroke-linecap="round" stroke-linejoin="round"/>
<path d="M10.8333 2.16663V7.99996H16.6666" stroke="#C8643C" stroke-width="1.22693" stroke-linecap="round" stroke-linejoin="round"/>
<path d="M7.19508 15.6266C7.23165 15.6266 7.4511 15.5136 7.86008 14.7588C7.32143 15.0614 7.10198 15.3107 7.08535 15.4504C7.08203 15.4737 7.07538 15.5368 7.19508 15.6266Z" fill="#C76641"/>
<path d="M6.66875 15.4039C6.7153 14.9949 7.22403 14.5626 8.17831 14.1271C8.57267 13.2513 8.89191 12.3437 9.13259 11.4139C8.87989 10.8652 8.63716 10.1537 8.80009 9.75134C8.8219 9.68225 8.85891 9.61891 8.90839 9.56598C8.95787 9.51304 9.01857 9.47186 9.08604 9.44544C9.17236 9.41688 9.26157 9.39792 9.35204 9.38892C9.47839 9.38892 9.59144 9.55184 9.68454 9.65492C9.77765 9.75799 9.92727 9.95084 9.59144 11.3706C9.92579 12.0649 10.358 12.7077 10.8749 13.2792C11.1544 13.2247 11.4381 13.1946 11.7228 13.1894C12.1185 13.1894 12.3579 13.2825 12.4543 13.472C12.4922 13.5628 12.5029 13.6627 12.4852 13.7595C12.4675 13.8563 12.4221 13.9458 12.3545 14.0173C12.2937 14.1098 12.2107 14.1855 12.1132 14.2378C12.0156 14.29 11.9066 14.3171 11.7959 14.3166C11.3828 14.2645 11.0043 14.0592 10.7353 13.7414C9.97139 13.9059 9.22531 14.1442 8.50749 14.4529C8.33792 14.8264 8.13657 15.1846 7.90566 15.5236C7.64631 15.886 7.42353 16.0556 7.20408 16.0556C7.11631 16.0549 7.03114 16.0257 6.96135 15.9725C6.86435 15.9145 6.78553 15.8305 6.73382 15.73C6.68211 15.6295 6.65956 15.5165 6.66875 15.4039Z" fill="#C76641"/>
<path d="M9.41574 11.979C9.22992 12.6271 9.0079 13.2643 8.75073 13.8876C9.28169 13.6814 9.82603 13.5114 10.38 13.3788C10.0134 12.945 9.69039 12.4762 9.41574 11.979Z" fill="#FED4D4"/>
</svg>
