<svg width="19" height="18" viewBox="0 0 19 18" fill="none" xmlns="http://www.w3.org/2000/svg">
<path fill-rule="evenodd" clip-rule="evenodd" d="M2.75 3.47692C2.75 2.79931 3.29931 2.25 3.97693 2.25H15.0231C15.7007 2.25 16.25 2.79931 16.25 3.47693V14.5231C16.25 15.2007 15.7007 15.75 15.0231 15.75H3.97692C3.29931 15.75 2.75 15.2007 2.75 14.5231V3.47692Z" stroke="#999999" stroke-width="1.22693" stroke-linecap="round" stroke-linejoin="round"/>
<path fill-rule="evenodd" clip-rule="evenodd" d="M6.875 7.5C7.49632 7.5 8 6.99632 8 6.375C8 5.75368 7.49632 5.25 6.875 5.25C6.25368 5.25 5.75 5.75368 5.75 6.375C5.75 6.99632 6.25368 7.5 6.875 7.5Z" stroke="#999999" stroke-width="1.22693" stroke-linecap="round" stroke-linejoin="round"/>
<path d="M16.2498 11.25L12.4998 7.5L4.24976 15.75" stroke="#999999" stroke-width="1.22693" stroke-linecap="round" stroke-linejoin="round"/>
</svg>
