<svg width="50" height="64" viewBox="0 0 50 64" fill="none" xmlns="http://www.w3.org/2000/svg">
<mask id="path-1-inside-1" fill="white">
<path d="M31.2732 0H20.3125C18.4888 0.00131509 16.723 0.654347 15.3211 1.84593C13.9192 3.03752 12.9695 4.69257 12.6367 6.52428C11.0857 6.81937 9.65848 7.58725 8.54288 8.72688C7.42728 9.8665 6.67559 11.3245 6.38672 12.9089C4.59363 13.2489 2.97348 14.219 1.80701 15.6511C0.640551 17.0832 0.00128736 18.887 0 20.75V55.8654C0 57.982 0.823101 60.012 2.28823 61.5086C3.75336 63.0053 5.7405 63.8462 7.8125 63.8462H29.6875C31.5112 63.8448 33.277 63.1918 34.6789 62.0002C36.0808 60.8086 37.0305 59.1536 37.3633 57.3219C38.9143 57.0268 40.3415 56.2589 41.4571 55.1193C42.5727 53.9797 43.3244 52.5217 43.6133 50.9373C45.4064 50.5973 47.0265 49.6272 48.193 48.1951C49.3595 46.763 49.9987 44.9592 50 43.0962V19.1538L31.2732 0ZM43.9807 17.5577H37.5C36.2572 17.5564 35.0657 17.0515 34.1869 16.1537C33.3081 15.256 32.8138 14.0388 32.8125 12.7692V6.12025L43.9807 17.5577ZM29.6875 60.6538H7.8125C6.56969 60.6525 5.37816 60.1476 4.49936 59.2499C3.62057 58.3522 3.12629 57.135 3.125 55.8654V20.75C3.12664 19.7608 3.42788 18.7964 3.98739 17.9891C4.54689 17.1818 5.33725 16.5711 6.25 16.2409V49.4808C6.25 51.5974 7.0731 53.6273 8.53823 55.124C10.0034 56.6207 11.9905 57.4615 14.0625 57.4615H34.1016C33.7783 58.394 33.1805 59.2013 32.3902 59.7729C31.5999 60.3444 30.6558 60.6522 29.6875 60.6538ZM35.9375 54.2692H14.0625C12.8197 54.2679 11.6282 53.763 10.7494 52.8653C9.87057 51.9675 9.37629 50.7503 9.375 49.4808V14.3654C9.37563 13.3754 9.67641 12.4099 10.236 11.6015C10.7956 10.7932 11.5865 10.1818 12.5 9.85126V43.0962C12.5 45.2128 13.3231 47.2427 14.7882 48.7394C16.2534 50.2361 18.2405 51.0769 20.3125 51.0769H40.3516C40.0283 52.0093 39.4305 52.8167 38.6402 53.3883C37.8499 53.9598 36.9058 54.2676 35.9375 54.2692ZM46.875 43.0962C46.8737 44.3657 46.3794 45.5829 45.5006 46.4807C44.6218 47.3784 43.4303 47.8833 42.1875 47.8846H20.3125C19.0697 47.8833 17.8782 47.3784 16.9994 46.4807C16.1206 45.5829 15.6263 44.3657 15.625 43.0962V7.98077C15.6263 6.7112 16.1206 5.494 16.9994 4.59627C17.8782 3.69855 19.0697 3.19363 20.3125 3.19231H29.6875V12.7692C29.6875 14.8859 30.5106 16.9158 31.9757 18.4125C33.4409 19.9092 35.428 20.75 37.5 20.75H46.875V43.0962ZM23.4375 27.1346C23.4375 26.925 23.4779 26.7174 23.5564 26.5238C23.635 26.3301 23.7501 26.1542 23.8951 26.006C24.0402 25.8577 24.2125 25.7402 24.4021 25.66C24.5916 25.5797 24.7948 25.5385 25 25.5385H31.25C31.6644 25.5385 32.0618 25.7066 32.3549 26.006C32.6479 26.3053 32.8125 26.7113 32.8125 27.1346C32.8125 27.5579 32.6479 27.9639 32.3549 28.2633C32.0618 28.5626 31.6644 28.7308 31.25 28.7308H25C24.5856 28.7308 24.1882 28.5626 23.8951 28.2633C23.6021 27.9639 23.4375 27.5579 23.4375 27.1346ZM37.5 31.9231C37.9144 31.9231 38.3118 32.0912 38.6049 32.3906C38.8979 32.6899 39.0625 33.0959 39.0625 33.5192C39.0625 33.9426 38.8979 34.3485 38.6049 34.6479C38.3118 34.9472 37.9144 35.1154 37.5 35.1154H25C24.5856 35.1154 24.1882 34.9472 23.8951 34.6479C23.6021 34.3485 23.4375 33.9426 23.4375 33.5192C23.4375 33.0959 23.6021 32.6899 23.8951 32.3906C24.1882 32.0912 24.5856 31.9231 25 31.9231H37.5ZM39.0161 39.9038C39.0161 40.1137 38.9756 40.3214 38.8969 40.5152C38.8183 40.7091 38.703 40.8851 38.5576 41.0334C38.4123 41.1816 38.2397 41.2991 38.0499 41.3792C37.86 41.4593 37.6566 41.5003 37.4512 41.5H25C24.5856 41.5 24.1882 41.3318 23.8951 41.0325C23.6021 40.7332 23.4375 40.3272 23.4375 39.9038C23.4375 39.4805 23.6021 39.0745 23.8951 38.7752C24.1882 38.4759 24.5856 38.3077 25 38.3077H37.4512C37.6566 38.3074 37.86 38.3484 38.0499 38.4285C38.2397 38.5085 38.4123 38.6261 38.5576 38.7743C38.703 38.9226 38.8183 39.0986 38.8969 39.2924C38.9756 39.4863 39.0161 39.694 39.0161 39.9038Z"/>
</mask>
<path d="M31.2732 0H20.3125C18.4888 0.00131509 16.723 0.654347 15.3211 1.84593C13.9192 3.03752 12.9695 4.69257 12.6367 6.52428C11.0857 6.81937 9.65848 7.58725 8.54288 8.72688C7.42728 9.8665 6.67559 11.3245 6.38672 12.9089C4.59363 13.2489 2.97348 14.219 1.80701 15.6511C0.640551 17.0832 0.00128736 18.887 0 20.75V55.8654C0 57.982 0.823101 60.012 2.28823 61.5086C3.75336 63.0053 5.7405 63.8462 7.8125 63.8462H29.6875C31.5112 63.8448 33.277 63.1918 34.6789 62.0002C36.0808 60.8086 37.0305 59.1536 37.3633 57.3219C38.9143 57.0268 40.3415 56.2589 41.4571 55.1193C42.5727 53.9797 43.3244 52.5217 43.6133 50.9373C45.4064 50.5973 47.0265 49.6272 48.193 48.1951C49.3595 46.763 49.9987 44.9592 50 43.0962V19.1538L31.2732 0ZM43.9807 17.5577H37.5C36.2572 17.5564 35.0657 17.0515 34.1869 16.1537C33.3081 15.256 32.8138 14.0388 32.8125 12.7692V6.12025L43.9807 17.5577ZM29.6875 60.6538H7.8125C6.56969 60.6525 5.37816 60.1476 4.49936 59.2499C3.62057 58.3522 3.12629 57.135 3.125 55.8654V20.75C3.12664 19.7608 3.42788 18.7964 3.98739 17.9891C4.54689 17.1818 5.33725 16.5711 6.25 16.2409V49.4808C6.25 51.5974 7.0731 53.6273 8.53823 55.124C10.0034 56.6207 11.9905 57.4615 14.0625 57.4615H34.1016C33.7783 58.394 33.1805 59.2013 32.3902 59.7729C31.5999 60.3444 30.6558 60.6522 29.6875 60.6538ZM35.9375 54.2692H14.0625C12.8197 54.2679 11.6282 53.763 10.7494 52.8653C9.87057 51.9675 9.37629 50.7503 9.375 49.4808V14.3654C9.37563 13.3754 9.67641 12.4099 10.236 11.6015C10.7956 10.7932 11.5865 10.1818 12.5 9.85126V43.0962C12.5 45.2128 13.3231 47.2427 14.7882 48.7394C16.2534 50.2361 18.2405 51.0769 20.3125 51.0769H40.3516C40.0283 52.0093 39.4305 52.8167 38.6402 53.3883C37.8499 53.9598 36.9058 54.2676 35.9375 54.2692ZM46.875 43.0962C46.8737 44.3657 46.3794 45.5829 45.5006 46.4807C44.6218 47.3784 43.4303 47.8833 42.1875 47.8846H20.3125C19.0697 47.8833 17.8782 47.3784 16.9994 46.4807C16.1206 45.5829 15.6263 44.3657 15.625 43.0962V7.98077C15.6263 6.7112 16.1206 5.494 16.9994 4.59627C17.8782 3.69855 19.0697 3.19363 20.3125 3.19231H29.6875V12.7692C29.6875 14.8859 30.5106 16.9158 31.9757 18.4125C33.4409 19.9092 35.428 20.75 37.5 20.75H46.875V43.0962ZM23.4375 27.1346C23.4375 26.925 23.4779 26.7174 23.5564 26.5238C23.635 26.3301 23.7501 26.1542 23.8951 26.006C24.0402 25.8577 24.2125 25.7402 24.4021 25.66C24.5916 25.5797 24.7948 25.5385 25 25.5385H31.25C31.6644 25.5385 32.0618 25.7066 32.3549 26.006C32.6479 26.3053 32.8125 26.7113 32.8125 27.1346C32.8125 27.5579 32.6479 27.9639 32.3549 28.2633C32.0618 28.5626 31.6644 28.7308 31.25 28.7308H25C24.5856 28.7308 24.1882 28.5626 23.8951 28.2633C23.6021 27.9639 23.4375 27.5579 23.4375 27.1346ZM37.5 31.9231C37.9144 31.9231 38.3118 32.0912 38.6049 32.3906C38.8979 32.6899 39.0625 33.0959 39.0625 33.5192C39.0625 33.9426 38.8979 34.3485 38.6049 34.6479C38.3118 34.9472 37.9144 35.1154 37.5 35.1154H25C24.5856 35.1154 24.1882 34.9472 23.8951 34.6479C23.6021 34.3485 23.4375 33.9426 23.4375 33.5192C23.4375 33.0959 23.6021 32.6899 23.8951 32.3906C24.1882 32.0912 24.5856 31.9231 25 31.9231H37.5ZM39.0161 39.9038C39.0161 40.1137 38.9756 40.3214 38.8969 40.5152C38.8183 40.7091 38.703 40.8851 38.5576 41.0334C38.4123 41.1816 38.2397 41.2991 38.0499 41.3792C37.86 41.4593 37.6566 41.5003 37.4512 41.5H25C24.5856 41.5 24.1882 41.3318 23.8951 41.0325C23.6021 40.7332 23.4375 40.3272 23.4375 39.9038C23.4375 39.4805 23.6021 39.0745 23.8951 38.7752C24.1882 38.4759 24.5856 38.3077 25 38.3077H37.4512C37.6566 38.3074 37.86 38.3484 38.0499 38.4285C38.2397 38.5085 38.4123 38.6261 38.5576 38.7743C38.703 38.9226 38.8183 39.0986 38.8969 39.2924C38.9756 39.4863 39.0161 39.694 39.0161 39.9038Z" fill="#00B87C" stroke="#CEFFEF" stroke-width="2" mask="url(#path-1-inside-1)"/>
</svg>
