<svg width="57" height="68" viewBox="0 0 57 68" fill="none" xmlns="http://www.w3.org/2000/svg">
<path d="M24.3601 33.1286C23.1652 33.1286 22.1934 34.1302 22.1934 35.362V46.5286C22.1934 47.7603 23.1651 48.762 24.3601 48.762H30.8601C32.0539 48.762 33.0268 47.7604 33.0268 46.5286V35.362C33.0268 34.1303 32.0539 33.1286 30.8601 33.1286C30.261 33.1286 29.7768 33.6289 29.7768 34.2452C29.7768 34.8616 30.261 35.3619 30.8601 35.3619V46.5285H24.3601V35.3619H27.6101C28.208 35.3619 28.6934 34.8616 28.6934 34.2452V29.7786C28.6934 29.1623 28.208 28.662 27.6101 28.662H26.5268V26.4286H27.6101C28.208 26.4286 28.6934 25.9283 28.6934 25.312V20.8452C28.6934 20.2289 28.208 19.7286 27.6101 19.7286H26.5268V17.4952H27.6101C28.208 17.4952 28.6934 16.995 28.6934 16.3786V11.9119C28.6934 11.2955 28.208 10.7952 27.6101 10.7952H26.5268V8.56187H27.6101C28.208 8.56187 28.6934 8.06159 28.6934 7.44524V4.09525H40.1615L50.6774 14.9347C51.0999 15.3714 51.7857 15.3714 52.2093 14.9347C52.6318 14.4982 52.6318 13.7923 52.2093 13.3558L41.376 2.18915C41.1723 1.97925 40.8971 1.862 40.6101 1.862H27.6101C27.011 1.862 26.5268 2.36227 26.5268 2.97862V6.32862H25.4434C24.8443 6.32862 24.3601 6.8289 24.3601 7.44524V11.9119C24.3601 12.5282 24.8443 13.0285 25.4434 13.0285H26.5266V15.2619H25.4434C24.8443 15.2619 24.3601 15.7621 24.3601 16.3785V20.8452C24.3601 21.4616 24.8443 21.9619 25.4434 21.9619H26.5266V24.1952H25.4434C24.8443 24.1952 24.3601 24.6955 24.3601 25.3119V29.7785C24.3601 30.3948 24.8443 30.8951 25.4434 30.8951H26.5266V33.1285H24.3601V33.1286Z" fill="#DC1AA3"/>
<path d="M27.6434 42.0618H27.6315C27.0346 42.0618 26.5547 42.5621 26.5547 43.1784C26.5547 43.7948 27.0443 44.2951 27.6434 44.2951C28.2414 44.2951 28.7267 43.7948 28.7267 43.1784C28.7267 42.5621 28.2414 42.0618 27.6434 42.0618Z" fill="#DC1AA3"/>
<path d="M55.7764 16.3786H44.9431C43.1501 16.3786 41.6931 14.8756 41.6931 13.0286V7.44524C41.6931 6.82889 41.2077 6.32862 40.6098 6.32862C40.0107 6.32862 39.5265 6.82889 39.5265 7.44524V13.0286C39.5265 16.1072 41.9564 18.612 44.9432 18.612H54.6932V62.162C54.6932 64.0089 53.235 65.512 51.4432 65.512H5.94308C4.15012 65.512 2.69308 64.0089 2.69308 62.162V6.32862C2.69308 4.48167 4.15012 2.97862 5.94308 2.97862H23.141C23.739 2.97862 24.2243 2.47834 24.2243 1.86199C24.2243 1.24565 23.739 0.745239 23.141 0.745239H5.94308C2.95638 0.745239 0.526367 3.24989 0.526367 6.32862V62.162C0.526367 65.2406 2.95638 67.7452 5.94308 67.7452H51.4431C54.4298 67.7452 56.8598 65.2406 56.8598 62.1619V17.4952C56.8598 16.8789 56.3745 16.3786 55.7764 16.3786Z" fill="#DC1AA3"/>
</svg>
