<svg width="19" height="18" viewBox="0 0 19 18" fill="none" xmlns="http://www.w3.org/2000/svg">
<path d="M11.75 2.25V6.75H16.25" stroke="#999999" stroke-width="1.22693" stroke-linecap="round" stroke-linejoin="round"/>
<path d="M17 1.5L11.75 6.75" stroke="#999999" stroke-width="1.22693" stroke-linecap="round" stroke-linejoin="round"/>
<path fill-rule="evenodd" clip-rule="evenodd" d="M16.2498 13.4398V15.6898C16.2515 16.1122 16.0751 16.5157 15.7639 16.8012C15.4527 17.0868 15.0355 17.2278 14.6148 17.1898C12.307 16.9391 10.0901 16.1504 8.14233 14.8873C6.3302 13.7358 4.79384 12.1995 3.64233 10.3873C2.37482 8.43073 1.58602 6.20308 1.33983 3.88483C1.30194 3.46548 1.44204 3.04952 1.72591 2.73855C2.00978 2.42757 2.41128 2.25023 2.83233 2.24983H5.08233C5.83523 2.24242 6.47696 2.79431 6.58233 3.53983C6.6773 4.25988 6.85342 4.96688 7.10733 5.64733C7.31338 6.19549 7.18159 6.81343 6.76983 7.22983L5.81733 8.18233C6.885 10.06 8.43967 11.6147 10.3173 12.6823L11.2698 11.7298C11.6862 11.3181 12.3042 11.1863 12.8523 11.3923C13.5328 11.6462 14.2398 11.8224 14.9598 11.9173C15.714 12.0237 16.2687 12.6784 16.2498 13.4398Z" stroke="#999999" stroke-width="1.22693" stroke-linecap="round" stroke-linejoin="round"/>
</svg>
